<svg width="83" height="82" viewBox="0 0 83 82" fill="none" xmlns="http://www.w3.org/2000/svg">
<path d="M14.2577 31.8484C15.1883 31.8484 15.962 31.1054 15.962 30.2108C15.962 29.1697 15.1883 28.4268 14.2577 28.4268C13.1728 28.4268 12.3965 29.1697 12.3965 30.2108C12.3965 31.1054 13.1728 31.8484 14.2577 31.8484Z" fill="#F80C30"/>
<path d="M17.6679 31.8484C18.7527 31.8484 19.5291 31.1054 19.5291 30.2108C19.5291 29.1697 18.7527 28.4268 17.6679 28.4268C16.7373 28.4268 15.9609 29.1697 15.9609 30.2108C15.9609 31.1054 16.7373 31.8484 17.6679 31.8484Z" fill="#F80C30"/>
<path d="M21.2342 31.8484C22.1648 31.8484 22.9385 31.1054 22.9385 30.2108C22.9385 29.1697 22.1648 28.4268 21.2342 28.4268C20.3036 28.4268 19.5298 29.1697 19.5298 30.2108C19.5298 31.1054 20.3036 31.8484 21.2342 31.8484Z" fill="#F80C30"/>
<path d="M24.7992 31.8484C25.7298 31.8484 26.5061 31.1054 26.5061 30.2108C26.5061 29.1697 25.7298 28.4268 24.7992 28.4268C23.7143 28.4268 22.938 29.1697 22.938 30.2108C22.938 31.1054 23.7143 31.8484 24.7992 31.8484Z" fill="#F80C30"/>
<path d="M28.2102 31.8484C29.2951 31.8484 30.0714 31.1054 30.0714 30.2108C30.0714 29.1697 29.2951 28.4268 28.2102 28.4268C27.2796 28.4268 26.5059 29.1697 26.5059 30.2108C26.5059 31.1054 27.2796 31.8484 28.2102 31.8484Z" fill="#F80C30"/>
<path d="M31.7762 31.8484C32.7068 31.8484 33.4832 31.1054 33.4832 30.2108C33.4832 29.1697 32.7068 28.4268 31.7762 28.4268C30.8456 28.4268 29.915 29.1697 29.915 30.2108C29.915 31.1054 30.8456 31.8484 31.7762 31.8484Z" fill="#F80C30"/>
<path d="M35.1878 31.8484C36.2726 31.8484 37.0489 31.1054 37.0489 30.2108C37.0489 29.1697 36.2726 28.4268 35.1878 28.4268C34.2572 28.4268 33.4834 29.1697 33.4834 30.2108C33.4834 31.1054 34.2572 31.8484 35.1878 31.8484Z" fill="#F80C30"/>
<path d="M38.7532 31.8484C39.6838 31.8484 40.6144 31.1054 40.6144 30.2108C40.6144 29.1697 39.6838 28.4268 38.7532 28.4268C37.8226 28.4268 37.0488 29.1697 37.0488 30.2108C37.0488 31.1054 37.8226 31.8484 38.7532 31.8484Z" fill="#F80C30"/>
<path d="M42.3186 31.8484C43.2492 31.8484 44.0255 31.1054 44.0255 30.2108C44.0255 29.1697 43.2492 28.4268 42.3186 28.4268C41.2337 28.4268 40.46 29.1697 40.46 30.2108C40.46 31.1054 41.2337 31.8484 42.3186 31.8484Z" fill="#F80C30"/>
<path d="M45.7302 31.8484C46.8151 31.8484 47.5914 31.1054 47.5914 30.2108C47.5914 29.1697 46.8151 28.4268 45.7302 28.4268C44.7997 28.4268 44.0259 29.1697 44.0259 30.2108C44.0259 31.1054 44.7997 31.8484 45.7302 31.8484Z" fill="#F80C30"/>
<path d="M49.2952 31.8484C50.2258 31.8484 51.0021 31.1054 51.0021 30.2108C51.0021 29.1697 50.2258 28.4268 49.2952 28.4268C48.3646 28.4268 47.5908 29.1697 47.5908 30.2108C47.5908 31.1054 48.3646 31.8484 49.2952 31.8484Z" fill="#F80C30"/>
<path d="M52.8615 31.8484C53.7921 31.8484 54.5685 31.1054 54.5685 30.2108C54.5685 29.1697 53.7921 28.4268 52.8615 28.4268C51.7767 28.4268 51.0029 29.1697 51.0029 30.2108C51.0029 31.1054 51.7767 31.8484 52.8615 31.8484Z" fill="#F80C30"/>
<path d="M14.2577 35.419C15.1883 35.419 15.962 34.6761 15.962 33.635C15.962 32.7429 15.1883 31.9974 14.2577 31.9974C13.1728 31.9974 12.3965 32.7429 12.3965 33.635C12.3965 34.6761 13.1728 35.419 14.2577 35.419Z" fill="#F80C30"/>
<path d="M17.6679 35.419C18.7527 35.419 19.5291 34.6761 19.5291 33.635C19.5291 32.7429 18.7527 31.9974 17.6679 31.9974C16.7373 31.9974 15.9609 32.7429 15.9609 33.635C15.9609 34.6761 16.7373 35.419 17.6679 35.419Z" fill="#F80C30"/>
<path d="M21.2342 35.419C22.1648 35.419 22.9385 34.6761 22.9385 33.635C22.9385 32.7429 22.1648 31.9974 21.2342 31.9974C20.3036 31.9974 19.5298 32.7429 19.5298 33.635C19.5298 34.6761 20.3036 35.419 21.2342 35.419Z" fill="#F80C30"/>
<path d="M24.7992 35.419C25.7298 35.419 26.5061 34.6761 26.5061 33.635C26.5061 32.7429 25.7298 31.9974 24.7992 31.9974C23.7143 31.9974 22.938 32.7429 22.938 33.635C22.938 34.6761 23.7143 35.419 24.7992 35.419Z" fill="#F80C30"/>
<path d="M28.2102 35.419C29.2951 35.419 30.0714 34.6761 30.0714 33.635C30.0714 32.7429 29.2951 31.9974 28.2102 31.9974C27.2796 31.9974 26.5059 32.7429 26.5059 33.635C26.5059 34.6761 27.2796 35.419 28.2102 35.419Z" fill="#F80C30"/>
<path d="M31.7762 35.419C32.7068 35.419 33.4832 34.6761 33.4832 33.635C33.4832 32.7429 32.7068 31.9974 31.7762 31.9974C30.8456 31.9974 29.915 32.7429 29.915 33.635C29.915 34.6761 30.8456 35.419 31.7762 35.419Z" fill="#F80C30"/>
<path d="M35.1878 35.419C36.2726 35.419 37.0489 34.6761 37.0489 33.635C37.0489 32.7429 36.2726 31.9974 35.1878 31.9974C34.2572 31.9974 33.4834 32.7429 33.4834 33.635C33.4834 34.6761 34.2572 35.419 35.1878 35.419Z" fill="#F80C30"/>
<path d="M38.7532 35.419C39.6838 35.419 40.6144 34.6761 40.6144 33.635C40.6144 32.7429 39.6838 31.9974 38.7532 31.9974C37.8226 31.9974 37.0488 32.7429 37.0488 33.635C37.0488 34.6761 37.8226 35.419 38.7532 35.419Z" fill="#F80C30"/>
<path d="M42.3186 35.419C43.2492 35.419 44.0255 34.6761 44.0255 33.635C44.0255 32.7429 43.2492 31.9974 42.3186 31.9974C41.2337 31.9974 40.46 32.7429 40.46 33.635C40.46 34.6761 41.2337 35.419 42.3186 35.419Z" fill="#F80C30"/>
<path d="M45.7302 35.419C46.8151 35.419 47.5914 34.6761 47.5914 33.635C47.5914 32.7429 46.8151 31.9974 45.7302 31.9974C44.7997 31.9974 44.0259 32.7429 44.0259 33.635C44.0259 34.6761 44.7997 35.419 45.7302 35.419Z" fill="#F80C30"/>
<path d="M49.2952 35.419C50.2258 35.419 51.0021 34.6761 51.0021 33.635C51.0021 32.7429 50.2258 31.9974 49.2952 31.9974C48.3646 31.9974 47.5908 32.7429 47.5908 33.635C47.5908 34.6761 48.3646 35.419 49.2952 35.419Z" fill="#F80C30"/>
<path d="M52.8615 35.419C53.7921 35.419 54.5685 34.6761 54.5685 33.635C54.5685 32.7429 53.7921 31.9974 52.8615 31.9974C51.7767 31.9974 51.0029 32.7429 51.0029 33.635C51.0029 34.6761 51.7767 35.419 52.8615 35.419Z" fill="#F80C30"/>
<path d="M14.2577 38.8432C15.1883 38.8432 15.9646 38.0977 15.9646 37.2056C15.9646 36.3136 15.1883 35.5681 14.2577 35.5681C13.1728 35.5681 12.3965 36.3136 12.3965 37.2056C12.3965 38.0977 13.1728 38.8432 14.2577 38.8432Z" fill="#F80C30"/>
<path d="M17.6687 38.8432C18.7536 38.8432 19.5299 38.0977 19.5299 37.2056C19.5299 36.3136 18.7536 35.5681 17.6687 35.5681C16.7381 35.5681 15.9644 36.3136 15.9644 37.2056C15.9644 38.0977 16.7381 38.8432 17.6687 38.8432Z" fill="#F80C30"/>
<path d="M21.2342 38.8432C22.1648 38.8432 22.9411 38.0977 22.9411 37.2056C22.9411 36.3136 22.1648 35.5681 21.2342 35.5681C20.3036 35.5681 19.5298 36.3136 19.5298 37.2056C19.5298 38.0977 20.3036 38.8432 21.2342 38.8432Z" fill="#F80C30"/>
<path d="M24.799 38.8432C25.7296 38.8432 26.506 38.0977 26.506 37.2056C26.506 36.3136 25.7296 35.5681 24.799 35.5681C23.7142 35.5681 22.9404 36.3136 22.9404 37.2056C22.9404 38.0977 23.7142 38.8432 24.799 38.8432Z" fill="#F80C30"/>
<path d="M28.2102 38.8432C29.2951 38.8432 30.0714 38.0977 30.0714 37.2056C30.0714 36.3136 29.2951 35.5681 28.2102 35.5681C27.2796 35.5681 26.5059 36.3136 26.5059 37.2056C26.5059 38.0977 27.2796 38.8432 28.2102 38.8432Z" fill="#F80C30"/>
<path d="M31.7761 38.8432C32.7067 38.8432 33.483 38.0977 33.483 37.2056C33.483 36.3136 32.7067 35.5681 31.7761 35.5681C30.8455 35.5681 29.9175 36.3136 29.9175 37.2056C29.9175 38.0977 30.8455 38.8432 31.7761 38.8432Z" fill="#F80C30"/>
<path d="M35.1878 38.8432C36.2726 38.8432 37.0489 38.0977 37.0489 37.2056C37.0489 36.3136 36.2726 35.5681 35.1878 35.5681C34.2572 35.5681 33.4834 36.3136 33.4834 37.2056C33.4834 38.0977 34.2572 38.8432 35.1878 38.8432Z" fill="#F80C30"/>
<path d="M38.7532 38.8432C39.6838 38.8432 40.6144 38.0977 40.6144 37.2056C40.6144 36.3136 39.6838 35.5681 38.7532 35.5681C37.8226 35.5681 37.0488 36.3136 37.0488 37.2056C37.0488 38.0977 37.8226 38.8432 38.7532 38.8432Z" fill="#F80C30"/>
<path d="M42.3186 38.8432C43.2492 38.8432 44.0255 38.0977 44.0255 37.2056C44.0255 36.3136 43.2492 35.5681 42.3186 35.5681C41.2337 35.5681 40.46 36.3136 40.46 37.2056C40.46 38.0977 41.2337 38.8432 42.3186 38.8432Z" fill="#F80C30"/>
<path d="M45.7302 38.8432C46.8151 38.8432 47.5914 38.0977 47.5914 37.2056C47.5914 36.3136 46.8151 35.5681 45.7302 35.5681C44.7997 35.5681 44.0259 36.3136 44.0259 37.2056C44.0259 38.0977 44.7997 38.8432 45.7302 38.8432Z" fill="#F80C30"/>
<path d="M49.2952 38.8432C50.2258 38.8432 51.0021 38.0977 51.0021 37.2056C51.0021 36.3136 50.2258 35.5681 49.2952 35.5681C48.3672 35.5681 47.5908 36.3136 47.5908 37.2056C47.5908 38.0977 48.3672 38.8432 49.2952 38.8432Z" fill="#F80C30"/>
<path d="M52.8641 38.8432C53.7921 38.8432 54.5685 38.0977 54.5685 37.2056C54.5685 36.3136 53.7921 35.5681 52.8641 35.5681C51.7767 35.5681 51.0029 36.3136 51.0029 37.2056C51.0029 38.0977 51.7767 38.8432 52.8641 38.8432Z" fill="#F80C30"/>
<path d="M14.2577 42.4139C15.1883 42.4139 15.9646 41.671 15.9646 40.7764C15.9646 39.7352 15.1883 38.9923 14.2577 38.9923C13.1728 38.9923 12.3965 39.7352 12.3965 40.7764C12.3965 41.671 13.1728 42.4139 14.2577 42.4139Z" fill="#F80C30"/>
<path d="M17.6687 42.4139C18.7536 42.4139 19.5299 41.671 19.5299 40.7764C19.5299 39.7352 18.7536 38.9923 17.6687 38.9923C16.7381 38.9923 15.9644 39.7352 15.9644 40.7764C15.9644 41.671 16.7381 42.4139 17.6687 42.4139Z" fill="#F80C30"/>
<path d="M21.2342 42.4139C22.1648 42.4139 22.9411 41.671 22.9411 40.7764C22.9411 39.7352 22.1648 38.9923 21.2342 38.9923C20.3036 38.9923 19.5298 39.7352 19.5298 40.7764C19.5298 41.671 20.3036 42.4139 21.2342 42.4139Z" fill="#F80C30"/>
<path d="M24.799 42.4139C25.7296 42.4139 26.506 41.671 26.506 40.7764C26.506 39.7352 25.7296 38.9923 24.799 38.9923C23.7142 38.9923 22.9404 39.7352 22.9404 40.7764C22.9404 41.671 23.7142 42.4139 24.799 42.4139Z" fill="#F80C30"/>
<path d="M28.2102 42.4139C29.2951 42.4139 30.0714 41.671 30.0714 40.7764C30.0714 39.7352 29.2951 38.9923 28.2102 38.9923C27.2796 38.9923 26.5059 39.7352 26.5059 40.7764C26.5059 41.671 27.2796 42.4139 28.2102 42.4139Z" fill="#F80C30"/>
<path d="M31.7761 42.4139C32.7067 42.4139 33.483 41.671 33.483 40.7764C33.483 39.7352 32.7067 38.9923 31.7761 38.9923C30.8455 38.9923 29.9175 39.7352 29.9175 40.7764C29.9175 41.671 30.8455 42.4139 31.7761 42.4139Z" fill="#F80C30"/>
<path d="M35.1878 42.4139C36.2726 42.4139 37.0489 41.671 37.0489 40.7764C37.0489 39.7352 36.2726 38.9923 35.1878 38.9923C34.2572 38.9923 33.4834 39.7352 33.4834 40.7764C33.4834 41.671 34.2572 42.4139 35.1878 42.4139Z" fill="#F80C30"/>
<path d="M38.7532 42.4139C39.6838 42.4139 40.6144 41.671 40.6144 40.7764C40.6144 39.7352 39.6838 38.9923 38.7532 38.9923C37.8226 38.9923 37.0488 39.7352 37.0488 40.7764C37.0488 41.671 37.8226 42.4139 38.7532 42.4139Z" fill="#F80C30"/>
<path d="M42.3211 42.4139C43.2492 42.4139 44.0255 41.671 44.0255 40.7764C44.0255 39.7352 43.2492 38.9923 42.3211 38.9923C41.2337 38.9923 40.46 39.7352 40.46 40.7764C40.46 41.671 41.2337 42.4139 42.3211 42.4139Z" fill="#F80C30"/>
<path d="M45.7302 42.4139C46.8176 42.4139 47.5914 41.671 47.5914 40.7764C47.5914 39.7352 46.8176 38.9923 45.7302 38.9923C44.7997 38.9923 44.0259 39.7352 44.0259 40.7764C44.0259 41.671 44.7997 42.4139 45.7302 42.4139Z" fill="#F80C30"/>
<path d="M49.2978 42.4139C50.2258 42.4139 51.0021 41.671 51.0021 40.7764C51.0021 39.7352 50.2258 38.9923 49.2978 38.9923C48.3672 38.9923 47.5908 39.7352 47.5908 40.7764C47.5908 41.671 48.3672 42.4139 49.2978 42.4139Z" fill="#F80C30"/>
<path d="M52.8641 42.4139C53.7947 42.4139 54.5685 41.671 54.5685 40.7764C54.5685 39.7352 53.7947 38.9923 52.8641 38.9923C51.7767 38.9923 51.0029 39.7352 51.0029 40.7764C51.0029 41.671 51.7767 42.4139 52.8641 42.4139Z" fill="#F80C30"/>
<path d="M14.257 45.9872C15.1876 45.9872 15.964 45.2417 15.964 44.2005C15.964 43.3085 15.1876 42.563 14.257 42.563C13.1722 42.563 12.3984 43.3085 12.3984 44.2005C12.3984 45.2417 13.1722 45.9872 14.257 45.9872Z" fill="#F80C30"/>
<path d="M17.6687 45.9872C18.7536 45.9872 19.5299 45.2417 19.5299 44.2005C19.5299 43.3085 18.7536 42.563 17.6687 42.563C16.7381 42.563 15.9644 43.3085 15.9644 44.2005C15.9644 45.2417 16.7381 45.9872 17.6687 45.9872Z" fill="#F80C30"/>
<path d="M21.2342 45.9872C22.1648 45.9872 22.9411 45.2417 22.9411 44.2005C22.9411 43.3085 22.1648 42.563 21.2342 42.563C20.3036 42.563 19.5298 43.3085 19.5298 44.2005C19.5298 45.2417 20.3036 45.9872 21.2342 45.9872Z" fill="#F80C30"/>
<path d="M24.799 45.9872C25.7296 45.9872 26.506 45.2417 26.506 44.2005C26.506 43.3085 25.7296 42.563 24.799 42.563C23.7142 42.563 22.9404 43.3085 22.9404 44.2005C22.9404 45.2417 23.7142 45.9872 24.799 45.9872Z" fill="#F80C30"/>
<path d="M28.2102 45.9872C29.2951 45.9872 30.0714 45.2417 30.0714 44.2005C30.0714 43.3085 29.2951 42.563 28.2102 42.563C27.2796 42.563 26.5059 43.3085 26.5059 44.2005C26.5059 45.2417 27.2796 45.9872 28.2102 45.9872Z" fill="#F80C30"/>
<path d="M31.7761 45.9872C32.7067 45.9872 33.483 45.2417 33.483 44.2005C33.483 43.3085 32.7067 42.563 31.7761 42.563C30.8481 42.563 29.9175 43.3085 29.9175 44.2005C29.9175 45.2417 30.8481 45.9872 31.7761 45.9872Z" fill="#F80C30"/>
<path d="M35.1878 45.9872C36.2726 45.9872 37.0489 45.2417 37.0489 44.2005C37.0489 43.3085 36.2726 42.563 35.1878 42.563C34.2572 42.563 33.4834 43.3085 33.4834 44.2005C33.4834 45.2417 34.2572 45.9872 35.1878 45.9872Z" fill="#F80C30"/>
<path d="M38.7532 45.9872C39.6838 45.9872 40.6144 45.2417 40.6144 44.2005C40.6144 43.3085 39.6838 42.563 38.7532 42.563C37.8252 42.563 37.0488 43.3085 37.0488 44.2005C37.0488 45.2417 37.8252 45.9872 38.7532 45.9872Z" fill="#F80C30"/>
<path d="M42.3211 45.9872C43.2492 45.9872 44.0255 45.2417 44.0255 44.2005C44.0255 43.3085 43.2492 42.563 42.3211 42.563C41.2337 42.563 40.46 43.3085 40.46 44.2005C40.46 45.2417 41.2337 45.9872 42.3211 45.9872Z" fill="#F80C30"/>
<path d="M45.7302 45.9872C46.8176 45.9872 47.5914 45.2417 47.5914 44.2005C47.5914 43.3085 46.8176 42.563 45.7302 42.563C44.8022 42.563 44.0259 43.3085 44.0259 44.2005C44.0259 45.2417 44.8022 45.9872 45.7302 45.9872Z" fill="#F80C30"/>
<path d="M49.2978 45.9872C50.2258 45.9872 51.0021 45.2417 51.0021 44.2005C51.0021 43.3085 50.2258 42.563 49.2978 42.563C48.3672 42.563 47.5908 43.3085 47.5908 44.2005C47.5908 45.2417 48.3672 45.9872 49.2978 45.9872Z" fill="#F80C30"/>
<path d="M52.8641 45.9872C53.7947 45.9872 54.5685 45.2417 54.5685 44.2005C54.5685 43.3085 53.7947 42.563 52.8641 42.563C51.7793 42.563 51.0029 43.3085 51.0029 44.2005C51.0029 45.2417 51.7793 45.9872 52.8641 45.9872Z" fill="#F80C30"/>
<path d="M14.257 49.4088C15.1876 49.4088 15.964 48.6658 15.964 47.7712C15.964 46.8792 15.1876 45.9872 14.257 45.9872C13.1722 45.9872 12.3984 46.8792 12.3984 47.7712C12.3984 48.6658 13.1722 49.4088 14.257 49.4088Z" fill="#F80C30"/>
<path d="M17.6687 49.4088C18.7536 49.4088 19.5299 48.6658 19.5299 47.7712C19.5299 46.8792 18.7536 45.9872 17.6687 45.9872C16.7381 45.9872 15.9644 46.8792 15.9644 47.7712C15.9644 48.6658 16.7381 49.4088 17.6687 49.4088Z" fill="#F80C30"/>
<path d="M21.2342 49.4088C22.1648 49.4088 22.9411 48.6658 22.9411 47.7712C22.9411 46.8792 22.1648 45.9872 21.2342 45.9872C20.3061 45.9872 19.5298 46.8792 19.5298 47.7712C19.5298 48.6658 20.3061 49.4088 21.2342 49.4088Z" fill="#F80C30"/>
<path d="M24.8016 49.4088C25.7296 49.4088 26.506 48.6658 26.506 47.7712C26.506 46.8792 25.7296 45.9872 24.8016 45.9872C23.7142 45.9872 22.9404 46.8792 22.9404 47.7712C22.9404 48.6658 23.7142 49.4088 24.8016 49.4088Z" fill="#F80C30"/>
<path d="M28.2102 49.4088C29.2976 49.4088 30.0714 48.6658 30.0714 47.7712C30.0714 46.8792 29.2976 45.9872 28.2102 45.9872C27.2822 45.9872 26.5059 46.8792 26.5059 47.7712C26.5059 48.6658 27.2822 49.4088 28.2102 49.4088Z" fill="#F80C30"/>
<path d="M31.7787 49.4088C32.7067 49.4088 33.483 48.6658 33.483 47.7712C33.483 46.8792 32.7067 45.9872 31.7787 45.9872C30.8481 45.9872 29.9175 46.8792 29.9175 47.7712C29.9175 48.6658 30.8481 49.4088 31.7787 49.4088Z" fill="#F80C30"/>
<path d="M35.1878 49.4088C36.2752 49.4088 37.0489 48.6658 37.0489 47.7712C37.0489 46.8792 36.2752 45.9872 35.1878 45.9872C34.2597 45.9872 33.4834 46.8792 33.4834 47.7712C33.4834 48.6658 34.2597 49.4088 35.1878 49.4088Z" fill="#F80C30"/>
<path d="M38.7558 49.4088C39.6838 49.4088 40.6144 48.6658 40.6144 47.7712C40.6144 46.8792 39.6838 45.9872 38.7558 45.9872C37.8252 45.9872 37.0488 46.8792 37.0488 47.7712C37.0488 48.6658 37.8252 49.4088 38.7558 49.4088Z" fill="#F80C30"/>
<path d="M42.3211 49.4088C43.2517 49.4088 44.0255 48.6658 44.0255 47.7712C44.0255 46.8792 43.2517 45.9872 42.3211 45.9872C41.2363 45.9872 40.46 46.8792 40.46 47.7712C40.46 48.6658 41.2363 49.4088 42.3211 49.4088Z" fill="#F80C30"/>
<path d="M45.7328 49.4088C46.8176 49.4088 47.5914 48.6658 47.5914 47.7712C47.5914 46.8792 46.8176 45.9872 45.7328 45.9872C44.8022 45.9872 44.0259 46.8792 44.0259 47.7712C44.0259 48.6658 44.8022 49.4088 45.7328 49.4088Z" fill="#F80C30"/>
<path d="M49.2978 49.4088C50.2283 49.4088 51.0021 48.6658 51.0021 47.7712C51.0021 46.8792 50.2283 45.9872 49.2978 45.9872C48.3672 45.9872 47.5908 46.8792 47.5908 47.7712C47.5908 48.6658 48.3672 49.4088 49.2978 49.4088Z" fill="#F80C30"/>
<path d="M52.8641 49.4088C53.7947 49.4088 54.5685 48.6658 54.5685 47.7712C54.5685 46.8792 53.7947 45.9872 52.8641 45.9872C51.7793 45.9872 51.0029 46.8792 51.0029 47.7712C51.0029 48.6658 51.7793 49.4088 52.8641 49.4088Z" fill="#F80C30"/>
<path d="M14.257 52.9795C15.1876 52.9795 15.964 52.2365 15.964 51.1954C15.964 50.3008 15.1876 49.5579 14.257 49.5579C13.1722 49.5579 12.3984 50.3008 12.3984 51.1954C12.3984 52.2365 13.1722 52.9795 14.257 52.9795Z" fill="#F80C30"/>
<path d="M17.6687 52.9795C18.7536 52.9795 19.5299 52.2365 19.5299 51.1954C19.5299 50.3008 18.7536 49.5579 17.6687 49.5579C16.7381 49.5579 15.9644 50.3008 15.9644 51.1954C15.9644 52.2365 16.7381 52.9795 17.6687 52.9795Z" fill="#F80C30"/>
<path d="M21.2342 52.9795C22.1648 52.9795 22.9411 52.2365 22.9411 51.1954C22.9411 50.3008 22.1648 49.5579 21.2342 49.5579C20.3061 49.5579 19.5298 50.3008 19.5298 51.1954C19.5298 52.2365 20.3061 52.9795 21.2342 52.9795Z" fill="#F80C30"/>
<path d="M24.8016 52.9795C25.7296 52.9795 26.506 52.2365 26.506 51.1954C26.506 50.3008 25.7296 49.5579 24.8016 49.5579C23.7142 49.5579 22.9404 50.3008 22.9404 51.1954C22.9404 52.2365 23.7142 52.9795 24.8016 52.9795Z" fill="#F80C30"/>
<path d="M28.2102 52.9795C29.2976 52.9795 30.0714 52.2365 30.0714 51.1954C30.0714 50.3008 29.2976 49.5579 28.2102 49.5579C27.2822 49.5579 26.5059 50.3008 26.5059 51.1954C26.5059 52.2365 27.2822 52.9795 28.2102 52.9795Z" fill="#F80C30"/>
<path d="M31.7787 52.9795C32.7067 52.9795 33.483 52.2365 33.483 51.1954C33.483 50.3008 32.7067 49.5579 31.7787 49.5579C30.8481 49.5579 29.9175 50.3008 29.9175 51.1954C29.9175 52.2365 30.8481 52.9795 31.7787 52.9795Z" fill="#F80C30"/>
<path d="M35.1878 52.9795C36.2752 52.9795 37.0489 52.2365 37.0489 51.1954C37.0489 50.3008 36.2752 49.5579 35.1878 49.5579C34.2597 49.5579 33.4834 50.3008 33.4834 51.1954C33.4834 52.2365 34.2597 52.9795 35.1878 52.9795Z" fill="#F80C30"/>
<path d="M38.7558 52.9795C39.6838 52.9795 40.6144 52.2365 40.6144 51.1954C40.6144 50.3008 39.6838 49.5579 38.7558 49.5579C37.8252 49.5579 37.0488 50.3008 37.0488 51.1954C37.0488 52.2365 37.8252 52.9795 38.7558 52.9795Z" fill="#F80C30"/>
<path d="M42.3211 52.9795C43.2517 52.9795 44.0255 52.2365 44.0255 51.1954C44.0255 50.3008 43.2517 49.5579 42.3211 49.5579C41.2363 49.5579 40.46 50.3008 40.46 51.1954C40.46 52.2365 41.2363 52.9795 42.3211 52.9795Z" fill="#F80C30"/>
<path d="M45.7328 52.9795C46.8176 52.9795 47.5914 52.2365 47.5914 51.1954C47.5914 50.3008 46.8176 49.5579 45.7328 49.5579C44.8022 49.5579 44.0259 50.3008 44.0259 51.1954C44.0259 52.2365 44.8022 52.9795 45.7328 52.9795Z" fill="#F80C30"/>
<path d="M49.2978 52.9795C50.2283 52.9795 51.0021 52.2365 51.0021 51.1954C51.0021 50.3008 50.2283 49.5579 49.2978 49.5579C48.3672 49.5579 47.5908 50.3008 47.5908 51.1954C47.5908 52.2365 48.3672 52.9795 49.2978 52.9795Z" fill="#F80C30"/>
<path d="M52.8641 52.9795C53.7947 52.9795 54.5685 52.2365 54.5685 51.1954C54.5685 50.3008 53.7947 49.5579 52.8641 49.5579C51.7793 49.5579 51.0029 50.3008 51.0029 51.1954C51.0029 52.2365 51.7793 52.9795 52.8641 52.9795Z" fill="#F80C30"/>
<mask id="mask0_929_3509" style="mask-type:luminance" maskUnits="userSpaceOnUse" x="0" y="0" width="72" height="63">
<path d="M0.842285 0H71.2587V62.7686H0.842285V0Z" fill="white"/>
</mask>
<g mask="url(#mask0_929_3509)">
<path d="M57.9778 -0.146484V10.4191C52.0858 3.87151 43.4045 -0.146484 33.6359 -0.146484C15.6513 -0.146484 0.923828 13.9923 0.923828 31.2545C0.923828 48.6659 15.6513 62.653 33.6359 62.653C43.4045 62.653 52.0858 58.635 57.9778 52.2365V62.5039H70.8467V-0.146484H57.9778ZM33.6359 51.3445C22.0087 51.3445 12.7053 42.4139 12.7053 31.2545C12.7053 20.2417 22.0087 11.1646 33.6359 11.1646C45.2657 11.1646 54.5665 20.2417 54.5665 31.2545C54.5665 42.4139 45.2657 51.3445 33.6359 51.3445Z" fill="#00423A"/>
</g>
<path d="M73.9487 58.4859C73.9487 60.8663 75.9642 62.8021 78.4449 62.8021C80.9256 62.8021 82.941 60.8663 82.941 58.4859C82.941 56.1054 80.9256 54.1697 78.4449 54.1697C75.9642 54.1697 73.9487 56.1054 73.9487 58.4859ZM74.414 58.4859C74.414 56.4036 76.121 54.617 78.4449 54.617C80.6171 54.617 82.4757 56.4036 82.4757 58.4859C82.4757 60.7172 80.6171 62.5039 78.4449 62.5039C76.121 62.5039 74.414 60.7172 74.414 58.4859Z" fill="#00423A"/>
<path d="M77.3598 56.6992C77.3598 56.5527 77.514 56.4036 77.825 56.4036C78.1361 56.4036 79.0667 56.5527 79.0667 57.4447C79.0667 58.4859 77.9793 58.4859 77.3598 58.4859V56.6992ZM80.7711 60.7172C80.46 60.7172 80.3058 60.5707 80.1515 60.4216L78.6014 58.635C78.9099 58.635 79.9947 58.3368 79.9947 57.4447C79.9947 56.4036 78.7556 56.2545 78.1361 56.2545H75.9639V56.4036C76.586 56.4036 76.586 56.4036 76.586 56.9974V59.9743C76.586 60.5707 76.586 60.7172 75.9639 60.7172V60.8663H78.1361V60.7172C77.514 60.7172 77.3598 60.5707 77.3598 60.1234V58.7841H77.825L79.5294 60.8663H80.7711V60.7172Z" fill="#00423A"/>
<mask id="mask1_929_3509" style="mask-type:luminance" maskUnits="userSpaceOnUse" x="0" y="66" width="14" height="16">
<path d="M0 66.0591H13.347V81.8534H0V66.0591Z" fill="white"/>
</mask>
<g mask="url(#mask1_929_3509)">
<path d="M3.87167 75.4497L6.35239 69.6477L8.98735 75.4497H3.87167ZM-0.15918 81.4035H1.23414L3.25213 76.6426H9.45264L11.4681 81.4035H12.864L6.35239 66.5217L-0.15918 81.4035Z" fill="#00423A"/>
</g>
<path d="M27.1266 80.0643C26.3528 80.6607 25.5764 81.1054 24.6459 81.4036C23.7178 81.7018 22.7872 81.7018 21.8567 81.7018C19.6844 81.7018 17.98 81.1054 16.4299 79.617C15.034 78.2776 14.2603 76.4936 14.2603 74.1105C14.2603 72.0283 15.034 70.2416 16.4299 68.7532C17.8258 67.2674 19.5302 66.5219 21.8567 66.5219C22.7872 66.5219 23.7178 66.671 24.4916 66.8201C25.4222 67.1183 26.1986 67.563 27.1266 68.1594V69.7969C26.1986 69.0514 25.4222 68.4576 24.4916 68.1594C23.561 67.8612 22.7872 67.7121 21.8567 67.7121C20.1497 67.7121 18.7564 68.3085 17.5148 69.6478C16.4299 70.838 15.8104 72.3265 15.8104 74.1105C15.8104 76.0463 16.4299 77.5347 17.5148 78.7249C18.7564 79.9152 20.1497 80.6607 21.8567 80.6607C22.7872 80.6607 23.7178 80.3625 24.6459 80.0643C25.5764 79.7661 26.3528 79.1722 27.1266 78.5758V80.0643Z" fill="#00423A"/>
<path d="M31.0023 73.5167V68.0102H32.8635C33.7941 68.0102 34.5679 68.3085 35.19 68.6066C35.8095 68.9023 36.118 69.6478 36.118 70.838C36.118 71.5809 35.9638 72.3265 35.3442 72.7712C34.8789 73.3676 33.7941 73.5167 32.3982 73.5167H31.0023ZM29.6064 81.4036H31.0023V74.7069H31.4676L36.5833 81.4036H38.1334L33.0178 74.7069C34.7247 74.7069 35.9638 74.2596 36.5833 73.5167C37.2054 72.7712 37.6707 71.8791 37.6707 70.838C37.6707 69.3496 37.2054 68.3084 36.2748 67.712C35.3442 67.1182 34.4137 66.9691 33.4831 66.9691H29.6064V81.4036Z" fill="#00423A"/>
<path d="M42.941 78.7249C41.702 77.3856 41.0798 75.8972 41.0798 74.1105C41.0798 72.3265 41.702 70.838 42.941 69.6478C44.1827 68.3085 45.576 67.7121 47.5914 67.7121C49.4526 67.7121 51.0027 68.3085 52.0875 69.4987C53.3292 70.838 53.9487 72.3265 53.9487 74.1105C53.9487 75.8972 53.3292 77.3856 52.0875 78.7249C51.0027 79.9152 49.4526 80.6607 47.5914 80.6607C45.576 80.6607 44.0259 79.9152 42.941 78.7249ZM41.8562 68.7532C40.3061 70.2416 39.6865 72.0283 39.6865 74.1105C39.6865 76.1954 40.3061 78.1285 41.8562 79.617C43.2521 81.1054 45.1107 81.7018 47.5914 81.7018C49.9179 81.7018 51.7791 80.9563 53.175 79.4679C54.7251 78.1285 55.4989 76.1954 55.4989 74.1105C55.4989 72.0283 54.7251 70.2416 53.175 68.7532C51.7791 67.2674 49.9179 66.5219 47.5914 66.5219C45.1107 66.5219 43.2521 67.2674 41.8562 68.7532Z" fill="#00423A"/>
<path d="M58.4438 66.3727L69.4516 78.4267V66.9691H70.8474V82L59.8397 69.946V81.4036H58.4438V66.3727Z" fill="#00423A"/>
</svg>
