<svg width="140" height="97" viewBox="0 0 140 97" fill="none" xmlns="http://www.w3.org/2000/svg">
<path d="M65.8976 76.9791C83.1213 76.9791 97.0838 63.1145 97.0838 46.0118C97.0838 28.9091 83.1213 15.0446 65.8976 15.0446C48.674 15.0446 34.7114 28.9091 34.7114 46.0118C34.7114 63.1145 48.674 76.9791 65.8976 76.9791Z" fill="url(#paint0_linear_929_3475)"/>
<path d="M48.8079 20.04C45.3079 22.3438 42.3148 25.3508 39.9976 28.8428L66.5976 51.3468V68.152L97.0596 42.3985C96.5286 37.7668 94.9596 33.3048 92.4734 29.352L66.5976 50.789V34.687L48.8079 20.04Z" fill="url(#paint1_radial_929_3475)"/>
<path d="M39.9494 28.8428C36.5459 33.9353 34.7114 39.9008 34.7114 46.0118C34.7114 63.108 48.6632 76.979 65.8976 76.979C83.1321 76.979 97.0838 63.108 97.0838 46.0118C97.0838 44.7993 97.0114 43.611 96.8666 42.3985L66.4287 67.7883L66.7907 50.983L39.9494 28.8428Z" fill="url(#paint2_radial_929_3475)"/>
<path d="M18.2001 89.3128C19.0208 89.3128 19.6001 89.1916 19.9622 88.9733C20.3484 88.7308 20.5415 88.3671 20.5415 87.882C20.5415 87.4213 20.3484 87.0576 19.9622 86.8151C19.6001 86.5726 19.0208 86.4756 18.2001 86.4756H15.9311V89.337L18.2001 89.3128ZM18.4656 91.3256H12.0449V79.8311H23.4139V82.0621H15.9311V84.1961H18.4897C20.3966 84.1961 21.8691 84.4871 22.9553 85.0933C23.9449 85.6268 24.4277 86.5241 24.4277 87.7608C24.4277 88.9733 23.9449 89.8705 22.9553 90.404C21.8691 91.0345 20.3725 91.3256 18.4656 91.3256Z" fill="#636163"/>
<path d="M34.831 89.0703H29.3758L28.5068 91.1558H25.0068L30.0034 79.6613H34.1551L39.1517 91.1558H35.6517L34.831 89.0703ZM30.2448 86.9363H33.9379L32.0792 82.353L30.2448 86.9363Z" fill="#636163"/>
<path d="M50.5207 89.0946H54.6V79.8311H57.7379V91.3256H40.1655V79.8311H43.3035V89.0946H47.3828V79.8311H50.5207V89.0946Z" fill="#636163"/>
<path d="M60.4175 79.8311H64.0382V84.2203H69.3727V79.8311H72.9933V91.3256H69.3727V86.4513H64.0382V91.3256H60.4175V79.8311Z" fill="#636163"/>
<path d="M74.7793 79.8311H84.6276V82.0621H78.4483V84.1961H84.2896V86.4271H78.4483V89.0703H84.869V91.3013H74.8034V79.8311H74.7793Z" fill="#636163"/>
<path d="M89.6243 85.5297C89.6243 86.4512 89.8656 87.1302 90.3484 87.5425C90.8311 87.9547 91.5794 88.1972 92.6174 88.2942V82.7652C91.5794 82.8622 90.8311 83.1047 90.3484 83.517C89.8656 83.9535 89.6243 84.6082 89.6243 85.5297ZM99.1587 85.5297C99.1587 84.6082 98.9174 83.9292 98.4346 83.517C97.9518 83.1047 97.2036 82.838 96.1656 82.7652V88.2942C97.2036 88.1972 97.9518 87.9547 98.4346 87.5425C98.9415 87.1302 99.1587 86.4755 99.1587 85.5297ZM92.6174 78.7882H96.1898V80.1462C98.4587 80.3402 100.124 80.8495 101.21 81.6982C102.297 82.547 102.852 83.8322 102.852 85.554C102.852 87.2757 102.297 88.561 101.21 89.4097C100.124 90.2585 98.4587 90.7677 96.1898 90.9375V92.5865H92.6174V90.9375C90.3484 90.7435 88.6829 90.2342 87.5725 89.4097C86.4863 88.561 85.9312 87.2757 85.9312 85.554C85.9312 83.8322 86.4863 82.547 87.5725 81.6982C88.6587 80.8495 90.3484 80.3402 92.6174 80.1462V78.7882Z" fill="#636163"/>
<path d="M102.393 79.8311H114.076V82.0621H109.876V91.3256H106.617V82.0621H102.417V79.8311H102.393Z" fill="#636163"/>
<path d="M121.655 89.3128C122.427 89.3128 122.983 89.1916 123.345 88.9733C123.707 88.7308 123.9 88.3671 123.9 87.882C123.9 87.4213 123.707 87.0576 123.345 86.8151C123.007 86.5726 122.452 86.4756 121.655 86.4756H119.483V89.337L121.655 89.3128ZM127.617 87.7851C127.617 88.9976 127.159 89.8948 126.217 90.4283C125.179 91.0345 123.755 91.3256 121.945 91.3256H115.79V79.8311H119.483V84.2203H121.921C123.731 84.2203 125.155 84.5113 126.193 85.1176C127.134 85.6753 127.617 86.5483 127.617 87.7851Z" fill="#636163"/>
<defs>
<linearGradient id="paint0_linear_929_3475" x1="75.8966" y1="21.1863" x2="66.4839" y2="44.3439" gradientUnits="userSpaceOnUse">
<stop stop-color="#DB2F7B"/>
<stop offset="1" stop-color="#9B2978"/>
</linearGradient>
<radialGradient id="paint1_radial_929_3475" cx="0" cy="0" r="1" gradientUnits="userSpaceOnUse" gradientTransform="translate(65.8946 -129.414) rotate(-42.2332) scale(43.9292 28.148)">
<stop stop-color="#FCFEFA"/>
<stop offset="1" stop-color="#D6D7D6"/>
</radialGradient>
<radialGradient id="paint2_radial_929_3475" cx="0" cy="0" r="1" gradientUnits="userSpaceOnUse" gradientTransform="translate(64.6727 -43.8778) rotate(-179.331) scale(30.3051 24.0727)">
<stop stop-color="#7BB631"/>
<stop offset="1" stop-color="#027E40"/>
</radialGradient>
</defs>
</svg>
