<svg width="114" height="140" viewBox="0 0 114 140" fill="none" xmlns="http://www.w3.org/2000/svg">
<g clip-path="url(#clip0_692_174)">
<path d="M89.2838 1.88867V71.7706C89.2838 108.836 59.1017 138.583 22.0276 138.583C-11.4816 138.583 -38.5742 111.669 -38.5742 78.3811C-38.5742 48.398 -14.0958 24.0809 16.0863 24.0809C43.1789 24.0809 65.2807 46.0371 65.2807 72.9511C65.2807 97.2681 45.5554 116.863 21.077 116.863" stroke="#3293FC" stroke-miterlimit="10"/>
<path d="M20.6021 117.099C-0.0738091 117.099 -16.9473 100.337 -16.9473 79.7976C-16.9473 61.3827 -1.73739 46.2731 16.7996 46.2731" stroke="#3293FC" stroke-miterlimit="10"/>
<path d="M16.7988 46.5093C31.0581 46.5093 42.4655 57.8415 42.4655 72.0067C42.4655 84.5194 32.0087 94.9073 19.413 94.9073" stroke="#3293FC" stroke-miterlimit="10"/>
<path d="M19.6509 94.6711C11.8083 94.6711 5.3916 88.5329 5.3916 80.742C5.3916 73.8954 11.0953 68.2293 18.2249 68.2293" stroke="#3293FC" stroke-miterlimit="10"/>
<path d="M65.043 25.9696L89.046 1.65259L113.287 25.9696" stroke="#3293FC" stroke-miterlimit="10"/>
</g>
<defs>
<clipPath id="clip0_692_174">
<rect width="154" height="140" fill="white" transform="translate(-40)"/>
</clipPath>
</defs>
</svg>
