<svg width="263" height="191" viewBox="0 0 263 191" fill="none" xmlns="http://www.w3.org/2000/svg">
<g clip-path="url(#clip0_692_167)">
<path d="M233.719 0.728052C243.883 17.0142 232.888 27.7526 221.459 29.9423C210.03 32.1319 207.026 42.8297 212.749 50.489C220.49 60.7871 210.641 76.8793 196.775 73.7833C183.522 70.8073 169.803 89.6053 182.198 101.198" stroke="#3293FC" stroke-miterlimit="10"/>
</g>
<g clip-path="url(#clip1_692_167)">
<path d="M254.41 127.926C258.561 127.926 261.926 124.561 261.926 120.411C261.926 116.26 258.561 112.895 254.41 112.895C250.259 112.895 246.895 116.26 246.895 120.411C246.895 124.561 250.259 127.926 254.41 127.926Z" stroke="#3293FC" stroke-miterlimit="10"/>
</g>
<path d="M15.3366 189.042C22.9058 189.042 29.0419 182.906 29.0419 175.337C29.0419 167.768 22.9058 161.632 15.3366 161.632C7.7674 161.632 1.63135 167.768 1.63135 175.337C1.63135 182.906 7.7674 189.042 15.3366 189.042Z" stroke="#3293FC" stroke-miterlimit="10"/>
<defs>
<clipPath id="clip0_692_167">
<rect width="112.359" height="25.2807" fill="white" transform="translate(253.895 15.5094) rotate(127.842)"/>
</clipPath>
<clipPath id="clip1_692_167">
<rect width="17" height="17" fill="white" transform="translate(246 112)"/>
</clipPath>
</defs>
</svg>
