<svg width="94" height="53" viewBox="0 0 94 53" fill="none" xmlns="http://www.w3.org/2000/svg">
<g clip-path="url(#clip0_929_2463)">
<path d="M78.9138 1.14673V43.5751C78.9138 66.0793 60.491 84.14 37.8613 84.14C17.4076 84.14 0.870605 67.7993 0.870605 47.5886C0.870605 29.3845 15.812 14.6206 34.2348 14.6206C50.7718 14.6206 64.2626 27.9511 64.2626 44.2918C64.2626 59.0557 52.2225 70.9528 37.2811 70.9528" stroke="#3293FC" stroke-miterlimit="10"/>
<path d="M36.991 71.0962C24.3707 71.0962 14.0713 60.9191 14.0713 48.4486C14.0713 37.2682 23.3552 28.0945 34.6701 28.0945" stroke="#3293FC" stroke-miterlimit="10"/>
<path d="M34.6699 28.2378C43.3736 28.2378 50.3366 35.1181 50.3366 43.7184C50.3366 51.3154 43.9539 57.6223 36.2656 57.6223" stroke="#3293FC" stroke-miterlimit="10"/>
<path d="M36.4107 57.4789C31.6237 57.4789 27.707 53.7521 27.707 49.0219C27.707 44.8651 31.1885 41.4249 35.5404 41.4249" stroke="#3293FC" stroke-miterlimit="10"/>
<path d="M64.1172 15.7673L78.7684 1.00342L93.5647 15.7673" stroke="#3293FC" stroke-miterlimit="10"/>
</g>
<defs>
<clipPath id="clip0_929_2463">
<rect width="94" height="85" fill="white"/>
</clipPath>
</defs>
</svg>
