<svg width="17" height="21" viewBox="0 0 17 21" fill="none" xmlns="http://www.w3.org/2000/svg">
<g clip-path="url(#clip0_366_278)">
<path d="M8.3999 4.70001V19.3" stroke="#3293FC" stroke-width="2" stroke-miterlimit="10"/>
<path d="M3.7002 7.70001L12.6002 16.6" stroke="#3293FC" stroke-width="2" stroke-miterlimit="10"/>
<path d="M3.6001 17.1L13.3001 7.40002" stroke="#3293FC" stroke-width="2" stroke-miterlimit="10"/>
<path d="M1.1001 12.4H15.6001" stroke="#3293FC" stroke-width="2" stroke-miterlimit="10"/>
<path d="M8.2998 7.5C9.12823 7.5 9.7998 6.82843 9.7998 6C9.7998 5.17157 9.12823 4.5 8.2998 4.5C7.47138 4.5 6.7998 5.17157 6.7998 6C6.7998 6.82843 7.47138 7.5 8.2998 7.5Z" fill="#3293FC" stroke="#3293FC" stroke-miterlimit="10"/>
<path d="M8.2998 20.3C9.12823 20.3 9.7998 19.6284 9.7998 18.8C9.7998 17.9716 9.12823 17.3 8.2998 17.3C7.47138 17.3 6.7998 17.9716 6.7998 18.8C6.7998 19.6284 7.47138 20.3 8.2998 20.3Z" fill="#3293FC" stroke="#3293FC" stroke-miterlimit="10"/>
<path d="M2 13.9C2.82843 13.9 3.5 13.2285 3.5 12.4C3.5 11.5716 2.82843 10.9 2 10.9C1.17157 10.9 0.5 11.5716 0.5 12.4C0.5 13.2285 1.17157 13.9 2 13.9Z" fill="#3293FC" stroke="#3293FC" stroke-miterlimit="10"/>
<path d="M14.7002 13.9C15.5286 13.9 16.2002 13.2285 16.2002 12.4C16.2002 11.5716 15.5286 10.9 14.7002 10.9C13.8718 10.9 13.2002 11.5716 13.2002 12.4C13.2002 13.2285 13.8718 13.9 14.7002 13.9Z" fill="#3293FC" stroke="#3293FC" stroke-miterlimit="10"/>
<path d="M12.7998 9.40002C13.6282 9.40002 14.2998 8.72845 14.2998 7.90002C14.2998 7.0716 13.6282 6.40002 12.7998 6.40002C11.9714 6.40002 11.2998 7.0716 11.2998 7.90002C11.2998 8.72845 11.9714 9.40002 12.7998 9.40002Z" fill="#3293FC" stroke="#3293FC" stroke-miterlimit="10"/>
<path d="M3.8999 9.40002C4.72833 9.40002 5.3999 8.72845 5.3999 7.90002C5.3999 7.0716 4.72833 6.40002 3.8999 6.40002C3.07148 6.40002 2.3999 7.0716 2.3999 7.90002C2.3999 8.72845 3.07148 9.40002 3.8999 9.40002Z" fill="#3293FC" stroke="#3293FC" stroke-miterlimit="10"/>
<path d="M3.8999 18.3C4.72833 18.3 5.3999 17.6284 5.3999 16.8C5.3999 15.9716 4.72833 15.3 3.8999 15.3C3.07148 15.3 2.3999 15.9716 2.3999 16.8C2.3999 17.6284 3.07148 18.3 3.8999 18.3Z" fill="#3293FC" stroke="#3293FC" stroke-miterlimit="10"/>
<path d="M12.7998 18.3C13.6282 18.3 14.2998 17.6284 14.2998 16.8C14.2998 15.9716 13.6282 15.3 12.7998 15.3C11.9714 15.3 11.2998 15.9716 11.2998 16.8C11.2998 17.6284 11.9714 18.3 12.7998 18.3Z" fill="#3293FC" stroke="#3293FC" stroke-miterlimit="10"/>
</g>
<defs>
<clipPath id="clip0_366_278">
<rect width="16.7" height="16.7" fill="white" transform="translate(0 4)"/>
</clipPath>
</defs>
</svg>
