<svg width="172" height="105" viewBox="0 0 172 105" fill="none" xmlns="http://www.w3.org/2000/svg">
<path d="M51.529 28.8004C49.9482 21.8787 45.9788 16.2516 45.4326 15.332C44.566 16.6256 41.3982 21.592 39.794 27.1084C38.0372 33.2557 37.7781 38.7098 38.3875 44.0828C38.9869 49.4522 41.2601 54.9657 41.2601 54.9657C42.468 57.8623 44.278 60.9608 45.4561 62.4834C47.184 60.244 51.1561 53.5612 52.3929 44.8256C53.0808 39.9765 53.107 35.724 51.529 28.8004ZM45.4326 60.7625C44.6554 59.2984 43.4466 56.5145 43.3319 52.2126C43.3021 48.0494 44.9704 44.4804 45.4561 43.7384C45.8903 44.4804 47.3284 47.5879 47.4991 51.8367C47.6146 55.998 46.2352 59.2713 45.4326 60.7625ZM51.0722 40.5488C51.0117 43.1903 50.693 45.9778 50.2922 47.6428C50.4375 44.7697 50.0882 40.7229 49.4282 37.5595C48.7683 34.397 46.8951 29.1241 45.4028 26.6729C44.0216 29.0024 42.3208 33.5712 41.4334 37.5316C40.5388 41.4982 40.5135 46.2942 40.5135 47.732C40.2752 46.5178 39.6821 42.1941 39.8509 37.8498C39.9881 34.2627 40.8286 30.581 41.2908 28.8843C43.0439 23.2265 45.0273 19.6088 45.4028 19.0381C45.7766 19.6088 48.279 24.0649 49.5736 28.7455C50.8654 33.4262 51.1245 37.9075 51.0722 40.5488Z" fill="#0079C1"/>
<path d="M48.1179 64.0963H36.0796V72.1648C36.0904 72.153 36.0995 72.1414 36.1121 72.1287C38.9468 69.299 43.5454 69.299 46.3828 72.1287C49.2174 74.9622 49.2174 79.5562 46.3828 82.3861C46.3692 82.4023 46.3593 82.4095 46.3449 82.4221C46.3322 82.4356 46.3169 82.45 46.3042 82.4644C43.475 85.2637 39.7782 86.6727 36.0796 86.6727C32.3702 86.6727 28.6562 85.2528 25.8215 82.4276C20.8302 77.444 20.2371 69.7289 24.0449 64.0963C24.5577 63.3337 25.1472 62.6143 25.8215 61.9408C28.6562 59.1102 32.3702 57.6993 36.0796 57.6993V38.3062C21.8151 38.3062 10.248 49.8607 10.248 64.0963C10.248 78.3446 21.8151 89.8947 36.0796 89.8947C43.5219 89.8947 50.2231 86.7538 54.9337 81.7298V64.0963H48.1179Z" fill="#0079C1"/>
<path d="M58.1484 38.1516H67.6608V41.3547H63.1362V63.9582H58.1484V38.1516Z" fill="#0079C1"/>
<path d="M73.2939 54.2606L74.1515 41.352H74.4332L75.2917 54.2606H73.2939ZM67.7744 63.958H72.6511L73.1169 57.0986H75.4695L75.929 63.958H80.8103L78.213 38.1516H70.3744L67.7744 63.958Z" fill="#0079C1"/>
<path d="M87.9497 54.9227V59.7792C87.9497 60.4444 88.4481 60.6302 88.7306 60.6302C89.1964 60.6302 89.5187 60.2227 89.5187 59.7792V53.7788C89.5187 52.9674 89.3743 52.0848 87.5209 52.0848H85.4924V49.2459H87.5877C89.0123 49.2459 89.5187 48.9106 89.5187 47.3294V42.199C89.5187 41.7563 89.1964 41.3543 88.7306 41.3543C88.4481 41.3543 87.9497 41.5354 87.9497 42.199V46.4089H82.9629V42.7597C82.9629 40.953 83.1759 38.1512 86.6651 38.1512H90.7988C94.2916 38.1512 94.5056 40.953 94.5056 42.7597V46.8922C94.5056 49.6923 92.6152 50.4621 91.1193 50.39V50.6496C94.4649 50.5712 94.5056 53.227 94.5056 54.1519V59.3446C94.5056 61.1513 94.2916 63.9577 90.7988 63.9577H86.6651C83.1759 63.9577 82.9629 61.1513 82.9629 59.3446V54.9227H87.9497Z" fill="#0079C1"/>
<path d="M97.7822 38.1516H109.326V63.9582H104.34V41.3547H102.769V63.9582H97.7822V38.1516Z" fill="#0079C1"/>
<path d="M117.588 52.3404V41.3546H118.224C118.766 41.3546 119.149 41.8325 119.149 42.6393V51.0576C119.149 51.8662 118.766 52.3404 118.224 52.3404H117.588ZM112.603 63.958H117.588V55.1793H120.437C123.928 55.1793 124.146 52.3782 124.146 50.5707V42.7593C124.146 40.9526 123.928 38.1516 120.437 38.1516H112.603V63.958Z" fill="#0079C1"/>
<path d="M133.977 59.7786C133.977 60.223 133.653 60.6304 133.192 60.6304C132.904 60.6304 132.404 60.4448 132.404 59.7786V42.1984C132.404 41.5358 132.904 41.3545 133.192 41.3545C133.653 41.3545 133.977 41.7556 133.977 42.1984V59.7786ZM127.424 59.3449C127.424 61.1515 127.633 63.9579 131.124 63.9579H135.253C138.745 63.9579 138.96 61.1515 138.96 59.3449V42.7599C138.96 40.9534 138.745 38.1515 135.253 38.1515H131.124C127.633 38.1515 127.424 40.9534 127.424 42.7599V59.3449Z" fill="#0079C1"/>
<path d="M155.204 38.1516H161.689V63.9582H156.697V47.7716H156.522L153.955 63.9582H149.966L147.403 47.7716H147.224V63.9582H142.236V38.1516H148.717L151.958 56.2863L155.204 38.1516Z" fill="#0079C1"/>
<path d="M161.868 72.116H57.8975V89.8936H161.868V72.116Z" fill="#0079C1"/>
<path d="M67.918 75.1749V86.817H65.1095V77.3809H63.2742V86.817H60.4648V75.1749H67.918Z" fill="white"/>
<path d="M70.126 75.1749H76.6529V77.3809H72.9354V79.6663H76.2638V81.8723H72.9354V84.6119H76.6529V86.817H70.126V75.1749Z" fill="white"/>
<path d="M81.2654 86.8166H78.4561V75.1746H82.5311C84.1552 75.1746 85.9417 75.7588 85.9417 78.7265C85.9417 81.5951 84.1868 82.2767 82.5311 82.2767H81.2654V86.8166ZM81.2654 80.186H81.7692C82.4661 80.186 83.1323 79.8453 83.1323 78.6941C83.1323 77.5419 82.5311 77.267 81.7195 77.267H81.2654V80.186Z" fill="white"/>
<path d="M88.0195 75.1749H94.5465V77.3809H90.8289V79.6663H94.1574V81.8723H90.8289V84.6119H94.5465V86.817H88.0195V75.1749Z" fill="white"/>
<path d="M99.158 86.8166H96.3486V75.1746H100.424C102.049 75.1746 103.834 75.7588 103.834 78.7265C103.834 81.5951 102.081 82.2767 100.424 82.2767H99.158V86.8166ZM99.158 80.186H99.6618C100.36 80.186 101.026 79.8453 101.026 78.6941C101.026 77.5419 100.424 77.267 99.6121 77.267H99.158V80.186Z" fill="white"/>
<path d="M111.076 75.1749L113.659 86.8169H110.897L110.475 84.4811H108.331L107.975 86.8169H105.182L107.715 75.1749H111.076ZM110.102 82.3905L109.355 77.2664H109.339L108.608 82.3905H110.102Z" fill="white"/>
<path d="M121.485 75.1747V77.2671H117.945V79.6669H119.212C120.868 79.6669 122.622 80.3953 122.622 83.2666C122.622 86.2344 120.836 86.8168 119.212 86.8168H115.137V75.1747H121.485ZM117.945 84.7261H118.432C119.244 84.7261 119.813 84.4494 119.813 83.2991C119.813 82.1307 119.18 81.7583 118.481 81.7583H117.945V84.7261Z" fill="white"/>
<path d="M132.135 78.2071V83.4286C132.135 85.7464 130.982 87.0932 128.352 87.0932C125.755 87.0932 124.568 85.7464 124.568 83.4286V78.1909C124.568 76.3589 125.722 74.9148 128.369 74.9148C131.015 74.9148 132.135 76.3914 132.135 78.2071ZM127.379 78.0123V83.9145C127.379 84.6114 127.866 84.9522 128.352 84.9522C128.823 84.9522 129.327 84.6114 129.327 83.9145V78.0123C129.327 77.3479 128.823 77.0559 128.352 77.0559C127.866 77.0559 127.379 77.3479 127.379 78.0123Z" fill="white"/>
<path d="M138.469 86.817H135.888V77.381H133.678V75.175H140.531V77.381H138.469V86.817Z" fill="white"/>
<path d="M144.9 79.8136L146.864 75.1744H149.916L147.336 80.3157L149.916 86.8174H146.961L145.662 82.7643L144.9 84.1093V86.8174H142.22V75.1744H144.9V79.8136Z" fill="white"/>
<path d="M156.719 75.1749L159.301 86.8169H156.541L156.119 84.4811H153.975L153.618 86.8169H150.825L153.358 75.1749H156.719ZM155.745 82.3905L154.998 77.2664H154.982L154.251 82.3905H155.745Z" fill="white"/>
</svg>
