<svg width="150" height="72" viewBox="0 0 150 72" fill="none" xmlns="http://www.w3.org/2000/svg">
<path d="M46.2568 47.0737H55.7615V50.1793H51.24V72H46.2568V47.0737Z" fill="#0079C2"/>
<path d="M61.3964 62.6424L62.2504 50.1793H62.5365L63.3905 62.6424H61.3964ZM55.8779 72H60.7569L61.2187 65.3802H63.5683L64.0321 72H68.909L66.3102 47.0737H58.4768L55.8779 72Z" fill="#0079C2"/>
<path d="M76.0458 63.2758V67.975C76.0458 68.6084 76.5361 68.7922 76.8222 68.7922C77.2921 68.7922 77.619 68.404 77.619 67.975V62.1725C77.619 61.3961 77.476 60.538 75.6167 60.538H73.594V57.8002H75.6984C77.1082 57.8002 77.619 57.4733 77.619 55.9409V50.9966C77.619 50.5675 77.2921 50.1793 76.8222 50.1793C76.5361 50.1793 76.0458 50.3428 76.0458 50.9966V55.0624H71.0605V51.5278C71.0605 49.7911 71.2648 47.0737 74.7586 47.0737H78.8857C82.3795 47.0737 82.6042 49.7911 82.6042 51.5278V55.5119C82.6042 58.2292 80.7041 58.9648 79.2126 58.9035V59.1486C82.5634 59.0669 82.6042 61.6413 82.6042 62.5198V67.5459C82.6042 69.303 82.3795 72 78.8857 72H74.7586C71.2648 72 71.0605 69.303 71.0605 67.5459V63.2758H76.0458Z" fill="#0079C2"/>
<path d="M85.873 47.0737H97.4167V72H92.4315V50.1793H90.8583V72H85.873V47.0737Z" fill="#0079C2"/>
<path d="M105.671 60.7832V50.1793H106.325C106.856 50.1793 107.244 50.6288 107.244 51.4256V59.5368C107.244 60.3337 106.856 60.7832 106.325 60.7832H105.671ZM100.686 72H105.671V63.521H108.531C112.004 63.521 112.229 60.824 112.229 59.0669V51.5278C112.229 49.7911 112.004 47.0737 108.531 47.0737H100.686V72Z" fill="#0079C2"/>
<path d="M122.056 67.975C122.056 68.404 121.73 68.7922 121.26 68.7922C120.974 68.7922 120.483 68.6084 120.483 67.975V50.9966C120.483 50.3428 120.974 50.1793 121.26 50.1793C121.73 50.1793 122.056 50.5675 122.056 50.9966V67.975ZM115.498 67.5459C115.498 69.303 115.723 72 119.196 72H123.344C126.817 72 127.042 69.303 127.042 67.5459V51.5278C127.042 49.7911 126.817 47.0737 123.344 47.0737H119.196C115.723 47.0737 115.498 49.7911 115.498 51.5278V67.5459Z" fill="#0079C2"/>
<path d="M143.264 47.0737H149.761V72H144.776V56.37H144.592L142.018 72H138.034L135.48 56.37H135.296V72H130.311V47.0737H136.787L140.036 64.6038L143.264 47.0737Z" fill="#0079C2"/>
<path d="M39.7963 12.9943C38.2701 6.31327 34.4454 0.878548 33.9182 0C33.0846 1.24631 30.0342 6.04767 28.4835 11.3598C26.7897 17.3053 26.5405 22.5766 27.1248 27.7457C27.7051 32.9353 29.8973 38.2679 29.8973 38.2679C31.0619 41.0465 32.8068 44.0499 33.9427 45.521C35.6079 43.3553 39.4347 36.899 40.6279 28.4813C41.2919 23.7821 41.3205 19.6754 39.7963 12.9943ZM33.9182 43.8456C33.1684 42.4359 32.0038 39.7594 31.8935 35.5914C31.8649 31.5868 33.4728 28.1339 33.9427 27.4188C34.3616 28.1339 35.7468 31.1373 35.9123 35.244C36.0247 39.2486 34.6926 42.4154 33.9182 43.8456ZM39.353 24.3337C39.2958 26.8876 38.9913 29.5846 38.6031 31.1986C38.7421 28.42 38.409 24.5176 37.7716 21.4529C37.1341 18.4086 35.33 13.3008 33.8896 10.9512C32.5595 13.1986 30.921 17.6118 30.0628 21.4325C29.2006 25.2531 29.1761 29.891 29.1761 31.2804C28.9473 30.1158 28.3752 25.9274 28.5366 21.7389C28.6715 18.286 29.4805 14.7106 29.9239 13.0761C31.6156 7.62089 33.53 4.12713 33.8896 3.57547C34.2492 4.12713 36.6601 8.43813 37.9105 12.9535C39.1548 17.4688 39.4061 21.8002 39.353 24.3337Z" fill="#0079C2"/>
<path d="M36.5067 47.0738H24.9037V54.8582C24.914 54.8582 24.9221 54.8377 24.9323 54.8377C27.6661 52.0999 32.0997 52.0999 34.8354 54.8377C37.5691 57.5551 37.5691 61.9887 34.8354 64.7265C34.8232 64.7469 34.8109 64.7469 34.7986 64.7674C34.7843 64.7674 34.77 64.7878 34.7578 64.8082C32.0302 67.5052 28.467 68.8536 24.9037 68.8536C21.3242 68.8536 17.7446 67.5052 15.015 64.7674C10.2014 59.966 9.63133 52.5086 13.3008 47.0738C13.7952 46.3383 14.3653 45.6436 15.015 44.9898C17.7446 42.252 21.3242 40.9036 24.9037 40.9036V22.1885C11.1494 22.1885 0 33.3235 0 47.0738C0 60.8241 11.1494 71.9796 24.9037 71.9796C32.0751 71.9796 38.5355 68.9353 43.0794 64.0931V47.0738H36.5067Z" fill="#0079C2"/>
</svg>
