<svg width="150" height="74" viewBox="0 0 150 74" fill="none" xmlns="http://www.w3.org/2000/svg">
<g clip-path="url(#clip0_929_3611)">
<path d="M46.3306 23.1166H55.8503V26.2406H51.3218V48.191H46.3306V23.1166ZM61.4943 38.7779L62.3498 26.2406H62.6362L63.4916 38.7779H61.4943ZM55.967 48.191H60.8539L61.3161 41.5318H63.6696L64.134 48.191H69.0188L66.4159 23.1166H58.5699L55.967 48.191ZM76.167 39.4151V44.142C76.167 44.7792 76.6581 44.9642 76.9446 44.9642C77.4152 44.9642 77.7426 44.5737 77.7426 44.142V38.3054C77.7426 37.5242 77.5993 36.6611 75.7372 36.6611H73.7112V33.9071H75.819C77.231 33.9071 77.7426 33.5782 77.7426 32.0367V27.0628C77.7426 26.6311 77.4152 26.2406 76.9443 26.2406C76.6581 26.2406 76.167 26.405 76.167 27.0628V31.1527H71.1735V27.5972C71.1735 25.8501 71.3782 23.1166 74.8773 23.1166H79.0111C82.5105 23.1166 82.7356 25.8501 82.7356 27.5972V31.6048C82.7356 34.3384 80.8325 35.0784 79.3386 35.0166V35.2633C82.6946 35.1811 82.7356 37.7705 82.7356 38.6545V43.7106C82.7356 45.478 82.5105 48.191 79.0111 48.191H74.8773C71.3782 48.191 71.1735 45.4778 71.1735 43.7104V39.4151H76.167ZM86.01 23.1166H97.5721V48.191H92.5789V26.2406H91.0033V48.191H86.01V23.1166ZM105.84 36.9076V26.2408H106.494C107.026 26.2408 107.415 26.6927 107.415 27.4944V35.6538C107.415 36.4556 107.026 36.9074 106.494 36.9074L105.84 36.9076ZM100.846 48.191H105.84V39.6616H108.704C112.183 39.6616 112.408 36.9486 112.408 35.1809V27.5972C112.408 25.8501 112.183 23.1166 108.704 23.1166H100.846V48.191ZM122.251 44.142C122.251 44.5737 121.924 44.9642 121.453 44.9642C121.167 44.9642 120.676 44.7792 120.676 44.142V27.0628C120.676 26.405 121.167 26.2406 121.453 26.2406C121.924 26.2406 122.251 26.6311 122.251 27.0628V44.142ZM115.683 43.7106C115.683 45.478 115.908 48.191 119.387 48.191H123.541C127.02 48.191 127.245 45.4778 127.245 43.7104V27.5972C127.245 25.8501 127.02 23.1166 123.541 23.1166H119.387C115.908 23.1166 115.683 25.8501 115.683 27.5972V43.7106ZM143.493 23.1166H150V48.191H145.007V32.4681H144.823L142.245 48.191H138.254L135.696 32.4681H135.512V48.191H130.519V23.1166H137.006L140.26 40.7509L143.493 23.1166ZM39.8598 13.8679C38.3313 7.14716 34.5003 1.68022 33.9724 0.796265C33.1374 2.04988 30.0822 6.88005 28.5291 12.2236C26.8325 18.2044 26.5829 23.507 27.1684 28.7069C27.7495 33.9273 29.9451 39.2917 29.9451 39.2917C31.1117 42.0869 32.8591 45.1079 33.9971 46.5879C35.6647 44.4094 39.4977 37.9145 40.6927 29.4469C41.3579 24.7197 41.3865 20.5887 39.8598 13.8679ZM33.9724 44.9026C33.2215 43.4844 32.0549 40.7918 31.9444 36.5991C31.9157 32.5709 33.5262 29.0973 33.9971 28.3782C34.4165 29.0976 35.8039 32.1186 35.9697 36.2498C36.0822 40.2782 34.748 43.4636 33.9724 44.9026ZM39.4159 25.2745C39.3586 27.8437 39.0536 30.5567 38.6648 32.1804C38.8039 29.3853 38.4705 25.4597 37.8318 22.3768C37.1934 19.3143 35.3864 14.1763 33.9439 11.8126C32.6117 14.0735 30.9703 18.5127 30.1109 22.3562C29.2473 26.1994 29.2228 30.865 29.2228 32.2626C28.9935 31.0909 28.4206 26.8778 28.5822 22.6645C28.7174 19.1911 29.5276 15.5944 29.9718 13.9501C31.6661 8.46257 33.5836 4.94803 33.9437 4.39298C34.304 4.94803 36.7186 9.28473 37.971 13.8267C39.2174 18.369 39.469 22.7259 39.4159 25.2745Z" fill="#0079C2"/>
<path d="M36.5647 48.1498H24.9433V55.9805C24.9537 55.9805 24.9618 55.9599 24.972 55.9599C27.7101 53.2059 32.1509 53.2059 34.8909 55.9599C37.629 58.6935 37.629 63.1533 34.8909 65.9075C34.8786 65.9279 34.8662 65.9279 34.8541 65.9485C34.8398 65.9485 34.8254 65.9691 34.8131 65.9897C32.0812 68.7027 28.5124 70.0591 24.9433 70.0591C21.3582 70.0591 17.7728 68.7027 15.0389 65.9485C10.2175 61.1185 9.64658 53.6168 13.3219 48.1498C13.8265 47.3977 14.4014 46.6958 15.0389 46.0535C17.7728 43.2995 21.3582 41.9429 24.9433 41.9429V23.1166C11.1671 23.1166 0 34.3178 0 48.1498C0 61.9819 11.1671 73.2037 24.9433 73.2037C32.1262 73.2037 38.5969 70.1412 43.148 65.2703V48.1498H36.5647ZM150 55.5167H46.3302V73.2037H150V55.5167ZM141.036 67.8641H142.351V65.1943H141.036V67.8641ZM141.036 63.1921H143.026L144.358 63.8597L144.687 64.527L145.016 65.8619V66.5292C144.981 71.3109 141.918 69.5605 138.699 69.8666V58.8538H141.036V63.1921ZM123.747 58.8538V60.8561H122.085V69.8666H119.438V60.8561H117.776V58.8538H123.747ZM99.5012 66.863H99.83L100.488 66.5292V61.8572H99.5012V66.863ZM96.8361 61.8574H95.8322V66.5292L96.507 66.863H96.8361V61.8574ZM99.5012 58.8538V59.855H101.163L102.149 60.5223L102.824 61.1899L103.153 62.5248V66.1957L102.824 67.5306L102.149 68.1979L101.163 68.8652H99.5012V69.8664H96.8361V68.8652H95.1746L94.171 68.1979L93.5134 67.5306L93.1846 66.1957V62.5248L93.5132 61.1899L94.171 60.5223L95.1746 59.855H96.8361V58.8538H99.5012ZM77.8964 58.8538V60.8561H75.9028V63.1921H77.8964V65.1943H75.9028V67.8641H78.2288V69.8664H73.2446V58.8538H77.8964ZM53.9726 63.1921H55.3017V58.8538H57.6276V69.8666H55.3017V65.1943H53.9726V69.8666H51.3144V58.8538H53.9726V63.1921Z" fill="#0079C2"/>
</g>
<defs>
<clipPath id="clip0_929_3611">
<rect width="150" height="74" fill="white"/>
</clipPath>
</defs>
</svg>
