<svg width="47" height="58" viewBox="0 0 47 58" fill="none" xmlns="http://www.w3.org/2000/svg">
<g clip-path="url(#clip0_692_138)">
<path d="M36.7 22.3C36.6 18.6 35.4 15.2 33.5 12.4C34.3 11.2 34.7 9.8 34.7 8.3C34.7 4 31.2 0.5 26.9 0.5C23.9 0.5 21.3 2.2 20 4.7C19.5 4.7 19.1 4.6 18.6 4.6C13.8 4.6 9.5 6.4 6.3 9.5C6.3 9.4 6.3 9.4 6.3 9.3C6.3 7.7 5 6.4 3.4 6.4C1.8 6.4 0.5 7.7 0.5 9.3C0.5 10.9 1.8 12.2 3.4 12.2C3.6 12.2 3.8 12.2 3.9 12.1C1.7 15.1 0.5 18.7 0.5 22.7C0.5 32.7 8.6 40.8 18.6 40.8C21.8 40.8 24.8 40 27.4 38.5C29.3 41.1 32.3 42.9 35.8 42.9C41.5 42.9 46.1 38.3 46.1 32.6C46.1 27.1 42 22.7 36.7 22.3Z" stroke="#3293FC" stroke-miterlimit="10"/>
<path d="M12.0996 14L18.9996 23.1V57.6" stroke="#3293FC" stroke-miterlimit="10"/>
<path d="M12.0996 23.9L18.9996 30.4" stroke="#3293FC" stroke-miterlimit="10"/>
<path d="M15 17.9L19 12.7" stroke="#3293FC" stroke-miterlimit="10"/>
<path d="M19 35.8L30.2 25.9" stroke="#3293FC" stroke-miterlimit="10"/>
<path d="M19 23.1L26.8 15.1" stroke="#3293FC" stroke-miterlimit="10"/>
</g>
<defs>
<clipPath id="clip0_692_138">
<rect width="46.6" height="57.6" fill="white"/>
</clipPath>
</defs>
</svg>
