<svg width="38" height="54" viewBox="0 0 38 54" fill="none" xmlns="http://www.w3.org/2000/svg">
<g clip-path="url(#clip0_692_82)">
<path d="M22.8999 17.2V4.5H26.1999V0.5H22.8999H16.9999H13.6999V4.5H16.9999V16.9C7.8999 17.9 0.899902 25.6 0.899902 34.9C0.899902 44.9 8.9999 53 18.9999 53C28.9999 53 37.0999 44.9 37.0999 34.9C37.0999 26.2 30.9999 19 22.8999 17.2Z" fill="white" stroke="#1B1A1A" stroke-miterlimit="10"/>
<path d="M0.899902 34.8C0.899902 34.8 6.0999 28.5 14.1999 35.2C20.9999 40.8 26.9999 46.2 36.1999 40.3" stroke="#1B1A1A" stroke-miterlimit="10"/>
<path d="M27.8999 32.7C29.8329 32.7 31.3999 31.133 31.3999 29.2C31.3999 27.267 29.8329 25.7 27.8999 25.7C25.9669 25.7 24.3999 27.267 24.3999 29.2C24.3999 31.133 25.9669 32.7 27.8999 32.7Z" stroke="#1B1A1A" stroke-miterlimit="10"/>
<path d="M12.5998 25.7C13.3178 25.7 13.8998 25.1179 13.8998 24.4C13.8998 23.682 13.3178 23.1 12.5998 23.1C11.8818 23.1 11.2998 23.682 11.2998 24.4C11.2998 25.1179 11.8818 25.7 12.5998 25.7Z" stroke="#1B1A1A" stroke-miterlimit="10"/>
<path d="M1.3999 39.2C4.6999 36.4 16.6999 36.3 21.8999 38.4C26.9999 40.5 35.7999 42 36.9999 36.7" stroke="#1B1A1A" stroke-miterlimit="10"/>
</g>
<defs>
<clipPath id="clip0_692_82">
<rect width="37.2" height="53.4" fill="white" transform="translate(0.399902)"/>
</clipPath>
</defs>
</svg>
