<svg width="48" height="48" viewBox="0 0 48 48" fill="none" xmlns="http://www.w3.org/2000/svg">
<g clip-path="url(#clip0_692_105)">
<path d="M22.8999 5.09998V39.6" stroke="#1B1A1A" stroke-miterlimit="10"/>
<path d="M21.7997 5.7C23.2356 5.7 24.3997 4.53594 24.3997 3.1C24.3997 1.66406 23.2356 0.5 21.7997 0.5C20.3638 0.5 19.1997 1.66406 19.1997 3.1C19.1997 4.53594 20.3638 5.7 21.7997 5.7Z" stroke="#1B1A1A" stroke-miterlimit="10"/>
<path d="M22.8998 46.8C24.888 46.8 26.4998 45.1882 26.4998 43.2C26.4998 41.2118 24.888 39.6 22.8998 39.6C20.9116 39.6 19.2998 41.2118 19.2998 43.2C19.2998 45.1882 20.9116 46.8 22.8998 46.8Z" stroke="#1B1A1A" stroke-miterlimit="10"/>
<path d="M5.3999 22.3H39.7999" stroke="#1B1A1A" stroke-miterlimit="10"/>
<path d="M3.3999 24.3C4.78061 24.3 5.8999 23.1807 5.8999 21.8C5.8999 20.4193 4.78061 19.3 3.3999 19.3C2.01919 19.3 0.899902 20.4193 0.899902 21.8C0.899902 23.1807 2.01919 24.3 3.3999 24.3Z" stroke="#1B1A1A" stroke-miterlimit="10"/>
<path d="M43.4999 25.9C45.4881 25.9 47.0999 24.2882 47.0999 22.3C47.0999 20.3118 45.4881 18.7 43.4999 18.7C41.5117 18.7 39.8999 20.3118 39.8999 22.3C39.8999 24.2882 41.5117 25.9 43.4999 25.9Z" stroke="#1B1A1A" stroke-miterlimit="10"/>
<path d="M10.5 10L34.9 34.3" stroke="#1B1A1A" stroke-miterlimit="10"/>
<path d="M9.3998 11.1C10.5596 11.1 11.4998 10.1598 11.4998 9.00002C11.4998 7.84023 10.5596 6.90002 9.3998 6.90002C8.24001 6.90002 7.2998 7.84023 7.2998 9.00002C7.2998 10.1598 8.24001 11.1 9.3998 11.1Z" stroke="#1B1A1A" stroke-miterlimit="10"/>
<path d="M38.0999 41.7C40.4195 41.7 42.2999 39.8196 42.2999 37.5C42.2999 35.1804 40.4195 33.3 38.0999 33.3C35.7803 33.3 33.8999 35.1804 33.8999 37.5C33.8999 39.8196 35.7803 41.7 38.0999 41.7Z" stroke="#1B1A1A" stroke-miterlimit="10"/>
<path d="M10.5 34.5L34.9 10.2" stroke="#1B1A1A" stroke-miterlimit="10"/>
<path d="M8.79971 39.3C10.5118 39.3 11.8997 37.9121 11.8997 36.2C11.8997 34.4879 10.5118 33.1 8.79971 33.1C7.08762 33.1 5.69971 34.4879 5.69971 36.2C5.69971 37.9121 7.08762 39.3 8.79971 39.3Z" stroke="#1B1A1A" stroke-miterlimit="10"/>
<path d="M36.8998 11.2C38.6119 11.2 39.9998 9.81208 39.9998 8.1C39.9998 6.38792 38.6119 5 36.8998 5C35.1877 5 33.7998 6.38792 33.7998 8.1C33.7998 9.81208 35.1877 11.2 36.8998 11.2Z" stroke="#1B1A1A" stroke-miterlimit="10"/>
</g>
<defs>
<clipPath id="clip0_692_105">
<rect width="47.2" height="47.3" fill="white" transform="translate(0.399902)"/>
</clipPath>
</defs>
</svg>
