<svg width="68" height="63" viewBox="0 0 68 63" fill="none" xmlns="http://www.w3.org/2000/svg">
<g clip-path="url(#clip0_692_92)">
<path d="M42.8886 50.3355C53.5297 45.4515 58.1968 32.8659 53.3128 22.2247C48.4288 11.5836 35.8432 6.91648 25.2021 11.8005C14.5609 16.6845 9.89383 29.2701 14.7778 39.9112C19.6618 50.5524 32.2474 55.2195 42.8886 50.3355Z" stroke="#1B1A1A" stroke-miterlimit="10"/>
<path d="M39.1342 42.1559C45.2578 39.3453 47.9436 32.1026 45.133 25.979C42.3224 19.8553 35.0797 17.1695 28.9561 19.9801C22.8324 22.7907 20.1466 30.0334 22.9572 36.1571C25.7678 42.2807 33.0105 44.9665 39.1342 42.1559Z" stroke="#1B1A1A" stroke-miterlimit="10"/>
<path d="M17.789 32.5757C18.5921 32.2071 18.9443 31.2573 18.5757 30.4542C18.2071 29.6511 17.2573 29.2988 16.4542 29.6674C15.651 30.036 15.2988 30.9859 15.6674 31.789C16.036 32.5921 16.9859 32.9443 17.789 32.5757Z" stroke="#1B1A1A" stroke-miterlimit="10"/>
<path d="M25.789 46.5757C26.5921 46.2071 26.9443 45.2573 26.5757 44.4542C26.2071 43.6511 25.2573 43.2988 24.4542 43.6674C23.651 44.036 23.2988 44.9859 23.6674 45.789C24.036 46.5921 24.9859 46.9443 25.789 46.5757Z" stroke="#1B1A1A" stroke-miterlimit="10"/>
<path d="M43.789 46.5757C44.5921 46.2071 44.9443 45.2573 44.5757 44.4542C44.2071 43.6511 43.2573 43.2988 42.4541 43.6674C41.651 44.036 41.2988 44.9859 41.6674 45.789C42.036 46.5921 42.9859 46.9443 43.789 46.5757Z" stroke="#1B1A1A" stroke-miterlimit="10"/>
<path d="M51.789 32.5757C52.5921 32.2071 52.9443 31.2573 52.5757 30.4542C52.2071 29.6511 51.2573 29.2988 50.4542 29.6674C49.651 30.036 49.2988 30.9859 49.6674 31.789C50.036 32.5921 50.9859 32.9443 51.789 32.5757Z" stroke="#1B1A1A" stroke-miterlimit="10"/>
<path d="M25.789 18.5757C26.5921 18.2071 26.9443 17.2573 26.5757 16.4542C26.2071 15.6511 25.2573 15.2988 24.4542 15.6674C23.651 16.036 23.2988 16.9859 23.6674 17.789C24.036 18.5921 24.9859 18.9443 25.789 18.5757Z" stroke="#1B1A1A" stroke-miterlimit="10"/>
<path d="M43.789 18.5757C44.5921 18.2071 44.9443 17.2573 44.5757 16.4542C44.2071 15.6511 43.2573 15.2988 42.4542 15.6674C41.651 16.036 41.2988 16.9859 41.6674 17.789C42.036 18.5921 42.9859 18.9443 43.789 18.5757Z" stroke="#1B1A1A" stroke-miterlimit="10"/>
</g>
<defs>
<clipPath id="clip0_692_92">
<rect width="54.5" height="43.4" fill="white" transform="translate(0.182129 22.7338) rotate(-24.6538)"/>
</clipPath>
</defs>
</svg>
