<svg width="44" height="58" viewBox="0 0 44 58" fill="none" xmlns="http://www.w3.org/2000/svg">
<path d="M43.3002 56.6H0.700195V28.1H10.4002H21.0002V43.3H43.3002V56.6Z" stroke="#1B1A1A" stroke-miterlimit="10"/>
<path d="M40.2001 17.4H35.1001V43.4H40.2001V17.4Z" stroke="#1B1A1A" stroke-miterlimit="10"/>
<path d="M31.2001 17.4H26.1001V43.4H31.2001V17.4Z" stroke="#1B1A1A" stroke-miterlimit="10"/>
<path d="M12 6.2C12 8.8 14.1 10.9 16.7 10.9C16.7 10.9 23.4 10.8 25.1 10.9C26.8 11 27.7 12.9 27.7 12.9V11.1C27.7 10.2 27.4 8.1 25.1 7.6L17.5 5.1C17.5 5.1 13.2 3.4 12 2V6.2V6.2Z" stroke="#1B1A1A" stroke-miterlimit="10"/>
<path d="M5.1001 33.2H21.0001" stroke="#1B1A1A" stroke-miterlimit="10"/>
<path d="M5.1001 36.7H21.0001" stroke="#1B1A1A" stroke-miterlimit="10"/>
<path d="M5.1001 40.2H21.0001" stroke="#1B1A1A" stroke-miterlimit="10"/>
</svg>
