<svg width="45" height="49" viewBox="0 0 45 49" fill="none" xmlns="http://www.w3.org/2000/svg">
<g clip-path="url(#clip0_692_156)">
<path d="M44.2 32.4L22.4 48.1L0.6 32.5L0.5 1.3L22.3 0.5L44.1 1.2L44.2 32.4Z" stroke="#3293FC" stroke-miterlimit="10"/>
<path d="M22.5002 28.3C22.0002 28.3 21.5002 28.1 21.2002 27.8L12.9002 20C12.1002 19.3 12.1002 18 12.8002 17.3C13.5002 16.5 14.8002 16.5 15.5002 17.2L22.2002 23.5L30.9002 11.3C31.5002 10.4 32.7002 10.2 33.6002 10.8C34.5002 11.4 34.7002 12.6 34.1002 13.5L24.1002 27.6C23.8002 28.1 23.3002 28.4 22.7002 28.4C22.6002 28.3 22.6002 28.3 22.5002 28.3Z" stroke="#3293FC" stroke-miterlimit="10"/>
<path d="M22.4999 34.1C22.3999 48.2 22.3999 48.2 22.3999 48.2" stroke="#3293FC" stroke-miterlimit="10"/>
<path d="M22.3002 0.5L22.2002 10.4" stroke="#3293FC" stroke-miterlimit="10"/>
</g>
<defs>
<clipPath id="clip0_692_156">
<rect width="44.7" height="48.7" fill="white"/>
</clipPath>
</defs>
</svg>
