<svg width="48" height="48" viewBox="0 0 48 48" fill="none" xmlns="http://www.w3.org/2000/svg">
<g clip-path="url(#clip0_692_146)">
<path d="M31.8886 44.3355C42.5297 39.4515 47.1968 26.8659 42.3128 16.2247C37.4288 5.58356 24.8432 0.916467 14.2021 5.80046C3.56092 10.6845 -1.10617 23.2701 3.77783 33.9112C8.66183 44.5524 21.2474 49.2195 31.8886 44.3355Z" stroke="#3293FC" stroke-miterlimit="10"/>
<path d="M28.1342 36.1559C34.2578 33.3453 36.9436 26.1026 34.133 19.9789C31.3224 13.8552 24.0797 11.1695 17.9561 13.9801C11.8324 16.7907 9.14661 24.0333 11.9572 30.157C14.7678 36.2807 22.0105 38.9665 28.1342 36.1559Z" stroke="#3293FC" stroke-miterlimit="10"/>
<path d="M6.78898 26.5757C7.59209 26.2071 7.94432 25.2572 7.57572 24.4541C7.20712 23.651 6.25726 23.2988 5.45415 23.6674C4.65105 24.036 4.29881 24.9859 4.66742 25.789C5.03602 26.5921 5.98588 26.9443 6.78898 26.5757Z" stroke="#3293FC" stroke-miterlimit="10"/>
<path d="M14.789 40.5757C15.5921 40.2071 15.9443 39.2572 15.5757 38.4541C15.2071 37.651 14.2573 37.2988 13.4542 37.6674C12.651 38.036 12.2988 38.9859 12.6674 39.789C13.036 40.5921 13.9859 40.9443 14.789 40.5757Z" stroke="#3293FC" stroke-miterlimit="10"/>
<path d="M32.789 40.5757C33.5921 40.2071 33.9443 39.2572 33.5757 38.4541C33.2071 37.651 32.2573 37.2988 31.4541 37.6674C30.651 38.036 30.2988 38.9859 30.6674 39.789C31.036 40.5921 31.9859 40.9443 32.789 40.5757Z" stroke="#3293FC" stroke-miterlimit="10"/>
<path d="M40.789 26.5757C41.5921 26.2071 41.9443 25.2572 41.5757 24.4541C41.2071 23.651 40.2573 23.2988 39.4542 23.6674C38.651 24.036 38.2988 24.9859 38.6674 25.789C39.036 26.5921 39.9859 26.9443 40.789 26.5757Z" stroke="#3293FC" stroke-miterlimit="10"/>
<path d="M14.789 12.5757C15.5921 12.2071 15.9443 11.2572 15.5757 10.4541C15.2071 9.65104 14.2573 9.2988 13.4542 9.66741C12.651 10.036 12.2988 10.9859 12.6674 11.789C13.036 12.5921 13.9859 12.9443 14.789 12.5757Z" stroke="#3293FC" stroke-miterlimit="10"/>
<path d="M32.789 12.5757C33.5921 12.2071 33.9443 11.2572 33.5757 10.4541C33.2071 9.65104 32.2573 9.2988 31.4542 9.66741C30.651 10.036 30.2988 10.9859 30.6674 11.789C31.036 12.5921 31.9859 12.9443 32.789 12.5757Z" stroke="#3293FC" stroke-miterlimit="10"/>
</g>
<defs>
<clipPath id="clip0_692_146">
<rect width="54.5" height="43.4" fill="white" transform="translate(-10.8179 16.7338) rotate(-24.6538)"/>
</clipPath>
</defs>
</svg>
