<svg width="67" height="78" viewBox="0 0 67 78" fill="none" xmlns="http://www.w3.org/2000/svg">
<g clip-path="url(#clip0_929_3452)">
<path d="M35.3034 67.9126V77.563C35.3034 77.7424 35.4469 77.886 35.6261 77.85C37.8842 77.6707 40.0705 77.2761 42.1492 76.5945C42.2568 76.5585 42.3643 76.4509 42.3643 76.3076V52.6295C42.3643 52.4859 42.2568 52.3426 42.1136 52.3426C39.9989 52.0913 37.8123 51.948 35.6261 51.8763C35.4469 51.8763 35.3034 52.0196 35.3034 52.1633V60.7015H31.5043V52.1633C31.5043 51.9837 31.3608 51.8403 31.1816 51.8763C28.9594 51.948 26.8089 52.0913 24.6943 52.3066C24.5509 52.3066 24.4434 52.4502 24.4434 52.5936V76.3433C24.4434 76.4869 24.515 76.5945 24.6584 76.6302C26.7373 77.2401 28.9238 77.6707 31.1816 77.8143C31.3608 77.8143 31.5043 77.6707 31.5043 77.5274V67.8407H35.3034V67.9126Z" fill="#2B5E4A"/>
<path d="M22.4376 52.6653C19.7495 53.0599 17.133 53.5621 14.6958 54.244C14.6241 54.2797 14.5524 54.3157 14.5166 54.4233L11.47 60.7373H10.9682V55.7864C10.9682 55.5714 10.7531 55.4278 10.5739 55.4995C8.78181 56.1453 7.09724 56.8269 5.52018 57.6161C5.1976 57.7597 4.91088 57.9391 4.62413 58.0827C4.48076 58.1543 4.4091 58.3337 4.51662 58.4773C6.84635 62.8899 9.67789 66.7286 12.9754 69.8141C13.1187 69.9574 13.3696 69.9214 13.4413 69.7421L15.2692 66.047H15.7352V72.0024C15.7352 72.11 15.771 72.1817 15.8427 72.2534C17.8499 73.7601 20.0362 74.9799 22.366 75.9127C22.5452 75.9844 22.7602 75.8411 22.7602 75.6258V52.9522C22.7961 52.7729 22.6169 52.6296 22.4376 52.6653Z" fill="#2B5E4A"/>
<path d="M59.4972 57.2932C58.7803 56.8269 56.343 55.4638 54.8376 54.9255C54.6944 54.8896 54.5509 54.9255 54.4793 55.0689C53.9416 56.181 51.7194 60.7373 51.7194 60.7373H51.2176L51.182 54.208C51.182 54.0644 51.0744 53.9567 50.9669 53.9211C48.8879 53.4188 46.7016 52.9882 44.4794 52.6653C44.3002 52.6296 44.1211 52.7729 44.1211 52.9522V75.4822C44.1211 75.6974 44.3359 75.8411 44.551 75.7694C46.8807 74.8006 49.0673 73.5451 51.0744 72.0381C51.146 71.9664 51.182 71.8947 51.182 71.7871V67.9124C52.4722 67.8048 53.8341 68.307 54.6225 69.0605C56.1638 67.5178 57.7767 65.6881 59.1029 63.8227C59.2105 63.7151 59.1745 63.5358 59.067 63.4281C58.6011 63.0335 58.0278 62.6029 57.4541 62.28L59.6406 57.6881C59.7122 57.5445 59.6407 57.4008 59.4972 57.2932Z" fill="#2B5E4A"/>
<path d="M45.0537 2.72655C45.2328 2.58305 45.1969 2.29604 44.9821 2.18842C42.4729 1.11214 39.7849 0.358757 37.0249 0C34.1577 9.36354 34.1218 20.485 33.7275 48.7909C33.9786 48.7909 34.2653 48.7909 34.516 48.7909C35.448 26.9426 35.7347 9.14828 45.0537 2.72655Z" fill="#1D2126"/>
<path d="M39.9998 27.8035C43.4407 17.3995 48.9603 12.2693 57.1682 11.9106C57.419 11.9106 57.5265 11.5877 57.383 11.4083C55.3759 9.0405 53.118 6.99558 50.6807 5.27356C42.7954 8.00011 39.3186 14.8165 37.3474 27.2653C36.4514 33.0771 35.7705 40.3239 35.376 48.8265C35.627 48.8265 35.9137 48.8265 36.1647 48.8625C36.5946 42.046 38.2075 33.2565 39.9998 27.8035Z" fill="#1D2126"/>
<path d="M41.7194 35.9831C48.0634 23.642 59.2104 21.9917 65.3753 28.0905C65.5901 28.3058 65.9487 28.0905 65.8771 27.8036C64.8735 23.8572 63.3679 20.162 61.3967 16.8256C47.239 12.9152 38.6371 29.1309 36.9883 48.9342C37.239 48.9342 37.526 48.9702 37.7768 48.9702C38.5652 43.5171 39.3537 40.5393 41.7194 35.9831Z" fill="#1D2126"/>
<path d="M66.5232 34.5482C61.1828 28.1981 51.2188 26.5837 44.373 35.3014C41.8997 38.4226 39.4984 43.0148 38.5664 49.0061C38.8531 49.0061 39.1041 49.0418 39.3908 49.0418C40.8246 43.0508 44.5521 39.8936 48.0646 38.8532C56.165 36.3779 64.2654 42.2972 64.9819 49.1854C65.0179 49.4724 65.4837 49.4364 65.5556 49.1494C66.3081 45.8847 66.7383 42.4409 66.7383 38.8532C66.7024 37.3824 66.6308 35.9473 66.5232 34.5482Z" fill="#1D2126"/>
<path d="M29.6775 0.0362549C26.9177 0.395012 24.2295 1.11252 21.7206 2.22467C21.5055 2.3323 21.4697 2.6193 21.6489 2.7628C30.9678 9.14866 31.2547 26.943 32.1508 48.8271C32.4015 48.8271 32.6882 48.8271 32.9392 48.8271C32.545 20.5213 32.545 9.39978 29.6775 0.0362549Z" fill="#1D2126"/>
<path d="M29.3547 27.301C27.4194 14.8521 23.9068 8.03575 16.0216 5.3092C13.5843 7.03122 11.3263 9.07614 9.3191 11.4439C9.17572 11.6233 9.28327 11.9103 9.53416 11.9462C17.742 12.2691 23.2975 17.3993 26.7383 27.8032C28.5305 33.2205 30.1075 42.046 30.5734 48.8622C30.8244 48.8622 31.1111 48.8262 31.3618 48.8262C30.9319 40.3596 30.2867 33.1128 29.3547 27.301Z" fill="#1D2126"/>
<path d="M5.34017 16.8257C3.36884 20.1262 1.86349 23.8214 0.85991 27.8036C0.788225 28.0906 1.14665 28.3058 1.3617 28.0906C7.56238 22.0276 18.6734 23.6779 25.0175 35.9834C27.3472 40.5036 28.1716 43.4812 28.9601 48.9343C29.2111 48.9343 29.4978 48.8986 29.7486 48.8986C28.0999 29.1309 19.4978 12.9152 5.34017 16.8257Z" fill="#1D2126"/>
<path d="M22.3655 35.3014C15.5196 26.5837 5.51968 28.1981 0.215052 34.5482C0.0716843 35.9473 0 37.3824 0 38.8532C0 42.4049 0.394262 45.849 1.18279 49.1494C1.25447 49.4364 1.72042 49.4724 1.75626 49.1854C2.724 42.4049 9.99994 36.7005 18.6737 38.8532C22.2221 39.7143 25.878 43.0508 27.3475 49.0418C27.6343 49.0061 27.8851 49.0061 28.1719 49.0061C27.24 43.0148 24.8386 38.4226 22.3655 35.3014Z" fill="#1D2126"/>
</g>
<defs>
<clipPath id="clip0_929_3452">
<rect width="67" height="78" fill="white"/>
</clipPath>
</defs>
</svg>
