<svg width="184" height="110" viewBox="0 0 184 110" fill="none" xmlns="http://www.w3.org/2000/svg">
<path fill-rule="evenodd" clip-rule="evenodd" d="M68.1729 35.9374C68.1729 22.5672 78.9869 11.7292 92.3229 11.7292C105.679 11.7292 116.473 22.5874 116.473 35.9374C116.473 49.3278 105.679 60.1455 92.3229 60.1455C78.9869 60.1455 68.1729 49.3278 68.1729 35.9374ZM91.072 20.0552C91.072 21.0681 90.4869 21.9189 89.6597 22.3241C87.5816 22.9521 86.0685 24.8563 86.0685 27.1455C86.0685 29.3333 87.4404 31.197 89.3772 31.8858C90.3457 32.2302 91.0518 33.162 91.0518 34.2762V37.5985C91.0518 38.7127 90.3457 39.6243 89.3772 40.0092C87.4404 40.6777 86.0685 42.5414 86.0685 44.7293C86.0685 47.0184 87.5614 48.9226 89.6597 49.5506C90.4869 49.9558 91.072 50.8066 91.072 51.8195V57.2486C79.9351 56.6206 71.0781 47.3223 71.0781 35.9576C71.0781 24.6132 79.915 15.3149 91.072 14.6666V20.0552ZM86.6132 36.0386C83.7281 34.5801 80.8229 37.4972 77.9378 37.4972C75.9606 37.4972 74.6492 36.8287 73.5799 35.9374C73.5799 45.0534 80.0158 52.6501 88.5904 54.3922V51.8397C85.665 50.8066 83.5869 48.0313 83.5869 44.7293C83.5869 41.4475 85.665 38.6519 88.5904 37.6188V34.256C85.665 33.2228 83.5869 30.4475 83.5869 27.1455C83.5869 23.8839 85.665 21.0884 88.5904 20.035V17.4622C80.3185 19.1436 74.0439 26.2744 73.6202 34.965C76.0211 35.1473 78.422 33.1013 80.843 33.1013C83.7281 33.1215 85.1807 34.5801 86.6132 36.0386ZM93.5737 51.8195C93.5737 50.8066 94.1588 49.9558 95.0062 49.5506C97.0641 48.9226 98.5974 47.0184 98.5974 44.7293C98.5974 42.5414 97.1851 40.6777 95.2685 40.0092C94.3 39.6243 93.5939 38.7127 93.5939 37.5985V34.2762C93.5939 33.162 94.3 32.2504 95.2685 31.8858C97.2053 31.1768 98.5974 29.3333 98.5974 27.1455C98.5974 24.8563 97.0641 22.9521 95.0062 22.3241C94.1588 21.9189 93.5737 21.0681 93.5737 20.0552V14.6261C104.711 15.2946 113.588 24.5727 113.588 35.9374C113.588 47.3223 104.731 56.6003 93.5737 57.2283V51.8195ZM98.0325 35.0257C100.938 36.4843 103.823 33.5672 106.728 33.5672C108.685 33.5672 109.976 34.2357 111.066 35.127C110.683 26.3757 104.388 19.1841 96.0957 17.4622V20.0147C99.0009 21.0681 101.099 23.8637 101.099 27.1252C101.099 30.407 99.0009 33.2025 96.0957 34.2357V37.5985C99.0009 38.6316 101.099 41.407 101.099 44.709C101.099 47.9908 99.0009 50.7863 96.0957 51.8195V54.372C104.61 52.6298 111.025 45.0939 111.106 36.0589C108.685 35.8766 106.264 37.9226 103.843 37.9226C100.938 37.9429 99.4851 36.4843 98.0325 35.0257Z" fill="#243B8F"/>
<path fill-rule="evenodd" clip-rule="evenodd" d="M10.9957 83.1786H8.41323C8.17113 83.1786 7.88867 83.1583 7.88867 82.6316V65.3922C7.88867 64.8655 8.17113 64.8452 8.41323 64.8452H10.9957C11.2378 64.8452 11.5203 64.8655 11.5203 65.3922V72.1988H12.4281C13.6992 72.1988 14.4053 71.8139 14.708 70.1933L15.1115 67.9244C15.2931 66.8102 15.5352 65.7568 16.7457 65.0681C17.4922 64.5819 18.4808 64.3996 19.0053 64.3996C19.2273 64.3996 19.429 64.4401 19.5097 64.7237L20.0948 66.6077C20.1755 66.8913 20.0746 67.1344 19.8124 67.1951L19.1264 67.3369C18.5211 67.5193 18.1781 67.7218 17.9764 69.0386L17.6536 70.9428C17.4518 72.0165 17.008 73.0294 15.5755 73.5358C17.5124 74.2449 17.8553 75.9465 17.9764 76.453L18.4001 78.7218C18.622 79.9778 18.7431 80.3222 19.5501 80.5045L20.2562 80.6868C20.5992 80.7679 20.579 81.0312 20.5387 81.2135L19.8325 83.2393C19.7518 83.4419 19.7115 83.6445 19.2474 83.6445C18.9448 83.6445 17.3913 83.5635 16.4632 82.7734C15.636 82.0441 15.515 80.9705 15.3334 80.1196L14.708 76.8986C14.5264 76.0883 14.3246 75.1159 12.6703 75.1159H11.5203V82.6519C11.5203 83.1583 11.2378 83.1786 10.9957 83.1786ZM29.3957 69.7274L31.4536 70.011C31.736 70.0312 32.0387 70.0515 32.0387 70.3148C32.0387 70.4161 32.0185 70.4972 31.9378 70.801L29.315 80.4235C28.3062 84.1915 27.9027 85.6298 27.4588 86.5616C26.4299 88.5874 24.7553 88.871 23.6053 88.871C22.6974 88.871 21.729 88.6887 20.6799 88.2228C19.9132 87.8784 19.9334 87.6758 20.0545 87.453L20.9018 85.5892C20.9825 85.4474 21.0834 85.4069 21.1439 85.4069C21.265 85.4069 21.3659 85.4474 21.5474 85.5487C21.9711 85.7716 22.6773 86.0754 23.4238 86.0754C24.8562 86.0754 25.2194 85.0423 25.522 84.0902L25.8045 83.2191H24.6746C24.4729 83.2191 24.3317 83.2596 24.1904 82.8747L20.115 70.7605C20.0343 70.5579 19.9939 70.4566 19.9939 70.3148C19.9939 70.0717 20.2764 70.0312 20.579 70.011L22.7781 69.7881C23.3229 69.7476 23.4238 69.6666 23.5852 70.2946L25.3404 76.7771C25.5825 77.7495 26.1676 80.4235 26.3492 81.3959C26.9545 77.9318 27.1966 77.2025 27.2773 76.7771L28.7097 70.3148C28.7501 69.9705 28.9115 69.6666 29.3957 69.7274ZM51.7501 80.9502C53.8281 80.9502 53.929 78.5193 53.929 76.8379C53.929 75.1767 53.8281 72.7863 51.7501 72.7863C49.672 72.7863 49.5711 75.1767 49.5711 76.8379C49.5711 78.5193 49.672 80.9502 51.7501 80.9502ZM48.3001 72.3609C49.1474 70.9023 50.4992 70.1325 52.2746 70.1325C55.422 70.1325 57.5404 72.6445 57.5404 76.8379C57.5404 81.5174 54.736 83.6445 51.7501 83.6445C50.5194 83.6445 48.0781 83.3001 46.7062 80.4843C45.8992 78.8029 45.8387 76.7568 45.8387 75.0349C45.8387 73.0496 45.9194 71.2467 46.4641 69.7274C47.0896 68.0257 48.4615 66.243 50.5194 65.2909L55.5229 63.022C55.7045 62.941 56.1685 62.6979 56.3501 63.1233L57.2781 65.1086C57.3185 65.2099 57.4194 65.5543 56.9352 65.7568L51.3667 68.1473C50.6606 68.4714 48.5422 69.4843 48.3203 72.0975L48.3001 72.3609ZM71.7036 82.8139V70.5377C71.7036 70.2946 71.6834 70.1528 72.208 70.0515L74.6694 69.545C74.8913 69.464 75.0931 69.4438 75.0931 69.8489V82.8139C75.0931 83.0975 75.0729 83.1988 74.7097 83.1988H72.0869C71.7843 83.1786 71.7036 83.1583 71.7036 82.8139ZM62.8667 77.2228V80.4843H64.2185C65.1869 80.4843 66.4781 80.4032 66.4781 78.8434C66.4781 77.243 65.0659 77.2025 64.501 77.2025H62.8667V77.2228ZM63.9966 83.1786H59.8606C59.558 83.1786 59.4773 83.1583 59.4773 82.7937V70.5174C59.4773 70.1325 59.4571 70.173 60.4053 69.9705L62.4431 69.545C62.665 69.464 62.8667 69.4438 62.8667 69.8489V74.569H64.3597C65.8527 74.569 67.3457 74.6095 68.536 75.6224C69.5852 76.4935 69.8474 77.6279 69.8474 78.7624C69.8474 79.7145 69.7062 81.1325 68.4352 82.1049C67.2045 83.1178 65.429 83.1786 63.9966 83.1786H63.815H63.9966ZM87.622 80.5045H90.6685V70.5377C90.6685 70.2946 90.6483 70.1528 91.1729 70.0515L93.6343 69.545C93.8562 69.464 94.058 69.4438 94.058 69.8489V82.8139C94.058 83.0975 94.0378 83.1988 93.6746 83.1988H78.1395C77.7966 83.1988 77.7562 83.0975 77.7562 82.8139V70.5377C77.7562 70.2338 77.7159 70.1528 78.6036 69.9907L80.7018 69.5653C80.9238 69.4843 81.1255 69.464 81.1255 69.8692V80.5248H84.172V70.5579C84.172 70.3148 84.1518 70.173 84.6966 70.0717L87.158 69.5653C87.3597 69.4843 87.5817 69.464 87.5817 69.8692V80.5045H87.622ZM99.3238 74.9944H103.54C103.561 74.2651 103.46 73.8397 103.419 73.6169C103.218 72.604 102.673 72.0165 101.624 72.0165C100.09 71.9962 99.5053 73.1509 99.3238 74.9944ZM106.526 77.4861H99.3439C99.3439 79.4511 100.07 80.8287 102.29 80.8287C103.52 80.8287 104.448 80.4438 104.953 80.2007C105.276 80.0589 105.497 79.9576 105.679 79.9576C105.82 79.9576 105.901 80.0386 105.961 80.1601L106.647 81.7403C106.688 81.8415 106.728 81.8821 106.728 81.9834C106.728 82.2264 106.526 82.429 106.304 82.5708C105.336 83.2393 103.581 83.6445 102.068 83.6445C96.358 83.6445 95.9746 78.7624 95.9746 76.9189C95.9746 72.7053 98.0729 69.5045 101.805 69.5045C105.195 69.5045 106.365 71.7329 106.869 73.8194C107.111 74.9539 107.152 75.9263 107.152 76.6353C107.132 77.4658 106.869 77.4861 106.526 77.4861ZM112.377 77.5874V80.7071H113.85C114.819 80.7071 116.11 80.5248 116.11 79.127C116.11 77.6279 114.637 77.5874 114.153 77.5874H112.377ZM112.377 72.4622V75.1767H113.81C115.504 75.1767 115.686 74.2043 115.686 73.7384C115.686 72.5229 114.556 72.4622 113.709 72.4622H112.377ZM113.628 83.1786H109.371C109.068 83.1786 108.988 83.1583 108.988 82.7937V70.3148C108.988 70.0312 109.008 69.9705 109.371 69.9705H113.447C115 69.9705 116.735 69.9705 117.764 70.639C118.39 71.0644 119.096 71.8949 119.096 73.1914C119.096 74.569 118.329 75.7237 116.937 76.1491C118.39 76.4327 119.519 77.5469 119.519 79.4106C119.519 80.3425 119.217 81.5174 118.067 82.2467C116.796 83.1583 115.242 83.1786 113.628 83.1786H113.447H113.628ZM129.183 75.8655L128.114 71.267C127.912 70.4566 127.731 69.5653 127.509 67.7016C127.408 68.4309 127.327 69.4032 126.863 71.267L125.693 75.8655H129.183ZM126.218 64.8452H129.264C129.547 64.8452 129.587 65.0275 129.668 65.2706L134.893 82.5303C134.913 82.6316 134.974 82.7126 134.974 82.8544C134.974 83.1583 134.691 83.1786 134.55 83.1786H131.604C131.282 83.1786 131.201 83.1583 131.06 82.5911L129.89 78.2762H125.29L124.18 82.5911C124.079 83.0165 124.059 83.1786 123.696 83.1786H120.851C120.306 83.1786 120.407 82.7937 120.447 82.6316L125.754 65.2504C125.834 65.0275 125.854 64.8452 126.218 64.8452ZM136.527 72.7255L135.66 71.3682C135.619 71.2872 135.579 71.2264 135.579 71.1252C135.579 70.801 136.063 70.4972 136.265 70.3959C136.81 70.0717 138.04 69.4843 140.038 69.4843C140.966 69.4843 142.338 69.6058 143.447 70.5984C144.033 71.1252 144.618 71.9557 144.618 73.1914C144.618 74.5892 143.972 75.7237 142.741 76.1896C143.911 76.5948 144.92 77.5671 144.92 79.2891C144.92 82.0846 142.701 83.6647 139.654 83.6647C138.484 83.6647 137.052 83.3609 136.104 82.895C135.68 82.6721 135.196 82.4695 135.196 82.0644C135.196 81.9631 135.236 81.8415 135.276 81.7605L135.882 80.383C135.922 80.2412 136.003 80.1601 136.164 80.1601C136.366 80.1601 136.568 80.3019 136.911 80.4843C137.778 80.9705 138.444 81.1933 139.412 81.1933C141.208 81.1933 141.511 79.9576 141.511 79.2688C141.511 77.6684 139.836 77.6684 139.009 77.6684H138.424C138.121 77.6684 138.04 77.5874 138.04 77.2835V75.5414C138.04 75.2375 138.121 75.1565 138.424 75.1565H139.029C139.957 75.1565 141.309 75.0552 141.309 73.5156C141.309 72.6445 140.663 72.0368 139.574 72.0368C138.525 72.0368 137.778 72.4622 137.496 72.6242C137.072 72.8673 136.911 72.9686 136.79 72.9686C136.648 72.9281 136.547 72.7863 136.527 72.7255ZM151.881 80.9502C153.939 80.9502 154.06 78.6408 154.06 76.5745C154.06 74.5487 153.919 72.1786 151.881 72.1786C149.843 72.1786 149.682 74.5487 149.682 76.5745C149.682 78.6205 149.803 80.9502 151.881 80.9502ZM157.671 76.5745C157.671 81.5984 154.806 83.6242 151.881 83.6242C148.955 83.6242 146.09 81.5984 146.09 76.5745C146.09 71.5303 148.955 69.4843 151.881 69.4843C154.806 69.4843 157.671 71.5303 157.671 76.5745ZM176.757 73.7384V82.8139C176.757 83.0975 176.737 83.1988 176.374 83.1988H173.751C173.448 83.1988 173.368 83.1786 173.368 82.8139V74.569C173.368 73.1915 173.267 72.3001 172.137 72.3001C171.31 72.3001 170.483 72.8876 169.918 73.4143V82.8139C169.918 83.0975 169.897 83.1988 169.534 83.1988H166.871C166.589 83.1988 166.488 83.1786 166.488 82.8139V74.569C166.488 73.4143 166.488 72.3001 165.237 72.3001C164.954 72.3001 164.168 72.3406 163.038 73.4143V82.8139C163.038 83.0975 163.018 83.1988 162.654 83.1988H160.032C159.729 83.1988 159.648 83.1786 159.648 82.8139V74.731C159.648 72.9889 159.547 72.1988 159.366 71.4898C159.245 70.9631 159.144 70.8618 159.144 70.6187C159.144 70.5174 159.164 70.3351 159.426 70.2743L161.464 69.6261C161.989 69.4235 162.15 69.4843 162.372 70.1123C162.493 70.3554 162.654 71.0239 162.715 71.3885L162.897 71.267C163.865 70.4364 165.116 69.5248 166.77 69.5248C168.082 69.5248 169.131 70.2338 169.534 71.3885L169.676 71.267C170.704 70.4161 171.854 69.5248 173.61 69.5248C176.697 69.4843 176.757 72.3609 176.757 73.7384ZM43.9825 82.8747L41.9448 83.5432C41.4404 83.685 41.3396 83.5837 41.2185 83.4217C40.9764 83.0368 40.7746 82.4088 40.6939 82.0441C39.786 82.8747 38.4343 83.6242 36.6185 83.6242C34.4194 83.6242 33.1685 82.0644 33.1685 79.8968V70.4972C33.1685 70.2541 33.1483 70.1123 33.6729 70.011L36.1343 69.5045C36.336 69.4235 36.558 69.4032 36.558 69.8084V78.5193C36.558 79.3498 36.5378 80.7881 38.3132 80.7881C39.0395 80.7881 39.8466 80.383 40.3913 79.9576V70.4972C40.3913 70.1123 40.351 70.1528 41.3597 69.9502L43.3369 69.5248C43.5588 69.4438 43.7808 69.4235 43.7808 69.8287V78.3977C43.7808 79.3296 43.7808 80.7881 44.1843 82.1454C44.265 82.3885 44.2852 82.4898 44.2852 82.5708C44.2852 82.7531 44.1036 82.8342 43.9825 82.8747ZM40.3308 64.3793L41.8641 64.6021C41.9852 64.6224 42.1062 64.7237 42.1062 65.0275C42.1062 65.453 41.965 66.0607 41.622 66.5874C40.9966 67.6003 39.786 68.2891 38.3132 68.2891C36.8202 68.2891 35.6299 67.58 35.0045 66.5874C34.6817 66.0607 34.5203 65.453 34.5203 65.0275C34.5203 64.7237 34.6413 64.6224 34.7624 64.6021L36.2957 64.3793C36.4369 64.359 36.6185 64.2983 36.7194 64.4198C36.8001 64.5008 36.8202 64.6629 36.9211 64.9465C37.1229 65.6961 37.5062 66.1012 38.2931 66.1012C39.1001 66.1012 39.4632 65.6961 39.665 64.9465C39.8062 64.5414 39.7659 64.3388 40.0887 64.3388C40.1694 64.3388 40.2702 64.3793 40.3308 64.3793Z" fill="#243B8F"/>
<path fill-rule="evenodd" clip-rule="evenodd" d="M73.0558 94.9889L72.7531 93.7127C72.7128 93.4899 72.6522 93.2062 72.5715 92.6998C72.5514 92.9024 72.5312 93.186 72.39 93.7127L72.0672 94.9889H73.0558ZM72.2286 91.9097H73.0759C73.1566 91.9097 73.1768 91.93 73.197 92.011L74.6698 96.8932C74.6698 96.9337 74.6698 96.9337 74.6698 96.9945C74.6698 97.0755 74.5891 97.0957 74.5689 97.0957H73.7215C73.6408 97.0957 73.6207 97.0755 73.5803 96.9134L73.2575 95.698H71.9461L71.6435 96.9134C71.6031 97.035 71.6031 97.0957 71.5022 97.0957H70.6952C70.554 97.0957 70.5742 96.9742 70.5943 96.9539L72.0672 92.0313C72.1075 91.93 72.1277 91.9097 72.2286 91.9097ZM76.3847 97.0755H75.6584C75.5777 97.0755 75.5171 97.0552 75.5171 96.9337V92.0515C75.5171 91.9097 75.5979 91.9097 75.6584 91.9097H76.3847C76.4654 91.9097 76.5259 91.9097 76.5259 92.0515V93.9558H76.768C77.111 93.9558 77.3128 93.8545 77.3935 93.4088L77.5145 92.7606C77.5549 92.4567 77.6356 92.1528 77.9584 91.9503C78.1803 91.8287 78.4628 91.7477 78.604 91.7477C78.6443 91.7477 78.725 91.7679 78.725 91.849L78.9066 92.3757C78.9268 92.4567 78.8865 92.5175 78.8259 92.558L78.6242 92.5985C78.4426 92.6188 78.3417 92.6998 78.3014 93.0847L78.2005 93.6114C78.1601 93.9153 78.0189 94.2191 77.6154 94.3407C78.1601 94.5433 78.261 95.0092 78.3014 95.1712L78.4224 95.7992C78.5031 96.1436 78.5233 96.2449 78.7452 96.3057L78.947 96.3462C79.0479 96.3665 79.0277 96.4475 79.0277 96.488L78.8259 97.0755C78.8058 97.1565 78.8057 97.197 78.6443 97.197C78.5636 97.197 78.14 97.1768 77.8777 96.9539C77.6557 96.7514 77.5952 96.4475 77.575 96.2044L77.3733 95.2928C77.3329 95.07 77.2724 94.7864 76.7882 94.7864H76.4856V96.9134C76.5461 97.0552 76.4654 97.0755 76.3847 97.0755ZM80.8435 96.2449H82.1549V92.0515C82.1549 91.9097 82.2557 91.9097 82.2961 91.9097H83.0224C83.1636 91.9097 83.1636 91.9908 83.1636 92.0515V96.2449H83.4663C83.547 96.2449 83.6075 96.2652 83.6075 96.3867V98.1289C83.6075 98.2099 83.6075 98.2707 83.4663 98.2707H82.8207C82.6996 98.2707 82.6794 98.1897 82.6794 98.1289V97.0755H79.9759C79.8347 97.0755 79.8347 96.9742 79.8347 96.9337V92.0515C79.8347 91.9097 79.9154 91.9097 79.9759 91.9097H80.7022C80.8233 91.9097 80.8435 91.9908 80.8435 92.0515V96.2449ZM87.2391 91.9097H87.9654C88.0865 91.9097 88.1066 91.9908 88.1066 92.0515V96.9337C88.1066 96.9742 88.0865 97.0755 87.9654 97.0755H87.2391C87.0979 97.0755 87.0979 96.9742 87.0979 96.9337V94.523C87.0979 94.3204 87.0979 93.9355 87.118 93.6924C86.8961 94.2191 86.775 94.4622 86.6742 94.7053L85.625 96.9337C85.6049 97.035 85.5847 97.0755 85.4838 97.0755H84.7373C84.5961 97.0755 84.5961 96.9742 84.5961 96.9337V92.0515C84.5961 91.9097 84.6768 91.9097 84.7373 91.9097H85.4636C85.5847 91.9097 85.6049 91.9908 85.6049 92.0515V94.2191C85.6049 94.5635 85.5847 94.4217 85.5645 95.2725C85.7057 94.9687 85.9882 94.3609 86.0891 94.1178L87.0373 92.0515C87.0777 91.9503 87.118 91.9097 87.2391 91.9097ZM91.0119 96.3665C91.7584 96.3665 91.8189 95.0902 91.8189 94.4825C91.8189 93.7532 91.7382 92.5782 91.0119 92.5782C90.2856 92.5782 90.2049 93.7532 90.2049 94.4825C90.225 95.0902 90.2452 96.3665 91.0119 96.3665ZM92.8882 94.4825C92.8882 95.0092 92.8479 97.197 91.0119 97.197C89.1557 97.197 89.1356 95.0092 89.1356 94.4825C89.1356 93.9355 89.1557 91.7477 91.0119 91.7477C92.8479 91.7477 92.8882 93.9558 92.8882 94.4825ZM93.9172 96.9134V92.0313C93.9172 91.8895 93.9979 91.8895 94.0584 91.8895H94.7847C94.8654 91.8895 94.9259 91.8895 94.9259 92.0313V93.9355H96.3382V92.0313C96.3382 91.8895 96.4189 91.8895 96.4794 91.8895H97.2057C97.347 91.8895 97.347 91.9705 97.347 92.0313V96.9134C97.347 96.9945 97.347 97.0552 97.2057 97.0552H96.4794C96.3987 97.0552 96.3382 97.035 96.3382 96.9134V94.7864H94.9259V96.9134C94.9259 97.035 94.8452 97.0552 94.7847 97.0552H94.0584C93.9979 97.0755 93.9172 97.0552 93.9172 96.9134ZM99.768 94.7661V96.2449H101.322C101.402 96.2449 101.463 96.2652 101.463 96.3867V96.9134C101.463 97.035 101.382 97.0552 101.322 97.0552H98.9005C98.7593 97.0552 98.7593 96.9539 98.7593 96.9134V92.0313C98.7593 91.8895 98.84 91.8895 98.9005 91.8895H101.463C101.483 91.8895 101.503 91.8895 101.543 91.9097C101.564 91.93 101.564 91.9908 101.564 92.011L101.422 92.5985C101.402 92.6188 101.382 92.6998 101.281 92.6998H99.8084V93.9558H101.059C101.2 93.9558 101.2 94.0368 101.2 94.0976V94.604C101.2 94.7458 101.12 94.7458 101.059 94.7458H99.768V94.7661ZM103.5 94.9889V96.9134C103.5 96.9539 103.5 97.0552 103.359 97.0552H102.633C102.512 97.0552 102.492 96.9539 102.492 96.9134V92.0313C102.492 91.8895 102.593 91.8895 102.633 91.8895H103.884C104.207 91.8895 104.691 91.8895 105.034 92.0921C105.316 92.2339 105.639 92.5985 105.639 93.3278C105.639 94.3407 104.993 94.9889 103.904 94.9889H103.5ZM103.5 92.6795V94.1786H103.743C104.166 94.1786 104.59 94.0976 104.59 93.3683C104.59 92.6593 104.106 92.6593 103.823 92.6593H103.5V92.6795ZM106.729 96.9134V92.0313C106.729 91.8895 106.809 91.8895 106.87 91.8895H107.596C107.677 91.8895 107.737 91.8895 107.737 92.0313V93.9355H109.17V92.0313C109.17 91.8895 109.25 91.8895 109.311 91.8895H110.017C110.158 91.8895 110.158 91.9705 110.158 92.0313V96.9134C110.158 96.9945 110.158 97.0552 110.017 97.0552H109.311C109.23 97.0552 109.17 97.035 109.17 96.9134V94.7864H107.737V96.9134C107.737 97.035 107.657 97.0552 107.596 97.0552H106.87C106.789 97.0755 106.729 97.0552 106.729 96.9134ZM113.084 96.3665C113.85 96.3665 113.911 95.0902 113.911 94.4825C113.911 93.7532 113.81 92.5782 113.084 92.5782C112.378 92.5782 112.277 93.7532 112.277 94.4825C112.277 95.0902 112.337 96.3665 113.084 96.3665ZM114.96 94.4825C114.96 95.0092 114.94 97.197 113.084 97.197C111.248 97.197 111.228 95.0092 111.228 94.4825C111.228 93.9355 111.248 91.7477 113.084 91.7477C114.94 91.7477 114.96 93.9558 114.96 94.4825ZM117.018 94.7661V96.2449H118.592C118.672 96.2449 118.733 96.2652 118.733 96.3867V96.9134C118.733 97.035 118.652 97.0552 118.592 97.0552H116.171C116.029 97.0552 116.029 96.9539 116.029 96.9134V92.0313C116.029 91.8895 116.11 91.8895 116.171 91.8895H118.693C118.733 91.8895 118.773 91.8895 118.793 91.9097C118.814 91.93 118.814 91.9908 118.793 92.011L118.652 92.5985C118.652 92.6188 118.632 92.6998 118.531 92.6998H117.018V93.9558H118.289C118.41 93.9558 118.43 94.0368 118.43 94.0976V94.604C118.43 94.7458 118.35 94.7458 118.289 94.7458H117.018V94.7661ZM123.071 96.3665C123.817 96.3665 123.878 95.0902 123.878 94.4825C123.878 93.7532 123.777 92.5782 123.071 92.5782C122.344 92.5782 122.243 93.7532 122.243 94.4825C122.243 95.0902 122.304 96.3665 123.071 96.3665ZM124.927 94.4825C124.927 95.0092 124.907 97.197 123.071 97.197C121.215 97.197 121.194 95.0092 121.194 94.4825C121.194 93.9355 121.215 91.7477 123.071 91.7477C124.907 91.7477 124.927 93.9558 124.927 94.4825ZM126.985 94.7661V96.2449H127.267C127.711 96.2449 128.215 96.2044 128.215 95.4954C128.215 94.7864 127.671 94.7661 127.348 94.7661H126.985ZM126.985 92.6998V93.9355H127.509C127.852 93.9355 128.316 93.976 128.659 94.2191C128.942 94.4217 129.244 94.8066 129.244 95.5156C129.244 96.0018 129.123 97.0755 127.489 97.0755H126.117C125.996 97.0755 125.976 96.9742 125.976 96.9337V92.0515C125.976 91.9097 126.077 91.9097 126.117 91.9097H128.78C128.821 91.9097 128.881 91.9097 128.881 91.9908C128.881 91.9908 128.881 92.011 128.861 92.0718L128.72 92.5985C128.72 92.6795 128.679 92.7201 128.579 92.7201H126.985V92.6998ZM132.452 96.2449V92.0515C132.452 91.9097 132.533 91.9097 132.593 91.9097H133.3C133.441 91.9097 133.441 91.9908 133.441 92.0515V96.2449H134.51V92.0515C134.51 91.9705 134.51 91.9097 134.651 91.9097H135.358C135.499 91.9097 135.499 91.9908 135.499 92.0515V96.2449H135.822C135.862 96.2449 135.943 96.2652 135.943 96.3867V98.1289C135.943 98.2099 135.943 98.2707 135.822 98.2707H135.176C135.055 98.2707 135.035 98.1897 135.035 98.1289V97.0755H130.536C130.394 97.0755 130.394 96.9742 130.394 96.9337V92.0515C130.394 91.9097 130.475 91.9097 130.536 91.9097H131.242C131.383 91.9097 131.383 91.9908 131.383 92.0515V96.2449H132.452ZM137.96 94.7661V96.2449H139.514C139.594 96.2449 139.655 96.2652 139.655 96.3867V96.9134C139.655 97.035 139.574 97.0552 139.514 97.0552H137.093C136.951 97.0552 136.951 96.9539 136.951 96.9134V92.0313C136.951 91.8895 137.032 91.8895 137.093 91.8895H139.655C139.675 91.8895 139.695 91.8895 139.736 91.9097C139.756 91.93 139.756 91.9908 139.756 92.011L139.615 92.5985C139.594 92.6188 139.574 92.6998 139.473 92.6998H138V93.9558H139.251C139.393 93.9558 139.393 94.0368 139.393 94.0976V94.604C139.393 94.7458 139.312 94.7458 139.251 94.7458H137.96V94.7661ZM143.286 96.1639L143.529 96.5893C143.549 96.6298 143.549 96.6703 143.549 96.6906C143.549 96.7716 143.508 96.8121 143.448 96.8324C143.206 97.035 142.742 97.1768 142.298 97.1768C140.563 97.1768 140.341 95.5967 140.341 94.523C140.341 92.1934 141.471 91.7274 142.278 91.7274C142.621 91.7274 143.105 91.849 143.407 92.1123C143.508 92.2136 143.529 92.2946 143.529 92.3149C143.529 92.3554 143.529 92.3959 143.508 92.4162L143.226 92.8416C143.206 92.8821 143.186 92.9226 143.125 92.9226C143.085 92.9226 143.024 92.8821 142.984 92.8416C142.782 92.6593 142.6 92.558 142.358 92.558C142.116 92.558 141.915 92.6593 141.753 92.8011C141.531 93.0239 141.43 93.4696 141.43 94.4622C141.43 94.8066 141.45 95.6777 141.733 96.0423C141.834 96.1841 142.036 96.3462 142.379 96.3462C142.6 96.3462 142.802 96.2652 143.004 96.1639C143.085 96.1234 143.125 96.0626 143.186 96.0626C143.266 96.1031 143.266 96.1436 143.286 96.1639ZM145.788 92.8011V96.9134C145.788 97.035 145.708 97.0552 145.647 97.0552H144.921C144.8 97.0552 144.779 96.9539 144.779 96.9134V92.8011H143.771C143.67 92.8011 143.67 92.6998 143.67 92.6795V92.011C143.67 91.9908 143.67 91.9097 143.771 91.9097H146.979C147.12 91.9097 147.1 92.011 147.079 92.0515L146.898 92.6795C146.878 92.7808 146.817 92.8011 146.757 92.8011H145.788ZM148.633 96.2652H148.915C149.339 96.2652 149.864 96.2247 149.864 95.5359C149.864 94.8066 149.218 94.8066 148.915 94.8066H148.633V96.2652ZM148.633 94.0368H148.855C149.198 94.0368 149.682 93.9558 149.682 93.3075C149.682 93.105 149.642 92.6795 148.936 92.6795H148.633V94.0368ZM147.745 91.9097H148.915C149.299 91.9097 149.843 91.9097 150.227 92.1934C150.449 92.3757 150.671 92.7201 150.671 93.2265C150.671 93.8748 150.287 94.1989 149.924 94.3812C150.227 94.4622 150.852 94.7053 150.852 95.6574C150.852 96.9337 149.823 97.0957 148.996 97.0957H147.745C147.604 97.0957 147.604 96.9945 147.604 96.9539V92.0718C147.604 91.9097 147.665 91.9097 147.745 91.9097L148.613 94.0368L147.745 91.9097ZM153.556 96.3665C154.302 96.3665 154.363 95.0902 154.363 94.4825C154.363 93.7532 154.282 92.5782 153.556 92.5782C152.829 92.5782 152.749 93.7532 152.749 94.4825C152.749 95.0902 152.789 96.3665 153.556 96.3665ZM155.432 94.4825C155.432 95.0092 155.392 97.197 153.556 97.197C151.7 97.197 151.679 95.0092 151.679 94.4825C151.679 93.9355 151.7 91.7477 153.556 91.7477C155.392 91.7477 155.432 93.9558 155.432 94.4825Z" fill="#243B8F"/>
<path d="M30.2637 92.5985V96.7919C30.2435 96.8324 30.2435 96.8931 30.2233 96.9134C30.2031 96.9337 30.1426 96.9337 30.1224 96.9337H29.3961C29.3558 96.9337 29.2952 96.9337 29.2751 96.9134C29.2549 96.8931 29.2549 96.8324 29.2549 96.7919V91.9502C29.2549 91.9097 29.2549 91.8692 29.2751 91.8287C29.2952 91.8084 29.3558 91.8084 29.3961 91.8084H32.483C32.5233 91.8084 32.5838 91.8084 32.604 91.8287C32.6242 91.8489 32.6242 91.9097 32.6242 91.9502V96.7919C32.6242 96.8324 32.6242 96.8931 32.604 96.9134C32.5838 96.9337 32.5233 96.9337 32.483 96.9337H31.7768C31.7365 96.9337 31.6759 96.9337 31.6558 96.9134C31.6356 96.8931 31.6356 96.8324 31.6356 96.7919V92.5985H30.2637ZM35.3075 95.4954H34.8031C34.783 95.4954 34.7628 95.4954 34.7628 95.4954C34.7426 95.4954 34.7426 95.4751 34.7224 95.4548L33.4514 92.0313C33.4312 91.9907 33.4312 91.93 33.4312 91.93C33.4312 91.93 33.4312 91.9097 33.4312 91.8895C33.4312 91.8692 33.4312 91.8692 33.4514 91.8489C33.4715 91.8489 33.5523 91.8287 33.633 91.8287L34.3189 91.7477C34.3996 91.7477 34.4601 91.7477 34.5005 91.7679C34.5207 91.7679 34.5408 91.8084 34.5812 91.8895L35.1663 93.6924C35.2066 93.8342 35.2672 94.0165 35.3479 94.2799C35.3882 94.5027 35.4487 94.685 35.4891 94.7863H35.5093C35.5294 94.6445 35.59 94.4825 35.6101 94.3609C35.6303 94.2394 35.6908 94.0368 35.7917 93.7127L36.2356 91.93C36.2558 91.8489 36.2759 91.8084 36.3163 91.7882C36.3365 91.7882 36.3566 91.7679 36.4172 91.7679L37.1031 91.8489C37.1838 91.8489 37.204 91.8692 37.2242 91.8692C37.2444 91.8895 37.2645 91.8895 37.2645 91.9097C37.2444 91.93 37.2444 91.93 37.2444 91.9502C37.2444 91.9705 37.2444 91.9907 37.2242 92.0515L36.0742 96.0626C36.0338 96.2449 35.9733 96.3867 35.8926 96.5082C35.8119 96.6298 35.7514 96.7513 35.6505 96.8324C35.5496 96.9134 35.4286 96.9742 35.3075 97.035C35.1663 97.0552 35.0049 97.0755 34.8233 97.0755C34.7023 97.0755 34.5408 97.0755 34.4198 97.035C34.2786 97.0147 34.1172 96.9539 33.9961 96.9134C33.8952 96.8729 33.8549 96.8324 33.8145 96.8121C33.7944 96.7919 33.7944 96.7311 33.8145 96.6906L34.0365 96.1436C34.0365 96.1233 34.0566 96.1233 34.0566 96.1031C34.0768 96.1031 34.0768 96.1031 34.097 96.1031H34.1172C34.1373 96.1031 34.1575 96.1233 34.218 96.1436C34.2987 96.1841 34.3996 96.2246 34.4601 96.2652C34.5408 96.2854 34.6014 96.2854 34.6821 96.2854C34.8233 96.2854 34.9645 96.2449 35.0654 96.1639C35.1461 96.0626 35.2066 95.941 35.2672 95.7587L35.3075 95.4954ZM39.0198 92.5985V93.8342H39.5444C39.8268 93.8342 40.0487 93.8545 40.2303 93.9152C40.4119 93.976 40.5531 94.0368 40.6742 94.1178C40.8759 94.2394 40.997 94.4217 41.0979 94.6445C41.1987 94.8674 41.2391 95.1307 41.2391 95.4143C41.2391 95.9208 41.0979 96.2854 40.8154 96.5488C40.5128 96.8324 40.0891 96.9539 39.504 96.9539H38.1321C38.0917 96.9539 38.0514 96.9539 38.0312 96.9337C38.011 96.9134 37.9908 96.8526 37.9908 96.8121V91.9705C37.9908 91.93 37.9908 91.8895 38.011 91.8489C38.0312 91.8287 38.0917 91.8287 38.1321 91.8287H40.7549C40.7751 91.8287 40.8356 91.8287 40.8356 91.8489C40.8558 91.8489 40.8759 91.8692 40.8759 91.8895C40.8759 91.9097 40.8558 91.9097 40.8558 91.9097C40.8558 91.93 40.8558 91.9502 40.8558 91.9502L40.7145 92.4769C40.6944 92.5175 40.6944 92.558 40.6338 92.5782C40.6137 92.5985 40.5935 92.5985 40.533 92.5985H39.0198ZM39.0198 94.6648V96.1436H39.3023C39.6452 96.1436 39.8873 96.0626 40.0286 95.9613C40.1698 95.8397 40.2505 95.6372 40.2505 95.3738C40.2505 95.1105 40.1698 94.9484 40.0286 94.8268C39.9075 94.7053 39.6856 94.6445 39.383 94.6445H39.0198V94.6648ZM43.6601 92.6998V93.4088C43.6601 93.5506 43.64 93.7532 43.64 94.0165C43.6198 94.2596 43.5996 94.6243 43.5593 95.0294C43.5391 95.6169 43.4382 96.0423 43.3172 96.2854C43.1961 96.569 43.0145 96.7311 42.7926 96.8729C42.6917 96.9134 42.5505 96.9742 42.3689 97.0147C42.1672 97.0552 42.0461 97.0957 41.9452 97.0957C41.9251 97.0957 41.9049 97.0957 41.8645 97.0957C41.8645 97.0755 41.8444 97.0552 41.8444 97.0552L41.6628 96.3867C41.6426 96.3462 41.6426 96.3057 41.6628 96.2854C41.6628 96.2449 41.683 96.2449 41.7435 96.2449L41.8645 96.2246C42.0865 96.2044 42.268 96.1031 42.3891 95.941C42.49 95.7992 42.5908 95.4954 42.6312 95.0699C42.6312 94.8471 42.6514 94.5432 42.6715 94.1381C42.6917 93.7329 42.6917 93.4088 42.6917 93.186V92.011C42.6917 91.9705 42.7119 91.93 42.7119 91.8895C42.7321 91.8692 42.7926 91.8692 42.833 91.8692H45.2338C45.3145 91.8692 45.3347 91.8692 45.3549 91.8895C45.3751 91.9097 45.3751 91.9705 45.3751 92.011V96.8526C45.3751 96.8931 45.3751 96.9539 45.3549 96.9742C45.3347 96.9944 45.3145 96.9944 45.2338 96.9944H44.5277C44.447 96.9944 44.4268 96.9944 44.4066 96.9742C44.3865 96.9539 44.3865 96.8931 44.3865 96.8526V92.7605H43.6601V92.6998ZM46.747 96.7919V91.9502C46.747 91.9097 46.7672 91.8692 46.7873 91.8287C46.8075 91.8084 46.8277 91.8084 46.8882 91.8084H47.6145C47.6549 91.8084 47.6952 91.8084 47.7356 91.8287C47.7558 91.8489 47.7558 91.9097 47.7558 91.9502V94.1178C47.7558 94.2191 47.7558 94.3204 47.7356 94.5027C47.7356 94.6445 47.7356 94.8876 47.7356 95.1712H47.7558C47.8365 95.0294 47.897 94.7863 47.9979 94.5432C48.1189 94.3204 48.1996 94.1178 48.24 94.0165L49.1882 91.9502C49.2084 91.8692 49.2286 91.8287 49.2689 91.8287C49.2891 91.8084 49.3496 91.8084 49.39 91.8084H50.0961C50.1365 91.8084 50.1768 91.8084 50.197 91.8287C50.2373 91.8489 50.2373 91.9097 50.2373 91.9502V96.7919C50.2373 96.8324 50.2373 96.8931 50.197 96.9134C50.1768 96.9337 50.1566 96.9337 50.0961 96.9337H49.3698C49.3294 96.9337 49.2891 96.9337 49.2689 96.9134C49.2487 96.8931 49.2286 96.8324 49.2286 96.7919V94.4014C49.2286 94.3001 49.2286 94.1786 49.2286 94.0165C49.2487 93.8342 49.2487 93.6924 49.2689 93.5709H49.2286C49.1882 93.7127 49.1277 93.8545 49.0873 93.976C49.047 94.0976 48.9663 94.3001 48.8452 94.5838L47.7961 96.8121C47.7759 96.8931 47.7558 96.9134 47.7154 96.9134C47.6952 96.9337 47.6751 96.9337 47.6145 96.9337H46.8882C46.8479 96.9337 46.8075 96.9337 46.7873 96.9134C46.7672 96.8931 46.747 96.8526 46.747 96.7919ZM53.8084 96.7919V94.8674C53.6268 94.9079 53.4856 94.9687 53.304 95.0092C53.1628 95.0294 52.9812 95.0497 52.7996 95.0497C52.5979 95.0497 52.3961 95.0294 52.2145 94.9484C52.033 94.9079 51.8917 94.8268 51.7707 94.7053C51.6496 94.604 51.5487 94.4825 51.4882 94.3204C51.4075 94.1786 51.3873 93.976 51.3873 93.7329V91.93C51.3873 91.8895 51.3873 91.8489 51.4075 91.8084C51.4277 91.7882 51.4882 91.7882 51.5286 91.7882H52.2549C52.2751 91.7882 52.3356 91.7882 52.3558 91.8084C52.3759 91.8287 52.3961 91.8895 52.3961 91.93V93.5709C52.3961 93.6924 52.3961 93.7937 52.4163 93.8747C52.4365 93.9558 52.4566 94.0165 52.5373 94.0773C52.5777 94.1178 52.6382 94.1786 52.7391 94.1989C52.8198 94.2191 52.9207 94.2191 53.0417 94.2191C53.1628 94.2191 53.2838 94.2191 53.3847 94.1989C53.5058 94.1786 53.6268 94.1178 53.768 94.057V91.9502C53.768 91.9097 53.768 91.8692 53.7882 91.8287C53.8084 91.8084 53.8689 91.8084 53.9093 91.8084H54.6356C54.6759 91.8084 54.7163 91.8084 54.7365 91.8287C54.7566 91.8489 54.7768 91.9097 54.7768 91.9502V96.7919C54.7768 96.8324 54.7566 96.8931 54.7365 96.9134C54.7163 96.9337 54.6961 96.9337 54.6356 96.9337H53.9093C53.8689 96.9337 53.8286 96.9337 53.8084 96.9134C53.8286 96.8931 53.8084 96.8526 53.8084 96.7919ZM56.1487 96.7919V91.9502C56.1487 91.9097 56.1689 91.8489 56.1891 91.8287C56.1891 91.8287 56.2294 91.8084 56.29 91.8084H57.0163C57.0566 91.8084 57.1172 91.8084 57.1373 91.8287C57.1575 91.8489 57.1575 91.9097 57.1575 91.9502V93.8545H58.59V91.9502C58.59 91.9097 58.59 91.8489 58.6101 91.8287C58.6303 91.8287 58.6908 91.8084 58.7312 91.8084H59.4575C59.4979 91.8084 59.5382 91.8084 59.5584 91.8287C59.5786 91.8489 59.5987 91.9097 59.5987 91.9502V96.7919C59.5987 96.8729 59.5786 96.8931 59.5584 96.9134C59.5382 96.9337 59.518 96.9337 59.4575 96.9337H58.7312C58.6908 96.9337 58.6303 96.9337 58.6101 96.9134C58.59 96.8931 58.59 96.8324 58.59 96.7919V94.685H57.1575V96.7919C57.1575 96.8324 57.1575 96.8931 57.1373 96.9134C57.1172 96.9337 57.0566 96.9337 57.0163 96.9337H56.29C56.2496 96.9337 56.1891 96.9337 56.1891 96.9134C56.1891 96.8931 56.1487 96.8526 56.1487 96.7919ZM64.4005 94.3812C64.4005 95.2928 64.2189 95.9613 63.8961 96.407C63.5531 96.8324 63.0891 97.0552 62.5242 97.0552C61.9593 97.0552 61.4952 96.8324 61.1724 96.407C60.8294 95.9613 60.6479 95.2725 60.6479 94.3812C60.6479 93.4493 60.8294 92.7808 61.1724 92.3149C61.4952 91.8895 61.9391 91.6666 62.5242 91.6666C63.1093 91.6666 63.5531 91.8895 63.8961 92.3351C64.2189 92.7808 64.4005 93.4493 64.4005 94.3812ZM62.5242 96.2652C62.8066 96.2652 63.0084 96.1233 63.1294 95.779C63.2707 95.4548 63.3312 95.0092 63.3312 94.3812C63.3312 93.7329 63.2505 93.2467 63.1294 92.9429C63.0084 92.6187 62.8066 92.4567 62.5242 92.4567C62.2821 92.4567 62.0803 92.639 61.9189 92.9429C61.7979 93.2467 61.7172 93.7127 61.7172 94.3812C61.7172 95.0092 61.7979 95.4548 61.9189 95.779C62.04 96.1233 62.2417 96.2652 62.5242 96.2652ZM66.4584 94.6648V96.1436H68.0119C68.0523 96.1436 68.1128 96.1436 68.133 96.1639C68.1531 96.2044 68.1531 96.2449 68.1531 96.2854V96.7919C68.1531 96.8324 68.1531 96.8931 68.133 96.9134C68.1128 96.9337 68.0523 96.9337 68.0119 96.9337H65.5909C65.5505 96.9337 65.49 96.9337 65.4698 96.9134C65.4496 96.8931 65.4496 96.8324 65.4496 96.7919V91.9502C65.4496 91.9097 65.4496 91.8692 65.4698 91.8287C65.49 91.8084 65.5505 91.8084 65.5909 91.8084H68.1531C68.1531 91.8084 68.1733 91.8084 68.1935 91.8084C68.1935 91.8287 68.2137 91.8287 68.2137 91.8287C68.2137 91.8489 68.2338 91.8692 68.2338 91.8692C68.2338 91.8895 68.2338 91.8895 68.2137 91.9097L68.0724 92.4972C68.0724 92.5175 68.0523 92.5782 68.0321 92.5782C68.0119 92.5985 67.9917 92.5985 67.9514 92.5985H66.4786V93.8545H67.7294C67.7698 93.8545 67.8102 93.8545 67.8303 93.8747C67.8707 93.895 67.8707 93.9558 67.8707 93.9963V94.5027C67.8707 94.5432 67.8707 94.604 67.8505 94.6243C67.8303 94.6445 67.7698 94.6445 67.7294 94.6445H66.4584V94.6648Z" fill="#243B8F"/>
</svg>
