<svg width="411" height="88" viewBox="0 0 411 88" fill="none" xmlns="http://www.w3.org/2000/svg">
<path d="M133.135 30.1384V38.7356H123.282V30.1384H118.162V51.9694H123.282V42.9858H133.135V51.9694H138.254V30.1384H133.135Z" fill="#3C3C3B"/>
<path d="M157.477 38.9285C156.704 37.6728 155.642 36.6102 154.386 35.934C153.034 35.2579 151.585 34.8715 149.943 34.8715C148.204 34.8715 146.658 35.2579 145.306 35.934C143.953 36.7068 142.891 37.6728 142.118 39.0251C141.345 40.3775 140.959 41.8265 140.959 43.4686C140.959 45.1108 141.345 46.6563 142.118 47.9121C142.891 49.1678 144.05 50.2304 145.499 51.0032C146.948 51.776 148.59 52.1624 150.522 52.1624C152.068 52.1624 153.42 51.9692 154.579 51.4862C155.738 51.0032 156.704 50.327 157.477 49.4576L154.869 46.6563C154.289 47.2359 153.71 47.6223 153.034 47.9121C152.357 48.2019 151.585 48.2985 150.715 48.2985C149.653 48.2985 148.783 48.1053 148.107 47.7189C147.334 47.3325 146.851 46.8495 146.368 46.1733C146.175 45.7869 145.982 45.4006 145.885 44.9176H158.54C158.54 44.7244 158.54 44.5312 158.636 44.2414C158.636 44.0482 158.636 43.7584 158.636 43.5652C158.636 41.8265 158.25 40.2809 157.477 38.9285ZM147.721 39.1217C148.397 38.7353 149.073 38.5422 149.943 38.5422C150.812 38.5422 151.488 38.7353 152.164 39.1217C152.744 39.5081 153.323 39.9911 153.613 40.6673C153.806 41.0537 154 41.5367 154 42.1162H145.789C145.885 41.6333 145.982 41.1503 146.272 40.6673C146.562 39.9911 147.045 39.5081 147.721 39.1217Z" fill="#3C3C3B"/>
<path d="M167.717 35.8374C167.041 36.2238 166.461 36.8034 165.978 37.383V35.1613H161.341V51.9692H166.171V44.0482C166.171 42.406 166.558 41.2469 167.427 40.4741C168.2 39.7013 169.359 39.3149 170.711 39.3149C170.904 39.3149 171.001 39.3149 171.194 39.3149C171.387 39.3149 171.581 39.4115 171.774 39.4115V34.8715C170.228 34.8715 168.876 35.2578 167.717 35.8374Z" fill="#3C3C3B"/>
<path d="M201.815 38.1557C201.236 37.0932 200.463 36.2238 199.4 35.7408C198.338 35.2578 197.179 34.968 195.826 34.968C194.184 34.968 192.735 35.3544 191.576 36.1272C190.9 36.6102 190.32 37.0932 189.837 37.7693C189.451 37.0932 188.968 36.6102 188.292 36.1272C187.133 35.3544 185.78 34.968 184.235 34.968C182.882 34.968 181.627 35.2578 180.564 35.8374C179.984 36.2238 179.405 36.6102 179.019 37.0932V35.1612H174.382V51.9691H179.212V43.5652C179.212 42.5026 179.405 41.7298 179.695 41.0536C179.984 40.3775 180.467 39.8945 181.047 39.6047C181.627 39.3149 182.206 39.1217 182.979 39.1217C184.042 39.1217 184.814 39.4115 185.394 40.0877C185.973 40.7638 186.263 41.7298 186.263 43.0822V51.9691H191.093V43.5652C191.093 42.5026 191.286 41.7298 191.576 41.0536C191.866 40.3775 192.349 39.8945 192.832 39.6047C193.411 39.3149 193.991 39.1217 194.764 39.1217C195.73 39.1217 196.503 39.4115 197.082 40.0877C197.662 40.7638 197.952 41.7298 197.952 43.0822V51.9691H202.781V42.3094C202.685 40.6672 202.395 39.2183 201.815 38.1557Z" fill="#3C3C3B"/>
<path d="M221.714 38.9285C220.942 37.6728 219.879 36.6102 218.623 35.934C217.271 35.2579 215.822 34.8715 214.18 34.8715C212.441 34.8715 210.896 35.2579 209.543 35.934C208.191 36.7068 207.128 37.6728 206.355 39.0251C205.583 40.3775 205.196 41.8265 205.196 43.4686C205.196 45.1108 205.583 46.6563 206.355 47.9121C207.128 49.1678 208.287 50.2304 209.736 51.0032C211.185 51.776 212.827 52.1624 214.759 52.1624C216.305 52.1624 217.657 51.9692 218.816 51.4862C219.976 51.0032 220.942 50.327 221.714 49.4576L219.106 46.6563C218.527 47.2359 217.947 47.6223 217.271 47.9121C216.595 48.2019 215.822 48.2985 214.953 48.2985C213.89 48.2985 213.021 48.1053 212.344 47.7189C211.572 47.3325 211.089 46.8495 210.606 46.1733C210.413 45.7869 210.219 45.4006 210.123 44.9176H222.777C222.777 44.7244 222.777 44.5312 222.874 44.2414C222.874 44.0482 222.874 43.7584 222.874 43.5652C222.874 41.8265 222.487 40.2809 221.714 38.9285ZM211.958 39.1217C212.634 38.7353 213.31 38.5422 214.18 38.5422C215.049 38.5422 215.725 38.7353 216.402 39.1217C216.981 39.5081 217.561 39.9911 217.851 40.6673C218.044 41.0537 218.237 41.5367 218.237 42.1162H210.026C210.123 41.6333 210.219 41.1503 210.509 40.6673C210.799 39.9911 211.282 39.5081 211.958 39.1217Z" fill="#3C3C3B"/>
<path d="M235.528 47.7195C234.949 48.1059 234.272 48.2991 233.5 48.2991C232.92 48.2991 232.34 48.1059 232.051 47.7195C231.664 47.3331 231.471 46.7536 231.471 46.0774V39.3156H235.625V35.5483H231.471V31.4912H226.545V35.5483H223.937V39.3156H226.545V46.174C226.545 48.2025 227.124 49.6515 228.187 50.714C229.249 51.68 230.795 52.2596 232.823 52.2596C233.596 52.2596 234.272 52.163 234.949 51.9698C235.625 51.7766 236.204 51.4868 236.687 51.197L235.528 47.7195Z" fill="#3C3C3B"/>
<path d="M239.295 51.9688V35.1609H244.125V51.9688H239.295Z" fill="#3C3C3B"/>
<path d="M241.71 32.9393C240.744 32.9393 239.971 32.6495 239.392 32.07C238.812 31.4904 238.522 30.8142 238.522 29.9448C238.522 29.0755 238.812 28.3993 239.392 27.8197C239.971 27.2401 240.744 26.9503 241.71 26.9503C242.676 26.9503 243.449 27.2401 244.028 27.7231C244.608 28.3027 244.898 28.9789 244.898 29.8482C244.898 30.7176 244.608 31.4904 244.028 32.07C243.449 32.6495 242.676 32.9393 241.71 32.9393Z" fill="#3293FC"/>
<path d="M256.296 52.2589C254.461 52.2589 252.915 51.8725 251.466 51.1963C250.017 50.4236 248.955 49.4576 248.182 48.1052C247.409 46.7529 247.023 45.3039 247.023 43.6618C247.023 42.0196 247.409 40.4741 248.182 39.2183C248.955 37.9625 250.114 36.9 251.466 36.1272C252.915 35.3544 254.461 34.968 256.296 34.968C258.035 34.968 259.581 35.3544 260.933 36.0306C262.285 36.8034 263.251 37.7693 263.831 39.1217L260.064 41.1502C259.581 40.3775 259.098 39.7979 258.421 39.4115C257.745 39.0251 257.069 38.8319 256.296 38.8319C255.524 38.8319 254.751 39.0251 254.075 39.4115C253.398 39.7979 252.915 40.2809 252.529 40.957C252.143 41.6332 251.949 42.5026 251.949 43.4686C251.949 44.4345 252.143 45.3039 252.529 45.9801C252.915 46.6563 253.495 47.2359 254.075 47.5256C254.751 47.912 255.524 48.1052 256.296 48.1052C257.069 48.1052 257.745 47.912 258.421 47.5256C259.098 47.1393 259.581 46.5597 260.064 45.7869L263.831 47.8154C263.251 49.1678 262.285 50.2304 260.933 50.9065C259.581 51.8725 258.035 52.2589 256.296 52.2589Z" fill="#3C3C3B"/>
<path d="M279.19 36.7068C277.741 35.5476 275.809 34.8715 273.201 34.8715C271.848 34.8715 270.593 35.0647 269.24 35.3544C267.985 35.7408 266.825 36.2238 265.956 36.9L267.695 40.2809C268.274 39.7979 269.047 39.4115 269.916 39.1217C270.786 38.8319 271.655 38.7353 272.525 38.7353C273.877 38.7353 274.843 39.0251 275.422 39.6047C276.099 40.1843 276.388 40.9571 276.388 42.0196H272.525C270.786 42.0196 269.433 42.2128 268.371 42.5992C267.308 42.9856 266.536 43.5652 266.053 44.338C265.57 45.1108 265.28 45.9801 265.28 46.9461C265.28 47.9121 265.57 48.7814 266.053 49.5542C266.536 50.327 267.308 50.9066 268.178 51.3896C269.144 51.8726 270.206 52.0658 271.559 52.0658C273.008 52.0658 274.263 51.776 275.229 51.1964C275.905 50.81 276.388 50.327 276.775 49.6508V51.776H281.315V42.2128C281.315 39.7979 280.542 37.9626 279.19 36.7068ZM275.036 48.3951C274.36 48.7814 273.587 48.9746 272.814 48.9746C271.945 48.9746 271.365 48.7814 270.786 48.3951C270.303 48.0087 270.013 47.5257 270.013 46.9461C270.013 46.3665 270.206 45.8835 270.689 45.4971C271.076 45.1108 271.945 44.9176 273.008 44.9176H276.388V46.6563C276.099 47.4291 275.712 48.0087 275.036 48.3951Z" fill="#3C3C3B"/>
<path d="M284.792 51.9698V28.7865H289.622V51.9698H284.792Z" fill="#3C3C3B"/>
<path d="M318.891 39.0251C318.118 37.7693 317.152 36.7068 315.897 36.0306C314.641 35.3544 313.192 34.968 311.646 34.968C310.197 34.968 308.942 35.2578 307.879 35.934C307.299 36.2238 306.816 36.7068 306.43 37.1898V35.2578H301.793V58.1513H306.623V50.327C307.01 50.8099 307.493 51.0997 307.976 51.3895C309.038 51.9691 310.294 52.3555 311.646 52.3555C313.288 52.3555 314.641 51.9691 315.897 51.2929C317.152 50.6168 318.118 49.5542 318.891 48.2984C319.664 47.0427 319.954 45.4971 319.954 43.7584C319.954 41.8264 319.567 40.2809 318.891 39.0251ZM314.448 46.0767C314.061 46.7529 313.578 47.3325 312.902 47.7188C312.226 48.1052 311.55 48.2984 310.777 48.2984C310.004 48.2984 309.231 48.1052 308.555 47.7188C307.879 47.3325 307.396 46.8495 307.01 46.0767C306.623 45.4005 306.43 44.5311 306.43 43.5652C306.43 42.5992 306.623 41.7298 307.01 41.0536C307.396 40.3775 307.879 39.7979 308.555 39.5081C309.231 39.1217 309.908 38.9285 310.777 38.9285C311.55 38.9285 312.323 39.1217 312.902 39.5081C313.578 39.8945 314.061 40.3775 314.448 41.0536C314.834 41.7298 315.027 42.5992 315.027 43.5652C315.027 44.5311 314.834 45.4005 314.448 46.0767Z" fill="#3C3C3B"/>
<path d="M334.733 35.1609V43.4682C334.733 44.4342 334.54 45.3036 334.25 45.9798C333.864 46.6559 333.478 47.1389 332.898 47.5253C332.318 47.8151 331.642 48.0083 330.869 48.0083C329.807 48.0083 328.938 47.7185 328.358 47.0423C327.778 46.3662 327.489 45.3036 327.489 43.9512V35.1609H322.659V44.6274C322.659 46.3662 322.949 47.7185 323.528 48.8777C324.108 50.0368 324.977 50.8096 326.04 51.3892C327.102 51.9688 328.358 52.162 329.807 52.162C331.063 52.162 332.318 51.8722 333.381 51.2926C334.057 50.9062 334.54 50.5198 335.023 49.9403V51.9688H339.66V35.1609H334.733Z" fill="#3C3C3B"/>
<path d="M371.054 38.1557C370.474 37.0932 369.701 36.2238 368.639 35.7408C367.576 35.2578 366.417 34.968 365.065 34.968C363.423 34.968 361.974 35.3544 360.814 36.1272C360.138 36.6102 359.559 37.0932 359.076 37.7693C358.689 37.0932 358.206 36.6102 357.53 36.1272C356.371 35.3544 355.019 34.968 353.473 34.968C352.121 34.968 350.865 35.2578 349.802 35.8374C349.223 36.2238 348.643 36.6102 348.257 37.0932V35.1612H343.62V51.9691H348.45V43.5652C348.45 42.5026 348.643 41.7298 348.933 41.0536C349.223 40.3775 349.706 39.8945 350.285 39.6047C350.865 39.3149 351.444 39.1217 352.217 39.1217C353.28 39.1217 354.053 39.4115 354.632 40.0877C355.212 40.7638 355.502 41.7298 355.502 43.0822V51.9691H360.331V43.5652C360.331 42.5026 360.525 41.7298 360.814 41.0536C361.104 40.3775 361.587 39.8945 362.07 39.6047C362.65 39.3149 363.229 39.1217 364.002 39.1217C364.968 39.1217 365.741 39.4115 366.32 40.0877C366.9 40.7638 367.19 41.7298 367.19 43.0822V51.9691H372.02V42.3094C372.02 40.6672 371.73 39.2183 371.054 38.1557Z" fill="#3C3C3B"/>
<path d="M371.054 38.1557C370.474 37.0932 369.701 36.2238 368.639 35.7408C367.576 35.2578 366.417 34.968 365.065 34.968C363.423 34.968 361.974 35.3544 360.814 36.1272C360.138 36.6102 359.559 37.0932 359.076 37.7693C358.689 37.0932 358.206 36.6102 357.53 36.1272C356.371 35.3544 355.019 34.968 353.473 34.968C352.121 34.968 350.865 35.2578 349.802 35.8374C349.223 36.2238 348.643 36.6102 348.257 37.0932V35.1612H343.62V51.9691H348.45V43.5652C348.45 42.5026 348.643 41.7298 348.933 41.0536C349.223 40.3775 349.706 39.8945 350.285 39.6047C350.865 39.3149 351.444 39.1217 352.217 39.1217C353.28 39.1217 354.053 39.4115 354.632 40.0877C355.212 40.7638 355.502 41.7298 355.502 43.0822V51.9691H360.331V43.5652C360.331 42.5026 360.525 41.7298 360.814 41.0536C361.104 40.3775 361.587 39.8945 362.07 39.6047C362.65 39.3149 363.229 39.1217 364.002 39.1217C364.968 39.1217 365.741 39.4115 366.32 40.0877C366.9 40.7638 367.19 41.7298 367.19 43.0822V51.9691H372.02V42.3094C372.02 40.6672 371.73 39.2183 371.054 38.1557Z" fill="black" fill-opacity="0.2"/>
<path d="M393.078 39.0251C392.305 37.7693 391.339 36.7068 390.084 36.0306C388.828 35.3544 387.379 34.968 385.833 34.968C384.384 34.968 383.129 35.2578 382.066 35.934C381.486 36.2238 381.004 36.7068 380.617 37.1898V35.2578H375.98V58.1513H380.81V50.327C381.197 50.8099 381.68 51.0997 382.163 51.3895C383.225 51.9691 384.481 52.3555 385.833 52.3555C387.476 52.3555 388.828 51.9691 390.084 51.2929C391.339 50.6168 392.305 49.5542 393.078 48.2984C393.851 47.0427 394.141 45.4971 394.141 43.7584C394.141 41.8264 393.754 40.2809 393.078 39.0251ZM388.635 46.0767C388.248 46.7529 387.765 47.3325 387.089 47.7188C386.413 48.1052 385.737 48.2984 384.964 48.2984C384.191 48.2984 383.418 48.1052 382.742 47.7188C382.066 47.3325 381.583 46.8495 381.197 46.0767C380.81 45.4005 380.617 44.5311 380.617 43.5652C380.617 42.5992 380.81 41.7298 381.197 41.0536C381.583 40.3775 382.066 39.7979 382.742 39.5081C383.418 39.1217 384.095 38.9285 384.964 38.9285C385.737 38.9285 386.51 39.1217 387.089 39.5081C387.765 39.8945 388.248 40.3775 388.635 41.0536C389.021 41.7298 389.214 42.5992 389.214 43.5652C389.214 44.5311 389.021 45.4005 388.635 46.0767Z" fill="#3C3C3B"/>
<path d="M402.834 52.2591C401.385 52.2591 400.033 52.0659 398.68 51.7761C397.328 51.3897 396.362 51.0033 395.493 50.5204L397.038 47.0429C397.811 47.5259 398.777 47.9122 399.84 48.202C400.902 48.4918 401.965 48.685 402.931 48.685C404.09 48.685 404.863 48.5884 405.346 48.2986C405.829 48.0088 406.022 47.6224 406.022 47.1395C406.022 46.7531 405.829 46.4633 405.442 46.2701C405.056 46.0769 404.573 45.8837 403.993 45.7871C403.414 45.6905 402.737 45.5939 401.965 45.4973C401.192 45.4007 400.516 45.2075 399.84 45.0143C399.163 44.8211 398.487 44.5313 397.811 44.2415C397.231 43.8552 396.748 43.4688 396.362 42.7926C395.976 42.213 395.782 41.4402 395.782 40.4743C395.782 39.4117 396.072 38.4457 396.748 37.6729C397.328 36.8036 398.294 36.224 399.357 35.741C400.516 35.258 401.868 35.0648 403.51 35.0648C404.669 35.0648 405.829 35.1614 406.988 35.4512C408.147 35.741 409.113 36.0308 409.982 36.5138L408.34 39.9913C407.567 39.5083 406.698 39.2185 405.925 39.0253C405.056 38.8321 404.283 38.7355 403.607 38.7355C402.448 38.7355 401.675 38.9287 401.192 39.2185C400.709 39.5083 400.419 39.8947 400.419 40.3777C400.419 40.7641 400.612 41.1504 400.999 41.3436C401.385 41.5368 401.868 41.73 402.448 41.8266C403.027 41.9232 403.703 42.0198 404.476 42.1164C405.249 42.213 405.925 42.4062 406.601 42.5994C407.278 42.7926 407.954 43.0824 408.63 43.3722C409.209 43.7586 409.692 44.145 410.079 44.8211C410.465 45.4007 410.658 46.1735 410.658 47.1395C410.658 48.202 410.369 49.0714 409.692 49.8442C409.113 50.617 408.147 51.2931 406.988 51.7761C405.925 51.9693 404.476 52.2591 402.834 52.2591Z" fill="#3C3C3B"/>
<path d="M118.162 68.4869V62.4012H122.123V63.174H118.742L118.935 62.9808V68.4869H118.162Z" fill="#3C3C3B"/>
<path d="M134.583 67.7141H138.157V68.4869H133.714V62.4012H137.964V63.174H134.583V67.7141ZM134.487 65.0094H137.578V65.7821H134.487V65.0094Z" fill="#3C3C3B"/>
<path d="M149.942 68.4869V62.4012H152.357C152.937 62.4012 153.323 62.4978 153.71 62.691C154.096 62.8842 154.386 63.0774 154.579 63.4638C154.772 63.7536 154.869 64.14 154.869 64.623C154.869 65.106 154.772 65.3958 154.579 65.7821C154.386 66.0719 154.096 66.3617 153.71 66.5549C153.323 66.7481 152.84 66.8447 152.357 66.8447H150.425L150.812 66.4583V68.6801H149.942V68.4869ZM150.812 66.3617L150.425 65.8787H152.261C152.84 65.8787 153.227 65.7821 153.516 65.4924C153.806 65.2992 153.903 64.9128 153.903 64.5264C153.903 64.14 153.806 63.7536 153.516 63.5604C153.227 63.3672 152.84 63.174 152.261 63.174H150.425L150.812 62.691V66.3617Z" fill="#3C3C3B"/>
<path d="M166.557 68.4869V62.4012H167.233L169.938 67.0379H169.552L172.256 62.4012H172.933V68.4869H172.063V63.7536H172.256L169.841 67.8107H169.455L167.04 63.7536H167.233V68.4869H166.557Z" fill="#3C3C3B"/>
<path d="M186.36 67.7141H189.934V68.4869H185.49V62.4012H189.741V63.174H186.36V67.7141ZM186.263 65.0094H189.354V65.7821H186.263V65.0094Z" fill="#3C3C3B"/>
<path d="M202.974 68.4869V62.8843L203.167 63.0775H200.849V62.3047H205.872V63.0775H203.554L203.747 62.8843V68.4869H202.974Z" fill="#3C3C3B"/>
<path d="M217.464 68.4869V62.4012H218.333V67.1345L221.907 62.4012H222.68V68.4869H221.907V63.7536L218.333 68.4869H217.464Z" fill="#3C3C3B"/>
<path d="M238.716 65.9754C238.329 66.1686 238.039 66.2652 237.75 66.2652C237.46 66.3618 237.073 66.3618 236.784 66.3618C236.011 66.3618 235.431 66.1686 235.045 65.7822C234.659 65.3958 234.465 64.9128 234.465 64.2366V62.3047H235.335V64.2366C235.335 64.7196 235.431 65.0094 235.721 65.2992C236.011 65.589 236.397 65.6856 236.88 65.6856C237.17 65.6856 237.46 65.6856 237.75 65.589C238.039 65.4924 238.329 65.3958 238.619 65.2992L238.716 65.9754ZM238.619 68.4869V62.4013H239.488V68.4869H238.619Z" fill="#3C3C3B"/>
<path d="M252.722 68.4869H251.853V62.4012H252.722V68.4869ZM256.296 65.7821H252.625V65.0094H256.296V65.7821ZM256.199 62.4012H257.069V68.4869H256.199V62.4012Z" fill="#3C3C3B"/>
<path d="M272.138 64.5264C272.814 64.5264 273.394 64.7196 273.78 65.0094C274.166 65.2992 274.36 65.7821 274.36 66.4583C274.36 67.1345 274.166 67.6175 273.683 68.0039C273.297 68.3903 272.717 68.4869 271.945 68.4869H269.433V62.4012H270.302V64.5264H272.138ZM271.945 67.8107C272.428 67.8107 272.814 67.7141 273.104 67.4243C273.394 67.2311 273.49 66.8447 273.49 66.4583C273.49 66.0719 273.394 65.6856 273.104 65.4924C272.814 65.2992 272.428 65.2026 271.945 65.2026H270.302V67.8107H271.945ZM275.326 68.4869V62.4012H276.195V68.4869H275.326Z" fill="#3C3C3B"/>
<path d="M289.429 67.7141H293.003V68.4869H288.56V62.4012H292.81V63.174H289.429V67.7141ZM289.332 65.0094H292.423V65.7821H289.332V65.0094Z" fill="#3C3C3B"/>
<path d="M318.505 68.4869H317.635V62.4012H318.505V68.4869ZM322.175 65.7821H318.505V65.0094H322.175V65.7821ZM322.079 62.4012H322.948V68.4869H322.079V62.4012Z" fill="#3C3C3B"/>
<path d="M334.443 68.4869L337.244 62.4012H338.114L340.915 68.4869H340.045L337.631 62.8842H338.017L335.602 68.4869H334.443ZM335.602 66.9413L335.795 66.2651H339.176L339.466 66.9413H335.602Z" fill="#3C3C3B"/>
<path d="M355.018 68.5835C354.535 68.5835 354.149 68.4869 353.762 68.3903C353.376 68.1971 352.99 68.0039 352.7 67.7141C352.41 67.4243 352.217 67.1345 352.024 66.7481C351.831 66.3617 351.734 65.9753 351.734 65.4924C351.734 65.0094 351.831 64.623 352.024 64.2366C352.217 63.8502 352.41 63.5604 352.7 63.2706C352.99 62.9808 353.376 62.7876 353.762 62.5944C354.149 62.4012 354.535 62.4012 355.018 62.4012C355.501 62.4012 355.888 62.4978 356.274 62.5944C356.66 62.7876 357.047 62.9808 357.337 63.2706L356.757 63.8502C356.564 63.5604 356.274 63.4638 355.984 63.2706C355.694 63.174 355.405 63.0774 355.018 63.0774C354.632 63.0774 354.342 63.174 354.052 63.2706C353.762 63.3672 353.473 63.5604 353.279 63.7536C353.086 63.9468 352.893 64.2366 352.796 64.5264C352.7 64.8162 352.603 65.106 352.603 65.4924C352.603 65.7821 352.7 66.1685 352.796 66.4583C352.893 66.7481 353.086 67.0379 353.279 67.2311C353.473 67.4243 353.762 67.6175 354.052 67.7141C354.342 67.8107 354.632 67.9073 355.018 67.9073C355.308 67.9073 355.694 67.8107 355.984 67.7141C356.274 67.6175 356.564 67.4243 356.757 67.1345L357.337 67.7141C357.047 68.0039 356.757 68.2937 356.274 68.3903C355.888 68.4869 355.501 68.5835 355.018 68.5835Z" fill="#3C3C3B"/>
<path d="M371.633 68.5835C371.15 68.5835 370.764 68.4869 370.377 68.3903C369.991 68.1971 369.604 68.0039 369.315 67.7141C369.025 67.4243 368.832 67.1345 368.638 66.7481C368.445 66.3617 368.349 65.9753 368.349 65.4924C368.349 65.0094 368.445 64.623 368.638 64.2366C368.832 63.8502 369.025 63.5604 369.315 63.2706C369.604 62.9808 369.991 62.7876 370.377 62.5944C370.764 62.4012 371.247 62.4012 371.633 62.4012C372.116 62.4012 372.502 62.4978 372.889 62.5944C373.275 62.7876 373.661 62.9808 373.951 63.2706C374.241 63.5604 374.434 63.8502 374.627 64.2366C374.821 64.623 374.821 65.0094 374.821 65.4924C374.821 65.9753 374.724 66.3617 374.627 66.7481C374.434 67.1345 374.241 67.4243 373.951 67.7141C373.661 68.0039 373.275 68.1971 372.889 68.3903C372.502 68.4869 372.116 68.5835 371.633 68.5835ZM371.633 67.8107C372.019 67.8107 372.309 67.7141 372.599 67.6175C372.889 67.5209 373.178 67.3277 373.372 67.1345C373.565 66.9413 373.758 66.6515 373.855 66.3617C373.951 66.0719 374.048 65.7821 374.048 65.3958C374.048 65.106 373.951 64.7196 373.855 64.4298C373.758 64.14 373.565 63.9468 373.372 63.657C373.178 63.4638 372.889 63.2706 372.599 63.174C372.309 63.0774 372.019 62.9808 371.633 62.9808C371.343 62.9808 370.957 63.0774 370.667 63.174C370.377 63.2706 370.087 63.4638 369.894 63.657C369.701 63.8502 369.508 64.14 369.411 64.4298C369.315 64.7196 369.218 65.0094 369.218 65.3958C369.218 65.6855 369.315 66.0719 369.411 66.3617C369.508 66.6515 369.701 66.9413 369.894 67.1345C370.087 67.3277 370.377 67.5209 370.667 67.6175C370.957 67.7141 371.343 67.8107 371.633 67.8107Z" fill="#3C3C3B"/>
<path d="M389.504 68.5835C389.021 68.5835 388.634 68.4869 388.248 68.3903C387.861 68.1971 387.475 68.0039 387.185 67.7141C386.895 67.4243 386.702 67.1345 386.509 66.7481C386.316 66.3617 386.219 65.9753 386.219 65.4924C386.219 65.0094 386.316 64.623 386.509 64.2366C386.702 63.8502 386.895 63.5604 387.185 63.2706C387.475 62.9808 387.861 62.7876 388.248 62.5944C388.634 62.4012 389.021 62.4012 389.504 62.4012C389.987 62.4012 390.373 62.4978 390.759 62.5944C391.146 62.7876 391.532 62.9808 391.822 63.2706L391.242 63.8502C391.049 63.5604 390.759 63.4638 390.47 63.2706C390.18 63.174 389.89 63.0774 389.504 63.0774C389.117 63.0774 388.827 63.174 388.538 63.2706C388.248 63.3672 387.958 63.5604 387.765 63.7536C387.572 63.9468 387.378 64.2366 387.282 64.5264C387.185 64.8162 387.089 65.106 387.089 65.4924C387.089 65.7821 387.185 66.1685 387.282 66.4583C387.378 66.7481 387.572 67.0379 387.765 67.2311C387.958 67.4243 388.248 67.6175 388.538 67.7141C388.827 67.8107 389.117 67.9073 389.504 67.9073C389.793 67.9073 390.18 67.8107 390.47 67.7141C390.759 67.6175 391.049 67.4243 391.242 67.1345L391.822 67.7141C391.532 68.0039 391.242 68.2937 390.759 68.3903C390.373 68.4869 389.987 68.5835 389.504 68.5835Z" fill="#3C3C3B"/>
<path d="M406.215 64.5264C406.891 64.5264 407.471 64.7196 407.857 65.0094C408.244 65.2992 408.437 65.7821 408.437 66.4583C408.437 67.1345 408.244 67.6175 407.761 68.0039C407.374 68.3903 406.795 68.4869 406.022 68.4869H403.51V62.4012H404.38V64.5264H406.215ZM406.022 67.8107C406.505 67.8107 406.891 67.7141 407.181 67.4243C407.471 67.2311 407.567 66.8447 407.567 66.4583C407.567 66.0719 407.471 65.6856 407.181 65.4924C406.891 65.2992 406.505 65.2026 406.022 65.2026H404.38V67.8107H406.022ZM409.403 68.4869V62.4012H410.272V68.4869H409.403Z" fill="#3C3C3B"/>
<path d="M74.6937 0L58.6586 16.0351L63.5851 20.9616L71.3128 13.2338V46.1734C71.3128 55.8331 67.5456 64.8167 60.7838 71.6751C54.6981 77.7607 46.6806 81.045 38.0834 81.045C29.4863 81.045 21.3721 77.7607 15.2865 71.6751C4.17783 60.5664 4.17783 42.5027 15.2865 31.3941C25.236 21.4446 41.2711 21.4446 51.124 31.3941C59.9144 40.1844 59.9144 54.3842 51.124 63.1745C47.6465 66.652 43.0099 68.584 38.0834 68.584C33.157 68.584 28.5203 66.652 25.0428 63.1745C18.6674 56.7991 18.6674 46.4632 25.0428 40.0878C29.5829 35.5477 36.9243 35.5478 41.4643 39.9912C45.3282 43.8551 45.3282 50.2305 41.4643 54.191C39.5324 56.1229 36.4413 56.1229 34.6059 54.2876C33.157 52.8386 33.0604 50.4237 34.5093 48.9748L37.697 45.787L32.7706 40.8606L29.5829 44.0483C27.5543 46.0768 26.4918 48.7816 26.4918 51.5829C26.4918 54.3842 27.6509 57.0889 29.6795 59.1175C31.9012 61.3392 34.7991 62.4984 37.8902 62.4984H37.9868C41.0779 62.4984 44.0724 61.2426 46.2942 59.0209C52.9594 52.3557 52.9594 41.6334 46.2942 34.9682C39.0494 27.82 27.3611 27.82 20.1164 35.0648C11.0362 44.1449 11.0362 58.8277 20.1164 67.9078C24.9462 72.7377 31.3216 75.3458 38.0834 75.3458C44.8452 75.3458 51.3172 72.7377 56.0505 67.9078C61.5565 62.4018 64.6476 54.9638 64.6476 47.1394C64.6476 39.315 61.5565 31.8771 56.0505 26.371C43.4929 13.8134 23.0143 13.8134 10.36 26.371C-3.45335 40.1844 -3.45335 62.6916 10.36 76.6015C17.7014 83.9429 27.5543 88 37.9868 88C48.4193 88 58.1756 83.9429 65.6136 76.6015C73.5346 68.584 78.0746 58.0549 78.1712 46.8496C78.1712 46.753 78.1712 46.753 78.1712 46.6564V13.3304L85.899 21.0582L90.8255 16.1317L74.6937 0Z" fill="#3293FC"/>
</svg>
