<svg width="151" height="41" viewBox="0 0 151 41" fill="none" xmlns="http://www.w3.org/2000/svg">
<path d="M39.853 0.442261H0V40.2735H39.853V0.442261Z" fill="#ED1A3A"/>
<path d="M33.4169 4.41028C32.501 4.41028 31.8074 5.01756 31.4619 5.74734L26.4439 14.0041C26.0959 14.7677 25.842 15.6256 25.842 16.1935C25.842 16.7009 25.9116 17.1493 26.0977 17.5625L31.5258 30.523H10.4471C9.68831 30.523 9.06209 29.7613 9.06209 29.0581V6.73283C8.9026 3.68079 4.51365 3.68243 4.41699 6.82871L4.51288 30.523C4.51288 33.099 6.50543 35.1627 9.06209 35.1627H37.801L30.796 17.2482C30.6027 16.5813 30.5166 15.9764 30.9878 15.1814L35.6222 7.64906C35.6875 7.49199 35.782 6.82784 35.782 6.63694C35.6902 5.2692 34.6179 4.34987 33.4169 4.41028ZM22.0385 4.42093C20.9112 4.42849 19.7852 5.20681 19.7852 6.73283V22.7083C19.7852 25.0282 16.6636 24.8373 16.6636 22.7083V6.73283C16.6636 3.68079 12.1464 3.68079 12.1464 6.73283V22.8362C12.1464 26.5189 14.8978 28.9675 18.1818 28.9675C21.5553 28.9675 24.2971 26.5189 24.2971 22.8362V6.73283C24.2971 5.1766 23.1658 4.41338 22.0385 4.42093Z" fill="white"/>
<path d="M47.6614 5.12292V15.6613C47.6614 18.2953 47.3931 19.7597 45.2473 19.7597C44.8461 19.7597 44.5779 19.7597 44.1768 19.6147V24.1505C44.979 24.4453 45.5155 24.4453 46.1873 24.4453C52.2189 24.4453 52.4871 19.9071 52.4871 17.2707V9.66112H55.9717V24.1505H60.795V5.12292H47.6614Z" fill="black"/>
<path d="M62.4043 5.12292L68.9724 18.8825L66.5607 24.1505H71.7876L79.5615 5.12292H74.3346L71.5193 13.1723L68.1677 5.12292H62.4043Z" fill="black"/>
<path d="M81.0352 24.1505H85.8609V15.9537L90.8196 24.1505H96.9841L90.1502 14.3443L96.8512 5.12292H91.0878L85.8609 13.1723V5.12292H81.0352V24.1505Z" fill="black"/>
<path d="M104.893 24.7378C111.326 24.7378 114.274 19.7598 114.274 14.6368C114.274 9.66122 111.326 4.68323 104.893 4.68323C98.5936 4.68323 95.6455 9.66122 95.6455 14.6368C95.6455 19.7598 98.5936 24.7378 104.893 24.7378ZM104.893 20.1996C102.748 20.1996 100.604 18.2954 100.604 14.6368C100.604 10.9782 102.748 9.22142 104.893 9.22142C107.172 9.22142 109.316 10.9782 109.316 14.6368C109.316 18.2954 107.172 20.1996 104.893 20.1996Z" fill="black"/>
<path d="M116.688 5.12299V24.1505H121.379L128.08 12.735V24.1505H132.773V5.12299H128.08L121.379 16.541V5.12299H116.688ZM124.864 4.09839C126.874 4.09839 128.885 3.36619 129.825 1.16959L127.009 0C126.606 1.4644 125.4 1.60939 124.864 1.60939C124.462 1.60939 123.121 1.4644 122.853 0L120.04 1.16959C120.842 3.36619 122.988 4.09839 124.864 4.09839Z" fill="black"/>
<path d="M137.866 5.12292V15.6613C137.866 18.2953 137.595 19.7597 135.452 19.7597C135.051 19.7597 134.782 19.7597 134.379 19.6147V24.1505C135.184 24.4453 135.72 24.4453 136.389 24.4453C142.421 24.4453 142.689 19.9071 142.689 17.2707V9.66112H146.174V24.1505H151V5.12292H137.866Z" fill="black"/>
<path d="M44.2148 34.8291H44.8939V31.2986H48.8594V34.8291H49.5384V27.9082H48.8594V30.7428H44.8939V27.9082H44.2148V34.8291Z" fill="black"/>
<path d="M51.2666 34.8291H54.9856V34.2733H51.9456V31.2309H54.8648V30.6751H51.9456V28.4664H54.9856V27.9082H51.2666V34.8291Z" fill="black"/>
<path d="M59.4606 34.8291H60.1324V33.877H60.4151C62.6528 33.877 63.5783 32.5527 63.5783 31.1656C63.5783 29.5418 62.3773 28.4664 60.4151 28.4664H60.1324V27.6351H59.4606V28.4664H59.1875C57.2132 28.4664 56.0146 29.5418 56.0146 31.1656C56.0146 32.5527 56.9402 33.877 59.1875 33.877H59.4606V34.8291ZM60.1324 29.0222C62.3773 29.0512 62.8703 30.1 62.8703 31.1656C62.8703 32.8282 61.7659 33.2608 60.1324 33.3187V29.0222ZM59.4606 33.3187C57.827 33.2608 56.7227 32.8282 56.7227 31.1656C56.7227 30.1 57.2132 29.0512 59.4606 29.0222V33.3187Z" fill="black"/>
<path d="M66.0313 34.8291H66.6838V28.4664H68.5252V27.9082H64.1924V28.4664H66.0313V34.8291Z" fill="black"/>
<path d="M69.3273 34.8291H70.091L71.9323 31.7891H72.5171V34.8291H73.1986V27.9082H71.6013C69.5062 27.9082 69.2041 29.2977 69.2041 29.9115C69.2041 31.0811 70.12 31.7891 71.1977 31.7504L69.3273 34.8291ZM72.5171 31.2309H71.536C70.9802 31.2309 69.8759 31.1657 69.8759 29.8438C69.8759 28.5607 71.0455 28.4664 71.6013 28.4664H72.5171V31.2309Z" fill="black"/>
<path d="M74.9355 34.8291H75.6146V31.2986H79.5801V34.8291H80.2591V27.9082H79.5801V30.7428H75.6146V27.9082H74.9355V34.8291Z" fill="black"/>
<path d="M81.25 34.8291H81.9315L82.8836 32.5817H85.8003L86.7548 34.8291H87.4338L84.3286 27.7294L81.25 34.8291ZM83.13 32.0356L84.3286 29.2034L85.5562 32.0356H83.13Z" fill="black"/>
<path d="M88.219 34.8291H88.9826L90.8239 31.7891H91.4087V34.8291H92.0878V27.9082H90.4929C88.3978 27.9082 88.0957 29.2977 88.0957 29.9115C88.0957 31.0811 89.0116 31.7891 90.0869 31.7504L88.219 34.8291ZM91.4087 31.2309H90.4276C89.8694 31.2309 88.7651 31.1657 88.7651 29.8438C88.7651 28.5607 89.9371 28.4664 90.4929 28.4664H91.4087V31.2309Z" fill="black"/>
<path d="M96.1211 34.8291H96.8001V31.4774L99.9053 34.8291H100.792L97.4405 31.2599L100.737 27.9082H99.9053L96.8001 31.1367V27.9082H96.1211V34.8291Z" fill="black"/>
<path d="M105.173 35.0465C107.232 35.0465 108.921 33.5652 108.921 31.3831C108.921 29.2034 107.232 27.7294 105.173 27.7294C103.143 27.7294 101.454 29.2034 101.454 31.3831C101.454 33.5652 103.143 35.0465 105.173 35.0465ZM105.173 34.4617C103.484 34.4617 102.162 33.1955 102.162 31.3831C102.162 29.5707 103.484 28.2779 105.173 28.2779C106.865 28.2779 108.213 29.5707 108.213 31.3831C108.213 33.1955 106.865 34.4617 105.173 34.4617Z" fill="black"/>
<path d="M109.856 34.8291H110.509L111.149 29.7206L113.699 35.1408L116.219 29.7206L116.901 34.8291H117.512L116.56 27.6351L113.699 33.819L110.809 27.6351L109.856 34.8291Z" fill="black"/>
<path d="M118.788 27.9082V34.8291H119.467V28.4664H123.433V34.8291H124.112V27.9082H118.788Z" fill="black"/>
<path d="M125.104 34.8291H125.784L126.736 32.5817H129.655L130.607 34.8291H131.286L128.181 27.7294L125.104 34.8291ZM126.982 32.0356L128.181 29.2034L129.408 32.0356H126.982Z" fill="black"/>
<path d="M132.25 34.8291H132.929V31.2986H136.895V34.8291H137.576V27.9082H136.895V30.7428H132.929V27.9082H132.25V34.8291Z" fill="black"/>
<path d="M139.302 27.9082V35.1408L144.043 29.3533V34.8291H144.712V27.6351L139.983 33.384V27.9082H139.302Z" fill="black"/>
<path d="M146.242 34.8291H147.006L148.847 31.7891H149.432V34.8291H150.114V27.9082H148.519C146.421 27.9082 146.119 29.2977 146.119 29.9115C146.119 31.0811 147.035 31.7891 148.113 31.7504L146.242 34.8291ZM149.432 31.2309H148.451C147.895 31.2309 146.791 31.1657 146.791 29.8438C146.791 28.5607 147.961 28.4664 148.519 28.4664H149.432V31.2309Z" fill="black"/>
</svg>
