<svg width="513" height="432" viewBox="0 0 513 432" fill="none" xmlns="http://www.w3.org/2000/svg">
<mask id="mask0_929_6688" style="mask-type:luminance" maskUnits="userSpaceOnUse" x="3" y="6" width="500" height="418">
<path d="M502.878 6.77148H3.00098V423.182H502.878V6.77148Z" fill="white"/>
</mask>
<g mask="url(#mask0_929_6688)">
<path d="M258.531 357.046H252.589V203.779H296.022L294.537 334.739H305.198V357.046H273.301" fill="white"/>
<path d="M305.198 357.484H273.301C273.038 357.484 272.864 357.309 272.864 357.046C272.864 356.784 273.038 356.609 273.301 356.609H304.761V335.176H294.624C294.537 335.176 294.362 335.088 294.274 335.088C294.187 335.088 294.187 334.913 294.187 334.739L295.673 204.217H253.113V356.609H258.531C258.794 356.609 258.968 356.784 258.968 357.046C258.968 357.309 258.794 357.484 258.531 357.484H252.676C252.414 357.484 252.239 357.309 252.239 357.046V203.779C252.239 203.517 252.414 203.342 252.676 203.342H296.11C296.197 203.342 296.372 203.429 296.459 203.429C296.547 203.429 296.547 203.604 296.547 203.779L295.061 334.301H305.198C305.46 334.301 305.635 334.476 305.635 334.739V357.046C305.635 357.309 305.46 357.484 305.198 357.484Z" fill="#98C9FD"/>
</g>
<mask id="mask1_929_6688" style="mask-type:luminance" maskUnits="userSpaceOnUse" x="3" y="6" width="500" height="418">
<path d="M502.878 6.77148H3.00098V423.182H502.878V6.77148Z" fill="white"/>
</mask>
<g mask="url(#mask1_929_6688)">
<path d="M235.81 204.391H184.512V236.06H235.81V204.391Z" fill="white"/>
<path d="M236.248 236.585H184.075V204.042H236.248V236.585ZM184.949 235.71H235.374V204.916H184.949V235.71Z" fill="#98C9FD"/>
</g>
<mask id="mask2_929_6688" style="mask-type:luminance" maskUnits="userSpaceOnUse" x="3" y="6" width="500" height="418">
<path d="M502.878 6.77148H3.00098V423.182H502.878V6.77148Z" fill="white"/>
</mask>
<g mask="url(#mask2_929_6688)">
<path d="M235.81 244.371H184.512V276.039H235.81V244.371Z" fill="white"/>
<path d="M236.248 276.476H184.075V243.933H236.248V276.476ZM184.949 275.601H235.374V244.808H184.949V275.601Z" fill="#98C9FD"/>
</g>
<mask id="mask3_929_6688" style="mask-type:luminance" maskUnits="userSpaceOnUse" x="3" y="6" width="500" height="418">
<path d="M502.878 6.77148H3.00098V423.182H502.878V6.77148Z" fill="white"/>
</mask>
<g mask="url(#mask3_929_6688)">
<path d="M235.809 292.397H199.717V308.931H235.809V292.397Z" fill="white"/>
<path d="M236.247 309.281H199.28V291.96H236.247V309.281ZM200.154 308.406H235.373V292.835H200.154V308.406Z" fill="#98C9FD"/>
</g>
<mask id="mask4_929_6688" style="mask-type:luminance" maskUnits="userSpaceOnUse" x="3" y="6" width="500" height="418">
<path d="M502.878 6.77148H3.00098V423.182H502.878V6.77148Z" fill="white"/>
</mask>
<g mask="url(#mask4_929_6688)">
<path d="M235.81 329.927H162.314V355.384H235.81V329.927Z" fill="white"/>
<path d="M236.248 355.821H161.878V329.49H236.248V355.821ZM162.752 354.947H235.374V330.364H162.752V354.947Z" fill="#98C9FD"/>
</g>
<mask id="mask5_929_6688" style="mask-type:luminance" maskUnits="userSpaceOnUse" x="3" y="6" width="500" height="418">
<path d="M502.878 6.77148H3.00098V423.182H502.878V6.77148Z" fill="white"/>
</mask>
<g mask="url(#mask5_929_6688)">
<path d="M191.154 179.46H217.721V164.85H232.316V156.54H246.211V84.7175H213.264V111.574H191.154V179.46Z" fill="white"/>
<path d="M218.159 179.897H190.718V111.049H212.828V84.28H246.648V156.977H232.753V165.288H218.159V179.897ZM191.592 179.022H217.285V164.413H231.879V156.102H245.774V85.1548H213.702V111.924H191.592V179.022Z" fill="#98C9FD"/>
</g>
<mask id="mask6_929_6688" style="mask-type:luminance" maskUnits="userSpaceOnUse" x="0" y="-1" width="513" height="433">
<path d="M499.677 -0.000195905L0.0244141 15.828L13.1319 432L512.785 416.172L499.677 -0.000195905Z" fill="white"/>
</mask>
<g mask="url(#mask6_929_6688)">
<path d="M304.921 68.7374L266.835 69.9427L269.12 142.427L307.206 141.222L304.921 68.7374Z" fill="#3293FC"/>
</g>
<mask id="mask7_929_6688" style="mask-type:luminance" maskUnits="userSpaceOnUse" x="3" y="6" width="500" height="418">
<path d="M502.878 6.77148H3.00098V423.182H502.878V6.77148Z" fill="white"/>
</mask>
<g mask="url(#mask7_929_6688)">
<path d="M146.846 254.693H121.939V308.057H146.846V254.693Z" fill="white"/>
<path d="M147.284 308.494H121.504V254.256H147.284V308.494ZM122.378 307.619H146.41V255.131H122.378V307.619Z" fill="#98C9FD"/>
</g>
<mask id="mask8_929_6688" style="mask-type:luminance" maskUnits="userSpaceOnUse" x="3" y="6" width="500" height="418">
<path d="M502.878 6.77148H3.00098V423.182H502.878V6.77148Z" fill="white"/>
</mask>
<g mask="url(#mask8_929_6688)">
<path d="M116.623 243.328L-9.36816 236.135L-15.1909 338.324L110.8 345.518L116.623 243.328Z" fill="white"/>
<path d="M111.278 345.936L-15.6143 338.675V338.238L-9.75905 235.622L117.133 242.883V243.321L111.278 345.936ZM-14.653 337.888L110.491 345.061L116.259 243.758L-8.88514 236.585L-14.653 337.888Z" fill="#98C9FD"/>
</g>
<mask id="mask9_929_6688" style="mask-type:luminance" maskUnits="userSpaceOnUse" x="3" y="6" width="500" height="418">
<path d="M502.878 6.77148H3.00098V423.182H502.878V6.77148Z" fill="white"/>
</mask>
<g mask="url(#mask9_929_6688)">
<path d="M168.302 168.938L136.446 157.566L121.446 199.672L153.301 211.044L168.302 168.938Z" fill="white"/>
<path d="M153.575 211.565L120.891 199.93L121.065 199.493L136.184 156.977L168.868 168.612L168.694 169.049L153.575 211.565ZM122.027 199.405L153.051 210.515L167.732 169.224L136.708 158.114L122.027 199.405Z" fill="#98C9FD"/>
</g>
<mask id="mask10_929_6688" style="mask-type:luminance" maskUnits="userSpaceOnUse" x="3" y="6" width="500" height="418">
<path d="M502.878 6.77148H3.00098V423.182H502.878V6.77148Z" fill="white"/>
</mask>
<g mask="url(#mask10_929_6688)">
<path d="M98.6063 184.271H-5.12695V207.453H98.6063V184.271Z" fill="white"/>
<path d="M99.0437 207.891H-5.56348V183.833H99.0437V207.891ZM-4.68957 207.016H98.1698V184.708H-4.68957V207.016Z" fill="#98C9FD"/>
</g>
<mask id="mask11_929_6688" style="mask-type:luminance" maskUnits="userSpaceOnUse" x="3" y="6" width="500" height="418">
<path d="M502.878 6.77148H3.00098V423.182H502.878V6.77148Z" fill="white"/>
</mask>
<g mask="url(#mask11_929_6688)">
<path d="M98.6063 137.818H-5.12695V167.562H98.6063V137.818Z" fill="white"/>
<path d="M99.0437 167.999H-5.56348V137.381H99.0437V167.999ZM-4.68957 167.124H98.1698V138.256H-4.68957V167.124Z" fill="#98C9FD"/>
</g>
<mask id="mask12_929_6688" style="mask-type:luminance" maskUnits="userSpaceOnUse" x="3" y="6" width="500" height="418">
<path d="M502.878 6.77148H3.00098V423.182H502.878V6.77148Z" fill="white"/>
</mask>
<g mask="url(#mask12_929_6688)">
<path d="M164.587 110.612L151.129 100.989L213.264 11.6705L226.722 21.206L164.587 110.612Z" fill="white"/>
<path d="M164.674 111.224L150.517 101.164L150.779 100.814L213.176 11.0581L227.333 21.1184L164.674 111.224ZM151.74 100.901L164.499 109.912L226.11 21.2934L213.351 12.2828L151.74 100.901Z" fill="#98C9FD"/>
</g>
<mask id="mask13_929_6688" style="mask-type:luminance" maskUnits="userSpaceOnUse" x="3" y="6" width="500" height="418">
<path d="M502.878 6.77148H3.00098V423.182H502.878V6.77148Z" fill="white"/>
</mask>
<g mask="url(#mask13_929_6688)">
<path d="M384.726 400.787L384.638 400.524C383.065 393.613 380.531 385.827 373.015 380.316C366.373 375.417 357.023 373.143 343.39 373.143L323.027 372.268L324.164 326.165C324.164 325.903 324.164 325.553 324.164 325.29C323.639 319.779 309.831 191.182 309.045 184.883C307.647 173.248 299.432 166.075 287.634 166.075H265.262C264.738 150.416 263.077 102.563 262.203 74.2196C261.766 60.3101 260.805 54.2739 260.106 49.3749L260.018 48.9375C259.931 48.4126 259.844 47.9752 259.844 47.4503C258.62 38.8772 253.464 32.666 245.948 30.654C237.734 28.4669 228.732 32.0537 222.528 40.1019C222.44 40.1894 222.44 40.1894 222.353 40.2769L183.027 95.565C182.939 95.7399 182.852 95.8274 182.765 96.0024C172.19 114.286 171.928 129.508 172.54 144.729C173.064 158.027 173.326 185.146 173.414 191.532L160.917 222.413L-10.5445 215.414L-10.9814 226.787L158.994 233.698L158.47 314.53L169.831 314.618L170.443 229.411L182.939 198.355L211.779 198.88C223.926 199.668 232.927 195.993 240.093 187.333C240.705 186.545 241.404 185.758 242.016 184.971C245.599 180.422 247.871 177.447 254.425 177.447H287.634C293.839 177.447 297.072 180.247 297.771 186.195C298.645 193.194 312.104 318.467 312.803 325.99L311.667 371.83L-6.96145 359.758L-7.57319 379.004L343.04 392.389H343.302C361.742 392.389 362.441 395.625 364.014 403.499C364.189 404.286 364.363 405.073 364.538 405.861L367.859 423.269L388.046 422.395L384.726 400.787ZM231.529 46.9255C234.85 42.6389 239.307 40.6268 242.977 41.5891C245.948 42.3764 247.958 45.0009 248.483 49.025C248.57 49.5499 248.658 50.0748 248.745 50.6872L248.832 50.9496C249.531 55.7611 250.405 61.2724 250.842 74.5695C251.804 102.651 253.377 149.978 253.901 166.075C242.191 166.25 236.86 172.986 232.927 178.06C232.403 178.76 231.878 179.459 231.267 180.159C226.46 185.933 220.78 188.208 212.303 187.595C212.215 187.595 212.128 187.595 212.041 187.595L184.687 187.158C184.6 176.66 184.338 155.752 183.901 144.379C183.376 130.382 183.639 117.523 192.465 101.951L231.529 46.9255Z" fill="#D6E9FE"/>
</g>
<mask id="mask14_929_6688" style="mask-type:luminance" maskUnits="userSpaceOnUse" x="3" y="6" width="500" height="418">
<path d="M502.878 6.77148H3.00098V423.182H502.878V6.77148Z" fill="white"/>
</mask>
<g mask="url(#mask14_929_6688)">
<path d="M64.1741 377.604C63.912 377.604 63.6498 377.517 63.475 377.429C63.2128 377.342 63.0381 377.167 62.8633 376.992L63.2128 376.467C63.3876 376.642 63.475 376.729 63.6498 376.817C63.8246 376.904 63.9994 376.904 64.1741 376.904C64.4363 376.904 64.6111 376.817 64.7859 376.729C64.9607 376.642 65.1354 376.379 65.3102 376.029L65.6598 375.242L65.7472 375.155L68.1941 370.081H68.8933L65.922 376.117C65.7472 376.467 65.5724 376.729 65.3976 376.992C65.2228 377.167 64.9607 377.342 64.7859 377.429C64.6985 377.604 64.4363 377.604 64.1741 377.604ZM65.6598 375.767L63.3002 369.993H64.0868L66.1841 375.155L65.6598 375.767Z" fill="#1B1A1A"/>
<path d="M68.7178 375.679L68.8052 375.067C68.8926 375.067 68.8926 375.067 68.9799 375.067C69.0673 375.067 69.0673 375.067 69.0673 375.067C69.3295 375.067 69.5043 374.98 69.5917 374.805C69.7665 374.63 69.8539 374.455 69.9413 374.105C70.0286 373.842 70.116 373.492 70.116 373.142C70.116 372.793 70.2034 372.443 70.2034 372.093L70.3782 370.168L74.3982 370.343L74.2234 375.854H73.4369L73.6117 370.78L73.7865 371.043L70.8152 370.955L70.9899 370.693L70.8152 372.268C70.8152 372.705 70.7278 373.23 70.6404 373.667C70.553 374.105 70.4656 374.455 70.3782 374.805C70.2908 375.155 70.116 375.417 69.9413 375.592C69.7665 375.767 69.5043 375.854 69.2421 375.854C69.1547 375.854 69.0673 375.854 68.9799 375.854C68.8926 375.767 68.8052 375.679 68.7178 375.679Z" fill="#1B1A1A"/>
<path d="M76.4083 376.03C76.2335 376.03 76.1461 375.942 76.0586 375.855C75.9712 375.767 75.8838 375.592 75.8838 375.417C75.8838 375.242 75.9712 375.155 76.0586 374.98C76.1461 374.892 76.3209 374.805 76.4958 374.805C76.6706 374.805 76.758 374.892 76.8455 374.98C76.9329 375.067 77.0203 375.242 77.0203 375.417C77.0203 375.592 76.9329 375.68 76.8455 375.855C76.6706 375.942 76.5832 376.03 76.4083 376.03Z" fill="#1B1A1A"/>
<path d="M84.7109 376.292C84.1866 376.292 83.6622 376.204 83.2253 375.942C82.7883 375.767 82.3514 375.504 82.0018 375.155C81.6523 374.805 81.3901 374.367 81.2153 373.93C81.0405 373.492 80.9531 372.968 80.9531 372.443C80.9531 371.918 81.0405 371.393 81.3027 370.955C81.4775 370.518 81.827 370.081 82.1766 369.818C82.5262 369.468 82.9631 369.206 83.4001 369.118C83.837 368.943 84.3614 368.856 84.9731 368.856C85.4975 368.856 86.0218 368.943 86.4588 369.206C86.8957 369.381 87.3327 369.643 87.5948 370.081L87.0705 370.518C86.8083 370.168 86.4588 369.993 86.1092 369.818C85.7596 369.643 85.3227 369.556 84.9731 369.556C84.5362 369.556 84.0992 369.643 83.7496 369.731C83.4001 369.906 83.0505 370.081 82.7009 370.343C82.4388 370.606 82.1766 370.955 82.0018 371.305C81.827 371.655 81.7396 372.093 81.7396 372.53C81.7396 372.968 81.827 373.405 81.9144 373.755C82.0892 374.105 82.264 374.455 82.5262 374.717C82.7883 374.98 83.1379 375.242 83.4875 375.417C83.837 375.592 84.274 375.679 84.7109 375.679C85.1479 375.679 85.4975 375.679 85.9344 375.504C86.284 375.417 86.6335 375.155 86.9831 374.892L87.4201 375.417C87.0705 375.767 86.7209 376.029 86.1966 376.204C85.7596 376.204 85.2353 376.292 84.7109 376.292Z" fill="#1B1A1A"/>
<path d="M91.0026 376.467C90.3908 376.467 89.9539 376.292 89.5169 376.029C89.08 375.767 88.7304 375.417 88.5556 374.98C88.3808 374.542 88.2061 374.017 88.2061 373.492C88.2061 372.968 88.3808 372.443 88.643 372.093C88.9052 371.655 89.2547 371.393 89.6043 371.13C90.0413 370.868 90.4782 370.781 91.0026 370.781C91.5269 370.781 91.9639 370.956 92.4008 371.218C92.8378 371.48 93.1 371.83 93.2747 372.268C93.4495 372.705 93.6243 373.23 93.5369 373.755V373.842V373.93L88.7304 373.755V373.23L93.1 373.405L92.8378 373.58C92.8378 373.143 92.7504 372.793 92.5756 372.53C92.4008 372.18 92.226 372.005 91.8765 371.743C91.6143 371.568 91.2647 371.48 90.8278 371.48C90.4782 371.48 90.1287 371.568 89.7791 371.743C89.5169 371.918 89.2547 372.18 89.08 372.443C88.9052 372.793 88.8178 373.143 88.8178 373.492V373.58C88.8178 374.017 88.9052 374.367 89.08 374.717C89.2547 375.067 89.5169 375.33 89.8665 375.505C90.216 375.68 90.5656 375.767 91.0026 375.767C91.3521 375.767 91.6143 375.767 91.9639 375.592C92.226 375.505 92.4882 375.33 92.7504 375.067L93.1873 375.592C92.9252 375.854 92.663 376.117 92.226 376.204C91.7891 376.467 91.4395 376.467 91.0026 376.467Z" fill="#1B1A1A"/>
<path d="M95.1113 376.554L95.2861 371.043L97.7331 371.13C98.3448 371.13 98.8691 371.305 99.2187 371.568C99.5683 371.83 99.7431 372.18 99.7431 372.618C99.7431 373.055 99.5683 373.405 99.2187 373.667C98.8691 373.93 98.4322 374.017 97.8205 374.017L97.9952 373.842C98.6944 373.842 99.1313 374.017 99.3935 374.28C99.6557 374.542 99.8305 374.892 99.8305 375.329C99.8305 375.767 99.6557 376.204 99.3061 376.379C98.9565 376.642 98.4322 376.729 97.6457 376.729L95.1113 376.554ZM95.8105 376.029L97.5583 376.117C97.9952 376.117 98.3448 376.029 98.607 375.942C98.8691 375.767 98.9565 375.592 98.9565 375.242C98.9565 374.892 98.8692 374.63 98.6944 374.455C98.5196 374.28 98.17 374.192 97.6457 374.192L95.8105 374.105V376.029ZM95.8978 373.492L97.5583 373.58C97.9952 373.58 98.3448 373.492 98.5196 373.405C98.7818 373.23 98.8691 373.055 98.8691 372.705C98.8691 372.355 98.7818 372.18 98.5196 372.005C98.2574 371.83 97.9952 371.743 97.5583 371.743L95.8978 371.655V373.492Z" fill="#1B1A1A"/>
<path d="M103.849 376.904C103.238 376.904 102.801 376.729 102.364 376.467C101.927 376.204 101.577 375.854 101.402 375.417C101.14 374.98 101.053 374.455 101.053 373.93C101.053 373.405 101.228 372.88 101.49 372.53C101.752 372.093 102.101 371.83 102.451 371.568C102.888 371.305 103.325 371.218 103.849 371.218C104.374 371.218 104.811 371.393 105.248 371.655C105.684 371.918 105.947 372.268 106.121 372.705C106.296 373.142 106.471 373.667 106.384 374.192V374.28V374.367L101.577 374.192V373.667L105.947 373.842L105.684 374.017C105.684 373.58 105.597 373.23 105.422 372.967C105.248 372.618 105.073 372.443 104.723 372.18C104.461 372.005 104.111 371.918 103.674 371.918C103.325 371.918 102.975 372.005 102.626 372.18C102.276 372.355 102.101 372.618 101.927 372.88C101.752 373.23 101.664 373.58 101.664 373.93V374.017C101.664 374.455 101.752 374.805 101.927 375.154C102.101 375.504 102.364 375.767 102.713 375.942C103.063 376.117 103.412 376.204 103.849 376.204C104.199 376.204 104.461 376.204 104.811 376.029C105.073 375.942 105.335 375.767 105.597 375.504L106.034 376.029C105.772 376.292 105.51 376.554 105.073 376.642C104.636 376.904 104.286 376.904 103.849 376.904Z" fill="#1B1A1A"/>
<path d="M107.869 379.004L108.131 371.48H108.83L108.743 373.142L108.656 374.28L108.743 375.417L108.656 379.091L107.869 379.004ZM110.753 377.167C110.316 377.167 109.879 376.992 109.442 376.817C109.093 376.554 108.743 376.292 108.568 375.854C108.393 375.417 108.219 374.892 108.306 374.28C108.393 373.667 108.481 373.142 108.656 372.793C108.83 372.443 109.18 372.093 109.617 371.83C109.967 371.655 110.403 371.568 110.928 371.568C111.452 371.568 111.889 371.743 112.326 372.005C112.763 372.268 113.025 372.618 113.287 373.055C113.55 373.492 113.637 374.017 113.637 374.542C113.637 375.067 113.462 375.592 113.2 376.029C112.938 376.467 112.588 376.729 112.151 376.992C111.802 377.079 111.277 377.167 110.753 377.167ZM110.753 376.467C111.103 376.467 111.452 376.379 111.802 376.204C112.151 376.029 112.326 375.767 112.588 375.504C112.763 375.155 112.85 374.805 112.938 374.367C112.938 373.93 112.85 373.58 112.676 373.23C112.501 372.88 112.239 372.618 111.977 372.443C111.714 372.268 111.365 372.18 110.928 372.093C110.578 372.093 110.141 372.18 109.879 372.355C109.53 372.53 109.267 372.793 109.093 373.055C108.918 373.405 108.83 373.755 108.83 374.192C108.83 374.63 108.918 374.98 109.093 375.33C109.267 375.679 109.53 375.942 109.792 376.117C109.967 376.379 110.316 376.467 110.753 376.467Z" fill="#1B1A1A"/>
<path d="M115.124 377.254L115.299 371.743H116.085L115.998 374.192L119.494 374.28L119.581 371.83H120.367L120.193 377.341H119.406L119.494 374.892L115.998 374.805L115.911 377.254H115.124Z" fill="#1B1A1A"/>
<path d="M123.687 377.604C123.25 377.604 122.901 377.517 122.639 377.342C122.376 377.167 122.114 376.992 121.94 376.729C121.765 376.467 121.677 376.204 121.765 375.854C121.765 375.592 121.852 375.33 122.027 375.067C122.202 374.805 122.376 374.63 122.726 374.542C123.076 374.367 123.425 374.367 123.95 374.367L125.872 374.455V374.98L124.037 374.892C123.513 374.892 123.163 374.98 122.901 375.155C122.726 375.33 122.551 375.592 122.551 375.854C122.551 376.204 122.639 376.467 122.901 376.642C123.163 376.817 123.513 376.904 123.95 376.992C124.386 376.992 124.736 376.904 125.086 376.729C125.435 376.554 125.61 376.292 125.785 375.942L125.96 376.467C125.785 376.817 125.523 377.079 125.173 377.342C124.649 377.517 124.212 377.604 123.687 377.604ZM125.61 377.604V376.379V376.204L125.697 374.192C125.697 373.755 125.61 373.317 125.348 373.143C125.086 372.88 124.736 372.705 124.212 372.705C123.862 372.705 123.513 372.705 123.163 372.88C122.813 372.968 122.551 373.143 122.289 373.318L121.94 372.793C122.202 372.53 122.551 372.355 122.988 372.268C123.425 372.18 123.775 372.093 124.212 372.093C124.911 372.093 125.435 372.268 125.872 372.705C126.222 373.055 126.396 373.58 126.396 374.367L126.309 377.779L125.61 377.604Z" fill="#1B1A1A"/>
<path d="M127.795 377.692L129.368 375.592H130.154L128.581 377.692H127.795ZM131.902 377.779L131.99 375.767L132.077 375.942L130.242 375.854C129.543 375.854 129.018 375.679 128.581 375.33C128.232 374.98 127.97 374.542 128.057 373.93C128.057 373.318 128.319 372.88 128.756 372.53C129.193 372.268 129.805 372.093 130.504 372.093L132.864 372.18L132.689 377.692L131.902 377.779ZM131.902 375.592L131.99 372.705L132.077 372.968L130.329 372.88C129.805 372.88 129.455 372.968 129.106 373.143C128.844 373.317 128.669 373.667 128.669 374.105C128.669 374.892 129.106 375.33 130.154 375.417L131.99 375.505L131.902 375.592Z" fill="#1B1A1A"/>
</g>
<mask id="mask15_929_6688" style="mask-type:luminance" maskUnits="userSpaceOnUse" x="3" y="6" width="500" height="418">
<path d="M502.878 6.77148H3.00098V423.182H502.878V6.77148Z" fill="white"/>
</mask>
<g mask="url(#mask15_929_6688)">
<path d="M266.747 276.126L266.922 270.265L267.184 270.527L265.437 270.44V269.915L267.534 270.002L267.359 276.126H266.747Z" fill="#1B1A1A"/>
<path d="M268.757 274.551V274.114L272.165 270.177H272.864L269.543 274.114L269.194 274.027L274.088 274.202V274.726L268.757 274.551ZM272.165 276.301L272.252 274.726V274.202L272.34 272.802H272.952L272.864 276.389L272.165 276.301Z" fill="#1B1A1A"/>
<path d="M277.496 276.476L277.671 270.352H278.283L278.108 276.476H277.496ZM278.02 273.677V273.064L279.943 273.152V273.764L278.02 273.677ZM279.943 273.589L279.331 273.502L281.691 270.527H282.39L279.943 273.589ZM281.691 276.651L279.419 273.502L279.943 273.239L282.39 276.651H281.691Z" fill="#1B1A1A"/>
</g>
<mask id="mask16_929_6688" style="mask-type:luminance" maskUnits="userSpaceOnUse" x="3" y="6" width="500" height="418">
<path d="M502.878 6.77148H3.00098V423.182H502.878V6.77148Z" fill="white"/>
</mask>
<g mask="url(#mask16_929_6688)">
<path d="M326.785 350.398V344.886H327.31V350.398H326.785ZM327.135 347.861V347.336H328.883V347.861H327.135ZM328.883 347.686L328.358 347.598L330.368 344.886H330.98L328.883 347.686ZM330.543 350.398L328.446 347.686L328.883 347.423L331.155 350.485H330.543V350.398Z" fill="#1B1A1A"/>
<path d="M332.115 350.398V344.886H336.747V350.398H336.135V345.236L336.31 345.411H332.552L332.727 345.236V350.398H332.115Z" fill="#1B1A1A"/>
<path d="M338.582 350.398V344.886H343.214V350.398H342.602V345.236L342.777 345.411H339.019L339.194 345.236V350.398H338.582Z" fill="#1B1A1A"/>
<path d="M348.108 350.398C347.758 350.398 347.496 350.31 347.321 350.223C347.059 350.135 346.884 349.96 346.797 349.785C346.709 349.61 346.622 349.435 346.622 349.173C346.622 348.998 346.709 348.736 346.797 348.561C346.884 348.386 347.059 348.211 347.321 348.123C347.583 348.036 347.846 347.948 348.282 347.948H349.681V348.386H348.282C347.846 348.386 347.583 348.473 347.496 348.561C347.321 348.736 347.234 348.911 347.234 349.086C347.234 349.348 347.321 349.523 347.496 349.61C347.671 349.698 347.933 349.785 348.282 349.785C348.632 349.785 348.894 349.698 349.069 349.61C349.331 349.435 349.506 349.26 349.593 348.998L349.681 349.348C349.593 349.61 349.419 349.873 349.156 349.96C348.894 350.31 348.545 350.398 348.108 350.398ZM349.593 350.398V349.523V349.348V347.861C349.593 347.511 349.506 347.248 349.331 347.073C349.156 346.898 348.807 346.811 348.457 346.811C348.195 346.811 347.933 346.898 347.671 346.986C347.409 347.073 347.234 347.161 347.059 347.336L346.797 346.898C346.972 346.724 347.234 346.549 347.583 346.461C347.933 346.374 348.195 346.286 348.545 346.286C349.069 346.286 349.506 346.461 349.768 346.724C350.03 346.986 350.205 347.423 350.205 347.948V350.485H349.593V350.398Z" fill="#1B1A1A"/>
<path d="M351.604 350.398V346.199H353.44C353.877 346.199 354.314 346.286 354.576 346.461C354.838 346.636 355.013 346.898 355.013 347.248C355.013 347.598 354.925 347.861 354.663 348.036C354.401 348.211 354.051 348.298 353.614 348.298L353.702 348.123C354.226 348.123 354.576 348.211 354.751 348.386C355.013 348.561 355.1 348.823 355.1 349.173C355.1 349.523 355.013 349.785 354.751 349.96C354.488 350.135 354.051 350.223 353.527 350.223H351.604V350.398ZM352.129 348.036H353.352C353.702 348.036 353.877 347.948 354.051 347.861C354.226 347.773 354.314 347.598 354.314 347.336C354.314 347.073 354.226 346.898 354.051 346.811C353.877 346.723 353.614 346.636 353.352 346.636H352.129V348.036ZM352.129 349.96H353.44C353.789 349.96 354.051 349.873 354.226 349.785C354.401 349.698 354.488 349.523 354.488 349.26C354.488 348.998 354.401 348.823 354.226 348.735C354.051 348.648 353.789 348.561 353.44 348.561H352.041V349.96H352.129Z" fill="#1B1A1A"/>
<path d="M357.11 350.398V346.636L357.285 346.811H355.537V346.199H359.208V346.723H357.46L357.634 346.548V350.31H357.11V350.398Z" fill="#1B1A1A"/>
<path d="M361.567 350.398C361.13 350.398 360.781 350.31 360.518 350.135C360.256 349.96 359.994 349.698 359.732 349.348C359.47 348.998 359.47 348.648 359.47 348.298C359.47 347.861 359.557 347.511 359.732 347.161C359.907 346.811 360.169 346.636 360.518 346.461C360.868 346.286 361.218 346.199 361.567 346.199C362.004 346.199 362.354 346.286 362.616 346.461C362.965 346.636 363.14 346.898 363.402 347.161C363.577 347.511 363.664 347.861 363.664 348.211C363.664 348.648 363.577 348.998 363.402 349.26C363.228 349.61 362.965 349.785 362.616 350.048C362.266 350.31 362.004 350.398 361.567 350.398ZM361.567 349.873C361.829 349.873 362.091 349.785 362.354 349.698C362.616 349.523 362.791 349.348 362.878 349.173C363.053 348.91 363.053 348.648 363.053 348.298C363.053 347.948 362.965 347.686 362.878 347.423C362.703 347.161 362.528 346.986 362.354 346.898C362.091 346.723 361.829 346.723 361.567 346.723C361.305 346.723 361.043 346.811 360.781 346.898C360.518 346.986 360.344 347.248 360.256 347.423C360.169 347.598 360.081 347.948 360.081 348.298C360.081 348.648 360.169 348.91 360.256 349.173C360.344 349.435 360.606 349.61 360.781 349.698C361.043 349.873 361.305 349.873 361.567 349.873Z" fill="#1B1A1A"/>
</g>
<mask id="mask17_929_6688" style="mask-type:luminance" maskUnits="userSpaceOnUse" x="3" y="6" width="500" height="418">
<path d="M502.878 6.77148H3.00098V423.182H502.878V6.77148Z" fill="white"/>
</mask>
<g mask="url(#mask17_929_6688)">
<path d="M236.686 366.669V361.158H237.21V366.669H236.686ZM237.123 364.132V363.607H238.87V364.132H237.123ZM238.87 363.957L238.346 363.87L240.356 361.158H240.968L238.87 363.957ZM240.531 366.669L238.433 363.957L238.87 363.695L241.142 366.757H240.531V366.669Z" fill="#1B1A1A"/>
<path d="M242.016 366.669V361.158H246.647V366.669H246.036V361.508L246.21 361.683H242.453L242.627 361.508V366.669H242.016Z" fill="#1B1A1A"/>
<path d="M248.571 366.669V361.158H253.203V366.669H252.591V361.508L252.766 361.683H249.008L249.183 361.508V366.669H248.571Z" fill="#1B1A1A"/>
<path d="M256.961 366.669V362.558H260.631V366.669H260.107V362.82L260.282 362.995H257.398L257.573 362.82V366.582H256.961V366.669Z" fill="#1B1A1A"/>
<path d="M264.039 366.669C263.602 366.669 263.253 366.582 262.903 366.407C262.554 366.232 262.291 365.969 262.117 365.619C261.942 365.269 261.854 364.919 261.854 364.57C261.854 364.22 261.942 363.782 262.117 363.52C262.291 363.17 262.554 362.995 262.816 362.732C263.165 362.558 263.428 362.47 263.864 362.47C264.214 362.47 264.564 362.558 264.913 362.732C265.263 362.907 265.438 363.17 265.612 363.432C265.787 363.782 265.874 364.132 265.874 364.57V364.657V364.745H262.291V364.307H265.612L265.35 364.482C265.35 364.22 265.263 363.957 265.175 363.695C265.088 363.432 264.913 363.257 264.651 363.17C264.389 363.082 264.214 362.995 263.864 362.995C263.602 362.995 263.34 363.082 263.078 363.17C262.816 363.345 262.641 363.52 262.554 363.695C262.466 363.957 262.379 364.22 262.379 364.482V364.57C262.379 364.919 262.466 365.182 262.554 365.357C262.728 365.619 262.903 365.794 263.165 365.882C263.428 366.057 263.69 366.057 264.039 366.057C264.301 366.057 264.564 365.969 264.738 365.882C264.913 365.794 265.175 365.619 265.263 365.444L265.612 365.794C265.438 366.057 265.175 366.144 264.913 366.319C264.651 366.669 264.389 366.669 264.039 366.669Z" fill="#1B1A1A"/>
<path d="M269.807 366.144L269.72 366.319V362.558H270.244V366.319L270.069 366.144H272.342L272.167 366.319V362.558H272.691V366.669H267.011V362.558H267.535V366.319L267.36 366.144H269.807Z" fill="#1B1A1A"/>
<path d="M276.186 366.669C275.749 366.669 275.399 366.582 275.05 366.407C274.7 366.232 274.438 365.969 274.263 365.619C274.088 365.269 274.001 364.919 274.001 364.57C274.001 364.22 274.088 363.782 274.263 363.52C274.438 363.17 274.7 362.995 274.962 362.732C275.312 362.558 275.574 362.47 276.011 362.47C276.361 362.47 276.71 362.558 277.06 362.732C277.409 362.907 277.584 363.17 277.759 363.432C277.934 363.782 278.021 364.132 278.021 364.57V364.657V364.745H274.438V364.307H277.759L277.497 364.482C277.497 364.22 277.409 363.957 277.322 363.695C277.234 363.432 277.06 363.257 276.798 363.17C276.535 363.082 276.361 362.995 276.011 362.995C275.749 362.995 275.487 363.082 275.224 363.17C274.962 363.345 274.788 363.52 274.7 363.695C274.613 363.957 274.525 364.22 274.525 364.482V364.57C274.525 364.919 274.613 365.182 274.7 365.357C274.875 365.619 275.05 365.794 275.312 365.882C275.574 366.057 275.836 366.057 276.186 366.057C276.448 366.057 276.71 365.969 276.885 365.882C277.06 365.794 277.322 365.619 277.409 365.444L277.759 365.794C277.584 366.057 277.322 366.144 277.06 366.319C276.797 366.669 276.535 366.669 276.186 366.669Z" fill="#1B1A1A"/>
<path d="M278.458 366.669L280.206 364.395V364.657L278.545 362.558H279.157L280.555 364.307H280.293L281.691 362.558H282.303L280.643 364.745V364.482L282.391 366.757H281.779L280.381 364.832H280.643L279.245 366.669H278.458Z" fill="#1B1A1A"/>
<path d="M284.837 366.669C284.4 366.669 284.05 366.582 283.788 366.407C283.526 366.232 283.264 365.969 283.001 365.619C282.739 365.269 282.739 364.919 282.739 364.57C282.739 364.132 282.827 363.782 283.001 363.432C283.176 363.082 283.438 362.907 283.788 362.732C284.138 362.558 284.487 362.47 284.837 362.47C285.274 362.47 285.623 362.558 285.885 362.732C286.235 362.907 286.41 363.17 286.672 363.432C286.847 363.782 286.934 364.132 286.934 364.482C286.934 364.919 286.847 365.269 286.672 365.532C286.497 365.882 286.235 366.057 285.885 366.319C285.536 366.582 285.274 366.669 284.837 366.669ZM284.837 366.232C285.099 366.232 285.361 366.144 285.623 366.057C285.885 365.882 286.06 365.707 286.148 365.532C286.322 365.269 286.322 365.007 286.322 364.657C286.322 364.307 286.235 364.045 286.148 363.782C285.973 363.52 285.798 363.345 285.623 363.257C285.361 363.082 285.099 363.082 284.837 363.082C284.574 363.082 284.312 363.17 284.05 363.257C283.788 363.345 283.613 363.607 283.526 363.782C283.438 363.957 283.351 364.307 283.351 364.657C283.351 365.007 283.438 365.269 283.526 365.532C283.613 365.794 283.875 365.969 284.05 366.057C284.312 366.144 284.574 366.232 284.837 366.232Z" fill="#1B1A1A"/>
<path d="M287.373 367.631V366.144H292.092V367.631H291.568V366.669H287.897V367.631H287.373ZM290.956 366.407V362.995H288.946L288.859 363.957C288.859 364.22 288.859 364.482 288.771 364.745C288.771 365.007 288.684 365.269 288.684 365.444C288.597 365.707 288.509 365.882 288.422 365.969C288.334 366.144 288.16 366.232 288.072 366.232L287.548 366.144C287.723 366.144 287.81 366.057 287.985 365.969C288.072 365.882 288.16 365.707 288.247 365.444C288.334 365.269 288.334 365.007 288.334 364.745C288.334 364.482 288.422 364.22 288.422 363.87L288.509 362.47H291.568V366.319H290.956V366.407Z" fill="#1B1A1A"/>
</g>
<mask id="mask18_929_6688" style="mask-type:luminance" maskUnits="userSpaceOnUse" x="3" y="6" width="500" height="418">
<path d="M502.878 6.77148H3.00098V423.182H502.878V6.77148Z" fill="white"/>
</mask>
<g mask="url(#mask18_929_6688)">
<path d="M319.53 91.5409V82.9678H324.949V83.7551H320.142L320.404 83.4927V91.5409H319.53Z" fill="#1B1A1A"/>
<path d="M326.522 91.5409V82.9678H327.396V91.5409H326.522ZM327.134 87.6043V86.8169H329.843V87.6043H327.134ZM329.931 87.3418L329.057 87.1669L332.29 82.9678H333.252L329.931 87.3418ZM332.378 91.5409L329.057 87.2544L329.756 86.8169L333.339 91.5409H332.378Z" fill="#1B1A1A"/>
<path d="M339.281 90.5786L337.533 88.304L339.281 86.0295H340.068L338.32 88.304L340.068 90.5786H339.281ZM341.466 90.5786L339.718 88.304L341.466 86.0295H342.252L340.504 88.304L342.252 90.5786H341.466Z" fill="#1B1A1A"/>
<path d="M344.174 91.5409V82.9678H349.592V83.7551H344.786L345.048 83.4927V91.5409H344.174Z" fill="#1B1A1A"/>
<path d="M351.864 91.541C351.165 91.541 350.641 91.366 350.116 91.1036C349.592 90.8411 349.243 90.4037 348.893 89.9663C348.631 89.4414 348.456 88.9166 348.456 88.3042C348.456 87.6918 348.631 87.0795 348.893 86.642C349.155 86.1172 349.505 85.7672 350.029 85.5048C350.466 85.2423 351.078 85.0674 351.602 85.0674C352.214 85.0674 352.738 85.2423 353.175 85.5048C353.612 85.7672 354.049 86.2046 354.311 86.642C354.573 87.1669 354.748 87.6918 354.748 88.3917V88.4791C354.748 88.5666 354.748 88.5666 354.748 88.6541H349.155V88.0417H354.311L353.962 88.3042C353.962 87.8668 353.874 87.4294 353.7 87.0795C353.525 86.7295 353.263 86.4671 352.913 86.2046C352.563 86.0297 352.214 85.8547 351.69 85.8547C351.253 85.8547 350.816 85.9422 350.466 86.2046C350.116 86.3796 349.854 86.7295 349.68 87.0795C349.505 87.4294 349.417 87.8668 349.417 88.3042V88.4791C349.417 89.004 349.505 89.4414 349.767 89.7914C350.029 90.1413 350.291 90.4912 350.641 90.6662C350.99 90.8411 351.427 91.0161 351.952 91.0161C352.301 91.0161 352.738 90.9286 353.088 90.8411C353.437 90.6662 353.7 90.4912 353.962 90.2288L354.486 90.7537C354.224 91.1036 353.874 91.366 353.437 91.541C352.826 91.4535 352.301 91.541 351.864 91.541Z" fill="#1B1A1A"/>
<path d="M356.672 93.903V85.0674H357.546V86.992L357.458 88.3042L357.546 89.6164V93.903H356.672ZM359.993 91.541C359.468 91.541 358.944 91.4535 358.507 91.1911C358.07 90.9286 357.721 90.5787 357.458 90.0538C357.196 89.5289 357.021 89.004 357.021 88.3042C357.021 87.6043 357.109 86.992 357.371 86.5546C357.633 86.0297 357.983 85.6798 358.42 85.4173C358.857 85.1549 359.381 85.0674 359.905 85.0674C360.517 85.0674 361.041 85.2423 361.566 85.5048C362.09 85.7672 362.44 86.2046 362.702 86.642C362.964 87.1669 363.139 87.6918 363.139 88.3917C363.139 89.004 362.964 89.6164 362.702 90.1413C362.44 90.6662 362.003 91.0161 361.566 91.2785C361.129 91.541 360.604 91.541 359.993 91.541ZM359.905 90.8411C360.342 90.8411 360.779 90.7537 361.129 90.4912C361.478 90.3162 361.741 89.9663 362.003 89.6164C362.178 89.2665 362.352 88.8291 362.352 88.3042C362.352 87.7793 362.265 87.3419 362.003 86.992C361.828 86.642 361.478 86.2921 361.129 86.1172C360.779 85.9422 360.342 85.7672 359.905 85.7672C359.468 85.7672 359.031 85.8547 358.682 86.1172C358.332 86.2921 358.07 86.642 357.808 86.992C357.633 87.3419 357.458 87.7793 357.458 88.3042C357.458 88.8291 357.546 89.2665 357.808 89.6164C357.983 89.9663 358.332 90.3162 358.682 90.4912C359.031 90.6662 359.468 90.8411 359.905 90.8411Z" fill="#1B1A1A"/>
<path d="M365.062 91.5409V85.1548H365.935L368.819 90.0537H368.47L371.441 85.1548H372.228V91.5409H371.441V86.1171L371.616 86.2046L368.819 90.7536H368.47L365.673 86.1171H365.848V91.5409H365.062Z" fill="#1B1A1A"/>
<path d="M377.471 91.541C376.772 91.541 376.247 91.366 375.723 91.1036C375.199 90.8411 374.849 90.4037 374.499 89.9663C374.237 89.4414 374.062 88.9166 374.062 88.3042C374.062 87.6918 374.237 87.0795 374.499 86.642C374.762 86.1172 375.111 85.7672 375.636 85.5048C376.073 85.2423 376.684 85.0674 377.209 85.0674C377.82 85.0674 378.345 85.2423 378.782 85.5048C379.219 85.7672 379.656 86.2046 379.918 86.642C380.18 87.1669 380.355 87.6918 380.355 88.3917V88.4791C380.355 88.5666 380.355 88.5666 380.355 88.6541H374.762V88.0417H379.918L379.568 88.3042C379.568 87.8668 379.481 87.4294 379.306 87.0795C379.131 86.7295 378.869 86.4671 378.519 86.2046C378.17 86.0297 377.82 85.8547 377.296 85.8547C376.859 85.8547 376.422 85.9422 376.073 86.2046C375.723 86.3796 375.461 86.7295 375.286 87.0795C375.111 87.4294 375.024 87.8668 375.024 88.3042V88.4791C375.024 89.004 375.111 89.4414 375.373 89.7914C375.636 90.1413 375.898 90.4912 376.247 90.6662C376.597 90.8411 377.034 91.0161 377.558 91.0161C377.908 91.0161 378.345 90.9286 378.694 90.8411C379.044 90.6662 379.306 90.4912 379.568 90.2288L380.092 90.7537C379.83 91.1036 379.481 91.366 379.044 91.541C378.432 91.4535 377.995 91.541 377.471 91.541Z" fill="#1B1A1A"/>
<path d="M383.238 91.5409V85.6797L383.501 85.9421H380.879V85.1548H386.647V85.9421H384.025L384.287 85.6797V91.5409H383.238Z" fill="#1B1A1A"/>
<path d="M387.782 91.5409V85.1548H388.656V90.2287L392.938 85.1548H393.725V91.5409H392.851V86.3795L388.569 91.5409H387.782Z" fill="#1B1A1A"/>
<path d="M400.28 88.829C399.931 89.004 399.494 89.0914 399.144 89.1789C398.795 89.2664 398.358 89.3539 398.008 89.3539C397.221 89.3539 396.61 89.1789 396.173 88.829C395.736 88.4791 395.474 87.9542 395.474 87.2543V85.1548H396.348V87.2543C396.348 87.7792 396.522 88.1291 396.784 88.3916C397.134 88.654 397.571 88.7415 398.095 88.7415C398.445 88.7415 398.795 88.7415 399.144 88.654C399.494 88.5666 399.843 88.4791 400.193 88.3041L400.28 88.829ZM400.193 91.5409V85.1548H401.067V91.5409H400.193Z" fill="#1B1A1A"/>
<path d="M403.514 91.5409V85.1548H404.388V87.9542H408.408V85.1548H409.281V91.5409H408.408V88.7415H404.388V91.5409H403.514Z" fill="#1B1A1A"/>
<path d="M414.437 87.3419C415.223 87.3419 415.835 87.5169 416.272 87.8668C416.709 88.2167 416.884 88.7416 416.884 89.354C416.884 90.0538 416.621 90.5787 416.184 90.9286C415.748 91.2785 415.048 91.4535 414.262 91.4535H411.728V85.0674H412.601V87.3419H414.437ZM414.262 90.8411C414.874 90.8411 415.311 90.7537 415.66 90.4912C415.922 90.2288 416.097 89.8788 416.097 89.354C416.097 88.8291 415.922 88.4791 415.66 88.3042C415.398 88.0417 414.874 87.9543 414.262 87.9543H412.689V90.8411H414.262ZM418.02 91.541V85.1549H418.894V91.541H418.02Z" fill="#1B1A1A"/>
<path d="M424.138 91.541C423.439 91.541 422.914 91.366 422.39 91.1036C421.866 90.8411 421.516 90.4037 421.166 89.9663C420.904 89.4414 420.729 88.9166 420.729 88.3042C420.729 87.6918 420.904 87.0795 421.166 86.642C421.429 86.1172 421.778 85.7672 422.303 85.5048C422.74 85.2423 423.351 85.0674 423.876 85.0674C424.487 85.0674 425.012 85.2423 425.449 85.5048C425.886 85.7672 426.323 86.2046 426.585 86.642C426.847 87.1669 427.022 87.6918 427.022 88.3917V88.4791C427.022 88.5666 427.022 88.5666 427.022 88.6541H421.429V88.0417H426.585L426.235 88.3042C426.235 87.8668 426.148 87.4294 425.973 87.0795C425.798 86.7295 425.536 86.4671 425.186 86.2046C424.837 86.0297 424.487 85.8547 423.963 85.8547C423.526 85.8547 423.089 85.9422 422.74 86.2046C422.39 86.3796 422.128 86.7295 421.953 87.0795C421.778 87.4294 421.691 87.8668 421.691 88.3042V88.4791C421.691 89.004 421.778 89.4414 422.04 89.7914C422.303 90.1413 422.565 90.4912 422.914 90.6662C423.264 90.8411 423.701 91.0161 424.225 91.0161C424.575 91.0161 425.012 90.9286 425.361 90.8411C425.711 90.6662 425.973 90.4912 426.235 90.2288L426.76 90.7537C426.497 91.1036 426.148 91.366 425.711 91.541C425.099 91.4535 424.662 91.541 424.138 91.541Z" fill="#1B1A1A"/>
<path d="M432.179 91.5409V85.1548H433.053V87.9542H437.073V85.1548H437.947V91.5409H437.073V88.7415H433.053V91.5409H432.179Z" fill="#1B1A1A"/>
<path d="M442.139 91.541C441.615 91.541 441.265 91.4535 440.916 91.2785C440.566 91.1036 440.304 90.9286 440.129 90.5787C439.955 90.2288 439.867 89.9663 439.867 89.6164C439.867 89.2665 439.955 89.004 440.129 88.7416C440.304 88.4791 440.566 88.2167 440.916 88.0417C441.265 87.8668 441.79 87.7793 442.401 87.7793H444.586V88.3917H442.314C441.702 88.3917 441.265 88.4791 441.003 88.7416C440.741 89.004 440.654 89.2665 440.654 89.5289C440.654 89.8788 440.828 90.2288 441.091 90.4037C441.353 90.6662 441.79 90.7537 442.314 90.7537C442.838 90.7537 443.188 90.6662 443.538 90.4037C443.887 90.1413 444.149 89.8788 444.324 89.4414L444.499 90.0538C444.324 90.4912 444.062 90.8411 443.625 91.1036C443.275 91.4535 442.751 91.541 442.139 91.541ZM444.412 91.541V90.1413V89.8788V87.5169C444.412 86.992 444.237 86.5546 443.975 86.2921C443.625 86.0297 443.188 85.8547 442.576 85.8547C442.139 85.8547 441.79 85.9422 441.353 86.0297C441.003 86.2046 440.654 86.3796 440.392 86.5546L440.042 85.9422C440.392 85.6798 440.741 85.4173 441.178 85.3298C441.615 85.2423 442.139 85.0674 442.664 85.0674C443.538 85.0674 444.149 85.2423 444.586 85.6797C445.023 86.1172 445.285 86.7295 445.285 87.5169V91.541H444.412Z" fill="#1B1A1A"/>
<path d="M450.181 91.541C449.569 91.541 448.957 91.366 448.433 91.1036C447.909 90.8411 447.559 90.4037 447.209 89.9663C446.947 89.4414 446.772 88.9166 446.772 88.3042C446.772 87.6918 446.947 87.0795 447.209 86.642C447.472 86.1172 447.909 85.7672 448.433 85.5048C448.957 85.2423 449.482 85.0674 450.181 85.0674C450.705 85.0674 451.229 85.1549 451.666 85.4173C452.103 85.5923 452.453 85.9422 452.715 86.3796L452.103 86.817C451.841 86.4671 451.579 86.2921 451.317 86.1172C450.967 85.9422 450.618 85.8547 450.268 85.8547C449.831 85.8547 449.394 85.9422 449.045 86.2046C448.695 86.3796 448.346 86.7295 448.171 87.0795C447.996 87.4294 447.821 87.8668 447.821 88.3917C447.821 88.9166 447.909 89.354 448.171 89.7039C448.346 90.0538 448.695 90.4037 449.045 90.5787C449.394 90.7537 449.831 90.9286 450.268 90.9286C450.618 90.9286 450.967 90.8411 451.317 90.6662C451.666 90.4912 451.929 90.3163 452.103 89.9663L452.715 90.4037C452.453 90.8411 452.103 91.1036 451.666 91.366C451.229 91.4535 450.792 91.541 450.181 91.541Z" fill="#1B1A1A"/>
<path d="M456.909 91.541C456.298 91.541 455.686 91.366 455.249 91.1036C454.724 90.8411 454.375 90.4037 454.113 89.9663C453.851 89.4414 453.676 88.9166 453.676 88.3042C453.676 87.6918 453.851 87.0795 454.113 86.642C454.375 86.1172 454.812 85.7672 455.249 85.5048C455.773 85.2423 456.298 85.0674 456.909 85.0674C457.521 85.0674 458.133 85.2423 458.57 85.5048C459.094 85.7672 459.444 86.2046 459.706 86.642C459.968 87.1669 460.143 87.6918 460.143 88.3042C460.143 88.9166 459.968 89.5289 459.706 89.9663C459.444 90.4912 459.007 90.8411 458.57 91.1036C458.133 91.366 457.608 91.541 456.909 91.541ZM456.909 90.8411C457.346 90.8411 457.783 90.7537 458.133 90.4912C458.482 90.3162 458.744 89.9663 459.007 89.6164C459.181 89.2665 459.356 88.8291 459.356 88.3042C459.356 87.7793 459.269 87.3419 459.007 86.992C458.832 86.642 458.482 86.2921 458.133 86.1172C457.783 85.9422 457.346 85.7672 456.909 85.7672C456.472 85.7672 456.035 85.8547 455.686 86.1172C455.336 86.2921 455.074 86.642 454.812 86.992C454.637 87.3419 454.462 87.7793 454.462 88.3042C454.462 88.8291 454.55 89.2665 454.812 89.6164C454.987 89.9663 455.336 90.3162 455.686 90.4912C456.035 90.6662 456.472 90.8411 456.909 90.8411Z" fill="#1B1A1A"/>
<path d="M464.774 91.541C464.163 91.541 463.551 91.366 463.027 91.1036C462.502 90.8411 462.153 90.4037 461.803 89.9663C461.541 89.4414 461.366 88.9166 461.366 88.3042C461.366 87.6918 461.541 87.0795 461.803 86.642C462.065 86.1172 462.502 85.7672 463.027 85.5048C463.551 85.2423 464.075 85.0674 464.774 85.0674C465.299 85.0674 465.823 85.1549 466.26 85.4173C466.697 85.5923 467.047 85.9422 467.309 86.3796L466.697 86.817C466.435 86.4671 466.173 86.2921 465.911 86.1172C465.561 85.9422 465.211 85.8547 464.862 85.8547C464.425 85.8547 463.988 85.9422 463.638 86.2046C463.289 86.3796 462.939 86.7295 462.765 87.0795C462.59 87.4294 462.415 87.8668 462.415 88.3917C462.415 88.9166 462.502 89.354 462.765 89.7039C462.939 90.0538 463.289 90.4037 463.638 90.5787C463.988 90.7537 464.425 90.9286 464.862 90.9286C465.211 90.9286 465.561 90.8411 465.911 90.6662C466.26 90.4912 466.522 90.3163 466.697 89.9663L467.309 90.4037C467.047 90.8411 466.697 91.1036 466.26 91.366C465.823 91.4535 465.299 91.541 464.774 91.541Z" fill="#1B1A1A"/>
<path d="M471.678 87.3419C472.464 87.3419 473.076 87.5169 473.513 87.8668C473.95 88.2167 474.125 88.7416 474.125 89.354C474.125 90.0538 473.863 90.5787 473.426 90.9286C472.989 91.2785 472.29 91.4535 471.503 91.4535H468.969V85.0674H469.843V87.3419H471.678ZM471.503 90.8411C472.115 90.8411 472.552 90.7537 472.901 90.4912C473.164 90.2288 473.338 89.8788 473.338 89.354C473.338 88.8291 473.164 88.4791 472.901 88.3042C472.639 88.0417 472.115 87.9543 471.503 87.9543H469.93V90.8411H471.503ZM475.261 91.541V85.1549H476.135V91.541H475.261Z" fill="#1B1A1A"/>
<path d="M478.582 90.5786H477.796L479.544 88.304L477.796 86.0295H478.582L480.33 88.304L478.582 90.5786ZM480.767 90.5786H479.981L481.728 88.304L479.981 86.0295H480.767L482.515 88.304L480.767 90.5786Z" fill="#1B1A1A"/>
<path d="M320.404 108.162H319.53V99.5891H320.404V108.162ZM325.91 104.138H320.404V103.351H325.91V104.138ZM325.822 99.5891H326.696V108.162H325.822V99.5891Z" fill="#1B1A1A"/>
<path d="M329.58 108.162V99.5891H336.746V108.162H335.872V100.114L336.134 100.376H330.279L330.541 100.114V108.162H329.58Z" fill="#1B1A1A"/>
<path d="M339.63 108.162V99.5891H340.504V107.375H345.66V99.5891H346.534V108.162H339.63ZM347.146 110.174V107.9L347.408 108.162H345.747V107.375H348.019V110.174H347.146Z" fill="#1B1A1A"/>
<path d="M353.962 107.2L352.214 104.926L353.962 102.651H354.748L353 104.926L354.748 107.2H353.962ZM356.146 107.2L354.399 104.926L356.146 102.651H356.933L355.185 104.926L356.933 107.2H356.146Z" fill="#1B1A1A"/>
<path d="M359.731 108.162H358.857V99.5891H359.731V108.162ZM365.15 104.138H359.644V103.351H365.15V104.138ZM365.062 99.5891H365.936V108.162H365.062V99.5891Z" fill="#1B1A1A"/>
<path d="M370.48 108.162C369.956 108.162 369.606 108.075 369.257 107.9C368.907 107.725 368.645 107.55 368.47 107.2C368.295 106.85 368.208 106.588 368.208 106.238C368.208 105.888 368.295 105.625 368.47 105.363C368.645 105.1 368.907 104.838 369.257 104.663C369.606 104.488 370.131 104.401 370.742 104.401H372.927V105.013H370.742C370.131 105.013 369.694 105.1 369.431 105.363C369.169 105.625 369.082 105.888 369.082 106.15C369.082 106.5 369.257 106.85 369.519 107.025C369.781 107.288 370.218 107.375 370.742 107.375C371.267 107.375 371.616 107.288 371.966 107.025C372.315 106.763 372.578 106.5 372.752 106.063L372.927 106.675C372.752 107.113 372.49 107.462 372.053 107.725C371.529 108.075 371.092 108.162 370.48 108.162ZM372.665 108.162V106.763V106.5V104.138C372.665 103.613 372.49 103.176 372.228 102.913C371.878 102.651 371.441 102.476 370.83 102.476C370.393 102.476 370.043 102.564 369.606 102.651C369.257 102.826 368.907 103.001 368.645 103.176L368.295 102.564C368.645 102.301 368.995 102.039 369.431 101.951C369.868 101.864 370.393 101.689 370.917 101.689C371.791 101.689 372.403 101.864 372.84 102.301C373.277 102.738 373.539 103.351 373.539 104.138V108.162H372.665Z" fill="#1B1A1A"/>
<path d="M378.52 108.162C377.908 108.162 377.296 107.987 376.772 107.725C376.247 107.462 375.898 107.025 375.548 106.588C375.286 106.063 375.111 105.538 375.111 104.926C375.111 104.313 375.286 103.701 375.548 103.263C375.81 102.738 376.247 102.389 376.772 102.126C377.296 101.864 377.82 101.689 378.52 101.689C379.044 101.689 379.568 101.776 380.005 102.039C380.442 102.214 380.792 102.564 381.054 103.001L380.442 103.438C380.18 103.088 379.918 102.913 379.656 102.738C379.306 102.564 378.957 102.476 378.607 102.476C378.17 102.476 377.733 102.564 377.384 102.826C377.034 103.001 376.684 103.351 376.51 103.701C376.335 104.051 376.16 104.488 376.16 105.013C376.16 105.538 376.247 105.975 376.51 106.325C376.684 106.675 377.034 107.025 377.384 107.2C377.733 107.375 378.17 107.55 378.607 107.55C378.957 107.55 379.306 107.462 379.656 107.288C380.005 107.113 380.267 106.938 380.442 106.588L381.054 107.025C380.792 107.462 380.442 107.725 380.005 107.987C379.568 108.075 379.044 108.162 378.52 108.162Z" fill="#1B1A1A"/>
<path d="M385.248 108.162C384.636 108.162 384.025 107.987 383.588 107.725C383.063 107.462 382.714 107.025 382.452 106.588C382.189 106.063 382.015 105.538 382.015 104.926C382.015 104.313 382.189 103.701 382.452 103.263C382.714 102.738 383.151 102.389 383.588 102.126C384.112 101.864 384.636 101.689 385.248 101.689C385.86 101.689 386.472 101.864 386.909 102.126C387.433 102.389 387.782 102.826 388.045 103.263C388.307 103.788 388.482 104.313 388.482 104.926C388.482 105.538 388.307 106.15 388.045 106.588C387.782 107.113 387.346 107.462 386.909 107.725C386.472 107.987 385.86 108.162 385.248 108.162ZM385.248 107.462C385.685 107.462 386.122 107.375 386.472 107.113C386.821 106.938 387.083 106.588 387.346 106.238C387.52 105.888 387.695 105.45 387.695 104.926C387.695 104.401 387.608 103.963 387.346 103.613C387.171 103.263 386.821 102.913 386.472 102.738C386.122 102.564 385.685 102.389 385.248 102.389C384.811 102.389 384.374 102.476 384.025 102.738C383.675 102.913 383.413 103.263 383.151 103.613C382.976 103.963 382.801 104.401 382.801 104.926C382.801 105.45 382.889 105.888 383.151 106.238C383.326 106.588 383.675 106.938 384.025 107.113C384.374 107.288 384.724 107.462 385.248 107.462Z" fill="#1B1A1A"/>
<path d="M393.026 108.162C392.415 108.162 391.803 107.987 391.279 107.725C390.754 107.462 390.405 107.025 390.055 106.588C389.793 106.063 389.618 105.538 389.618 104.926C389.618 104.313 389.793 103.701 390.055 103.263C390.317 102.738 390.754 102.389 391.279 102.126C391.803 101.864 392.327 101.689 393.026 101.689C393.551 101.689 394.075 101.776 394.512 102.039C394.949 102.214 395.299 102.564 395.561 103.001L394.949 103.438C394.687 103.088 394.425 102.913 394.162 102.738C393.813 102.564 393.463 102.476 393.114 102.476C392.677 102.476 392.24 102.564 391.89 102.826C391.541 103.001 391.191 103.351 391.016 103.701C390.842 104.051 390.667 104.488 390.667 105.013C390.667 105.538 390.754 105.975 391.016 106.325C391.191 106.675 391.541 107.025 391.89 107.2C392.24 107.375 392.677 107.55 393.114 107.55C393.463 107.55 393.813 107.462 394.162 107.288C394.512 107.113 394.774 106.938 394.949 106.588L395.561 107.025C395.299 107.462 394.949 107.725 394.512 107.987C394.075 108.075 393.638 108.162 393.026 108.162Z" fill="#1B1A1A"/>
<path d="M397.221 110.524V101.689H398.095V103.613L398.007 104.926L398.095 106.238V110.524H397.221ZM400.542 108.162C400.017 108.162 399.493 108.075 399.056 107.812C398.619 107.55 398.269 107.2 398.007 106.675C397.745 106.15 397.57 105.625 397.57 104.926C397.57 104.226 397.658 103.613 397.92 103.176C398.182 102.651 398.532 102.301 398.969 102.039C399.405 101.776 399.93 101.689 400.454 101.689C401.066 101.689 401.59 101.864 402.115 102.126C402.639 102.389 402.989 102.826 403.251 103.263C403.513 103.788 403.688 104.313 403.688 105.013C403.688 105.625 403.513 106.238 403.251 106.763C402.989 107.288 402.552 107.637 402.115 107.9C401.678 108.162 401.153 108.162 400.542 108.162ZM400.542 107.462C400.979 107.462 401.415 107.375 401.765 107.113C402.115 106.938 402.377 106.588 402.639 106.238C402.814 105.888 402.989 105.45 402.989 104.926C402.989 104.401 402.901 103.963 402.639 103.613C402.464 103.263 402.115 102.913 401.765 102.738C401.415 102.564 400.979 102.389 400.542 102.389C400.105 102.389 399.668 102.476 399.318 102.738C398.969 102.913 398.706 103.263 398.444 103.613C398.269 103.963 398.095 104.401 398.095 104.926C398.095 105.45 398.182 105.888 398.444 106.238C398.619 106.588 398.969 106.938 399.318 107.113C399.668 107.288 400.017 107.462 400.542 107.462Z" fill="#1B1A1A"/>
<path d="M408.406 108.162C407.707 108.162 407.183 107.987 406.658 107.725C406.134 107.462 405.785 107.025 405.435 106.588C405.173 106.063 404.998 105.538 404.998 104.926C404.998 104.313 405.173 103.701 405.435 103.263C405.697 102.738 406.047 102.389 406.571 102.126C407.008 101.864 407.62 101.689 408.144 101.689C408.756 101.689 409.28 101.864 409.717 102.126C410.154 102.389 410.591 102.826 410.853 103.263C411.115 103.788 411.29 104.313 411.29 105.013V105.1C411.29 105.188 411.29 105.188 411.29 105.275H405.697V104.663H410.853L410.504 104.926C410.504 104.488 410.416 104.051 410.242 103.701C410.067 103.351 409.805 103.088 409.455 102.826C409.105 102.651 408.756 102.476 408.232 102.476C407.795 102.476 407.358 102.564 407.008 102.826C406.658 103.001 406.396 103.351 406.222 103.701C406.047 104.051 405.959 104.488 405.959 104.926V105.1C405.959 105.625 406.047 106.063 406.309 106.413C406.571 106.763 406.833 107.113 407.183 107.288C407.532 107.462 407.969 107.637 408.494 107.637C408.843 107.637 409.28 107.55 409.63 107.462C409.979 107.288 410.242 107.113 410.504 106.85L411.028 107.375C410.766 107.725 410.416 107.987 409.979 108.162C409.368 108.075 408.931 108.162 408.406 108.162Z" fill="#1B1A1A"/>
<path d="M413.214 108.162V101.776H414.088L416.972 106.675H416.622L419.593 101.776H420.38V108.162H419.593V102.738L419.768 102.826L416.972 107.375H416.622L413.826 102.738H414V108.162H413.214Z" fill="#1B1A1A"/>
<path d="M422.827 108.162V101.776H423.701L426.585 106.675H426.235L429.207 101.776H429.993V108.162H429.207V102.738L429.381 102.826L426.585 107.375H426.235L423.439 102.738H423.614V108.162H422.827Z" fill="#1B1A1A"/>
<path d="M435.149 108.162C434.538 108.162 433.926 107.987 433.489 107.725C432.965 107.462 432.615 107.025 432.353 106.588C432.091 106.063 431.916 105.538 431.916 104.926C431.916 104.313 432.091 103.701 432.353 103.263C432.615 102.738 433.052 102.389 433.489 102.126C434.013 101.864 434.538 101.689 435.149 101.689C435.761 101.689 436.373 101.864 436.81 102.126C437.334 102.389 437.684 102.826 437.946 103.263C438.208 103.788 438.383 104.313 438.383 104.926C438.383 105.538 438.208 106.15 437.946 106.588C437.684 107.113 437.247 107.462 436.81 107.725C436.373 107.987 435.761 108.162 435.149 108.162ZM435.149 107.462C435.586 107.462 436.023 107.375 436.373 107.113C436.723 106.938 436.985 106.588 437.247 106.238C437.422 105.888 437.596 105.45 437.596 104.926C437.596 104.401 437.509 103.963 437.247 103.613C437.072 103.263 436.723 102.913 436.373 102.738C436.023 102.564 435.586 102.389 435.149 102.389C434.713 102.389 434.276 102.476 433.926 102.738C433.576 102.913 433.314 103.263 433.052 103.613C432.877 103.963 432.703 104.401 432.703 104.926C432.703 105.45 432.79 105.888 433.052 106.238C433.227 106.588 433.576 106.938 433.926 107.113C434.276 107.288 434.713 107.462 435.149 107.462Z" fill="#1B1A1A"/>
<path d="M440.306 108.162V101.776H441.18V104.576H445.2V101.776H446.073V108.162H445.2V105.363H441.18V108.162H440.306Z" fill="#1B1A1A"/>
<path d="M449.831 108.162V102.301L450.093 102.563H447.472V101.776H453.239V102.563H450.618L450.88 102.301V108.162H449.831Z" fill="#1B1A1A"/>
<path d="M456.124 108.162C455.599 108.162 455.25 108.075 454.9 107.9C454.551 107.725 454.289 107.55 454.114 107.2C453.939 106.85 453.852 106.588 453.852 106.238C453.852 105.888 453.939 105.625 454.114 105.363C454.289 105.1 454.551 104.838 454.9 104.663C455.25 104.488 455.774 104.401 456.386 104.401H458.571V105.013H456.299C455.687 105.013 455.25 105.1 454.988 105.363C454.725 105.625 454.638 105.888 454.638 106.15C454.638 106.5 454.813 106.85 455.075 107.025C455.337 107.288 455.774 107.375 456.299 107.375C456.823 107.375 457.172 107.288 457.522 107.025C457.872 106.763 458.134 106.5 458.308 106.063L458.483 106.675C458.308 107.113 458.046 107.462 457.609 107.725C457.26 108.075 456.735 108.162 456.124 108.162ZM458.308 108.162V106.763V106.5V104.138C458.308 103.613 458.134 103.176 457.872 102.913C457.522 102.651 457.085 102.476 456.473 102.476C456.036 102.476 455.687 102.564 455.25 102.651C454.9 102.826 454.551 103.001 454.289 103.176L453.939 102.564C454.288 102.301 454.638 102.039 455.075 101.951C455.512 101.864 456.036 101.689 456.561 101.689C457.435 101.689 458.046 101.864 458.483 102.301C458.92 102.738 459.182 103.351 459.182 104.138V108.162H458.308Z" fill="#1B1A1A"/>
<path d="M461.541 108.162H460.492L463.027 104.576L463.726 105.013L461.541 108.162ZM462.939 105.013L460.667 101.689H461.628L463.726 104.838L462.939 105.013ZM465.124 105.275H463.114V104.488H465.124V105.275ZM465.736 108.162H464.862V101.776H465.736V108.162ZM465.473 105.275V104.488H467.483V105.275H465.473ZM467.746 105.013L466.872 104.926L469.057 101.776H470.018L467.746 105.013ZM469.144 108.162L466.959 105.013L467.658 104.576L470.193 108.162H469.144Z" fill="#1B1A1A"/>
<path d="M471.591 107.2H470.805L472.553 104.926L470.805 102.651H471.591L473.339 104.926L471.591 107.2ZM473.776 107.2H472.989L474.737 104.926L472.989 102.651H473.776L475.524 104.926L473.776 107.2Z" fill="#1B1A1A"/>
<path d="M320.404 124.784H319.53V116.211H320.404V124.784ZM325.91 120.76H320.404V119.972H325.91V120.76ZM325.822 116.211H326.696V124.784H325.822V116.211Z" fill="#1B1A1A"/>
<path d="M329.58 124.784V116.211H336.746V124.784H335.872V116.736L336.134 116.998H330.279L330.541 116.736V124.784H329.58Z" fill="#1B1A1A"/>
<path d="M339.63 124.784V116.211H340.504V123.997H345.66V116.211H346.534V124.784H339.63ZM347.146 126.796V124.521L347.408 124.784H345.747V123.997H348.019V126.796H347.146Z" fill="#1B1A1A"/>
<path d="M353.962 123.821L352.214 121.547L353.962 119.272H354.748L353 121.547L354.748 123.821H353.962ZM356.146 123.821L354.399 121.547L356.146 119.272H356.933L355.185 121.547L356.933 123.821H356.146Z" fill="#1B1A1A"/>
<path d="M358.857 124.784V116.211H364.276V116.998H359.469L359.731 116.736V124.784H358.857Z" fill="#1B1A1A"/>
<path d="M366.46 124.784C365.761 124.784 365.237 124.609 364.712 124.346C364.188 124.084 363.838 123.646 363.489 123.209C363.227 122.684 363.052 122.159 363.052 121.547C363.052 120.934 363.227 120.322 363.489 119.885C363.751 119.36 364.1 119.01 364.625 118.747C365.062 118.485 365.673 118.31 366.198 118.31C366.81 118.31 367.334 118.485 367.771 118.747C368.208 119.01 368.645 119.447 368.907 119.885C369.169 120.41 369.344 120.934 369.344 121.634V121.722C369.344 121.809 369.344 121.809 369.344 121.897H363.751V121.284H368.907L368.557 121.547C368.557 121.109 368.47 120.672 368.295 120.322C368.12 119.972 367.858 119.71 367.509 119.447C367.159 119.272 366.81 119.097 366.285 119.097C365.848 119.097 365.411 119.185 365.062 119.447C364.712 119.622 364.45 119.972 364.275 120.322C364.1 120.672 364.013 121.109 364.013 121.547V121.722C364.013 122.247 364.1 122.684 364.363 123.034C364.625 123.384 364.887 123.734 365.237 123.909C365.586 124.084 366.023 124.259 366.547 124.259C366.897 124.259 367.334 124.171 367.684 124.084C368.033 123.909 368.295 123.734 368.557 123.471L369.082 123.996C368.82 124.346 368.47 124.609 368.033 124.784C367.509 124.696 366.984 124.784 366.46 124.784Z" fill="#1B1A1A"/>
<path d="M371.266 127.146V118.31H372.14V120.235L372.052 121.547L372.14 122.859V127.146H371.266ZM374.586 124.784C374.062 124.784 373.538 124.696 373.101 124.434C372.664 124.171 372.314 123.821 372.052 123.296C371.79 122.772 371.615 122.247 371.615 121.547C371.615 120.847 371.703 120.235 371.965 119.797C372.227 119.272 372.576 118.922 373.013 118.66C373.45 118.398 373.975 118.31 374.499 118.31C375.111 118.31 375.635 118.485 376.16 118.747C376.684 119.01 377.033 119.447 377.296 119.885C377.558 120.41 377.733 120.934 377.733 121.634C377.733 122.247 377.558 122.859 377.296 123.384C377.033 123.909 376.596 124.259 376.16 124.521C375.723 124.784 375.198 124.784 374.586 124.784ZM374.586 124.084C375.023 124.084 375.46 123.996 375.81 123.734C376.16 123.559 376.422 123.209 376.684 122.859C376.859 122.509 377.033 122.072 377.033 121.547C377.033 121.022 376.946 120.585 376.684 120.235C376.509 119.885 376.16 119.535 375.81 119.36C375.46 119.185 375.023 119.01 374.586 119.01C374.15 119.01 373.713 119.097 373.363 119.36C373.013 119.535 372.751 119.885 372.489 120.235C372.314 120.585 372.14 121.022 372.14 121.547C372.14 122.072 372.227 122.509 372.489 122.859C372.664 123.209 373.013 123.559 373.363 123.734C373.713 123.909 374.062 124.084 374.586 124.084Z" fill="#1B1A1A"/>
<path d="M379.742 124.784V118.398H380.616L383.5 123.297H383.15L386.122 118.398H386.908V124.784H386.122V119.36L386.297 119.447L383.5 123.997H383.15L380.354 119.36H380.529V124.784H379.742Z" fill="#1B1A1A"/>
<path d="M392.152 124.784C391.453 124.784 390.929 124.609 390.405 124.346C389.88 124.084 389.531 123.646 389.181 123.209C388.919 122.684 388.744 122.159 388.744 121.547C388.744 120.934 388.919 120.322 389.181 119.885C389.443 119.36 389.793 119.01 390.317 118.747C390.754 118.485 391.366 118.31 391.89 118.31C392.502 118.31 393.026 118.485 393.463 118.747C393.9 119.01 394.337 119.447 394.599 119.885C394.862 120.41 395.036 120.934 395.036 121.634V121.722C395.036 121.809 395.036 121.809 395.036 121.897H389.443V121.284H394.599L394.25 121.547C394.25 121.109 394.162 120.672 393.988 120.322C393.813 119.972 393.551 119.71 393.201 119.447C392.852 119.272 392.502 119.097 391.978 119.097C391.541 119.097 391.104 119.185 390.754 119.447C390.405 119.622 390.142 119.972 389.968 120.322C389.793 120.672 389.705 121.109 389.705 121.547V121.722C389.705 122.247 389.793 122.684 390.055 123.034C390.317 123.384 390.579 123.734 390.929 123.909C391.278 124.084 391.715 124.259 392.24 124.259C392.589 124.259 393.026 124.171 393.376 124.084C393.725 123.909 393.988 123.734 394.25 123.471L394.774 123.996C394.512 124.346 394.162 124.609 393.725 124.784C393.114 124.696 392.677 124.784 392.152 124.784Z" fill="#1B1A1A"/>
<path d="M397.833 124.784V118.923L398.095 119.185H395.474V118.398H401.241V119.185H398.62L398.882 118.923V124.784H397.833Z" fill="#1B1A1A"/>
<path d="M402.465 124.784V118.398H403.339V123.472L407.621 118.398H408.407V124.784H407.534V119.622L403.251 124.784H402.465Z" fill="#1B1A1A"/>
<path d="M414.874 122.072C414.524 122.247 414.087 122.334 413.738 122.422C413.388 122.509 412.951 122.597 412.602 122.597C411.815 122.597 411.203 122.422 410.767 122.072C410.33 121.722 410.067 121.197 410.067 120.497V118.398H410.941V120.497C410.941 121.022 411.116 121.372 411.378 121.635C411.728 121.897 412.165 121.984 412.689 121.984C413.039 121.984 413.388 121.984 413.738 121.897C414.087 121.809 414.437 121.722 414.786 121.547L414.874 122.072ZM414.874 124.784V118.398H415.748V124.784H414.874Z" fill="#1B1A1A"/>
<path d="M418.194 124.784V118.398H419.068V121.197H423.088V118.398H423.962V124.784H423.088V121.984H419.068V124.784H418.194Z" fill="#1B1A1A"/>
<path d="M429.119 120.585C429.906 120.585 430.518 120.76 430.955 121.109C431.391 121.459 431.566 121.984 431.566 122.597C431.566 123.296 431.304 123.821 430.867 124.171C430.43 124.521 429.731 124.696 428.945 124.696H426.41V118.31H427.284V120.585H429.119ZM428.945 124.084C429.556 124.084 429.993 123.996 430.343 123.734C430.605 123.471 430.78 123.122 430.78 122.597C430.78 122.072 430.605 121.722 430.343 121.547C430.081 121.284 429.556 121.197 428.945 121.197H427.371V124.084H428.945ZM432.702 124.784V118.398H433.576V124.784H432.702Z" fill="#1B1A1A"/>
<path d="M438.818 124.784C438.119 124.784 437.595 124.609 437.071 124.346C436.546 124.084 436.197 123.646 435.847 123.209C435.585 122.684 435.41 122.159 435.41 121.547C435.41 120.934 435.585 120.322 435.847 119.885C436.109 119.36 436.459 119.01 436.983 118.747C437.42 118.485 438.032 118.31 438.556 118.31C439.168 118.31 439.692 118.485 440.129 118.747C440.566 119.01 441.003 119.447 441.265 119.885C441.528 120.41 441.702 120.934 441.702 121.634V121.722C441.702 121.809 441.702 121.809 441.702 121.897H436.109V121.284H441.265L440.916 121.547C440.916 121.109 440.828 120.672 440.654 120.322C440.479 119.972 440.217 119.71 439.867 119.447C439.518 119.272 439.168 119.097 438.644 119.097C438.207 119.097 437.77 119.185 437.42 119.447C437.071 119.622 436.808 119.972 436.634 120.322C436.459 120.672 436.371 121.109 436.371 121.547V121.722C436.371 122.247 436.459 122.684 436.721 123.034C436.983 123.384 437.245 123.734 437.595 123.909C437.944 124.084 438.381 124.259 438.906 124.259C439.255 124.259 439.692 124.171 440.042 124.084C440.391 123.909 440.654 123.734 440.916 123.471L441.44 123.996C441.178 124.346 440.828 124.609 440.391 124.784C439.78 124.696 439.343 124.784 438.818 124.784Z" fill="#1B1A1A"/>
<path d="M446.772 124.784V118.398H447.646V121.197H451.666V118.398H452.54V124.784H451.666V121.984H447.646V124.784H446.772Z" fill="#1B1A1A"/>
<path d="M456.822 124.784C456.298 124.784 455.948 124.696 455.599 124.521C455.249 124.346 454.987 124.171 454.812 123.821C454.637 123.471 454.55 123.209 454.55 122.859C454.55 122.509 454.637 122.247 454.812 121.984C454.987 121.722 455.249 121.459 455.599 121.284C455.948 121.109 456.472 121.022 457.084 121.022H459.269V121.634H457.084C456.472 121.634 456.035 121.722 455.773 121.984C455.511 122.247 455.424 122.509 455.424 122.772C455.424 123.122 455.598 123.471 455.861 123.646C456.123 123.909 456.56 123.996 457.084 123.996C457.609 123.996 457.958 123.909 458.308 123.646C458.657 123.384 458.919 123.122 459.094 122.684L459.269 123.296C459.094 123.734 458.832 124.084 458.395 124.346C457.958 124.696 457.434 124.784 456.822 124.784ZM459.094 124.784V123.384V123.122V120.76C459.094 120.235 458.919 119.797 458.657 119.535C458.308 119.272 457.871 119.097 457.259 119.097C456.822 119.097 456.472 119.185 456.035 119.272C455.686 119.447 455.336 119.622 455.074 119.797L454.725 119.185C455.074 118.922 455.424 118.66 455.861 118.573C456.298 118.485 456.822 118.31 457.346 118.31C458.22 118.31 458.832 118.485 459.269 118.922C459.706 119.36 459.968 119.972 459.968 120.76V124.784H459.094Z" fill="#1B1A1A"/>
<path d="M464.861 124.784C464.25 124.784 463.638 124.609 463.114 124.346C462.589 124.084 462.24 123.646 461.89 123.209C461.628 122.684 461.453 122.159 461.453 121.547C461.453 120.934 461.628 120.322 461.89 119.885C462.152 119.36 462.589 119.01 463.114 118.747C463.638 118.485 464.162 118.31 464.861 118.31C465.386 118.31 465.91 118.398 466.347 118.66C466.784 118.835 467.134 119.185 467.396 119.622L466.784 120.06C466.522 119.71 466.26 119.535 465.997 119.36C465.648 119.185 465.298 119.097 464.949 119.097C464.512 119.097 464.075 119.185 463.725 119.447C463.376 119.622 463.026 119.972 462.851 120.322C462.677 120.672 462.502 121.109 462.502 121.634C462.502 122.159 462.589 122.597 462.851 122.947C463.026 123.296 463.376 123.646 463.725 123.821C464.075 123.996 464.512 124.171 464.949 124.171C465.298 124.171 465.648 124.084 465.997 123.909C466.347 123.734 466.609 123.559 466.784 123.209L467.396 123.646C467.134 124.084 466.784 124.346 466.347 124.609C465.91 124.696 465.473 124.784 464.861 124.784Z" fill="#1B1A1A"/>
<path d="M471.59 124.784C470.978 124.784 470.366 124.609 469.929 124.346C469.405 124.084 469.056 123.646 468.793 123.209C468.531 122.684 468.356 122.159 468.356 121.547C468.356 120.934 468.531 120.322 468.793 119.885C469.056 119.36 469.493 119.01 469.929 118.747C470.454 118.485 470.978 118.31 471.59 118.31C472.202 118.31 472.813 118.485 473.25 118.747C473.775 119.01 474.124 119.447 474.386 119.885C474.649 120.41 474.823 120.934 474.823 121.547C474.823 122.159 474.649 122.772 474.386 123.209C474.124 123.734 473.687 124.084 473.25 124.346C472.813 124.609 472.289 124.784 471.59 124.784ZM471.59 124.084C472.027 124.084 472.464 123.996 472.813 123.734C473.163 123.559 473.425 123.209 473.687 122.859C473.862 122.509 474.037 122.072 474.037 121.547C474.037 121.022 473.95 120.585 473.687 120.235C473.513 119.885 473.163 119.535 472.813 119.36C472.464 119.185 472.027 119.01 471.59 119.01C471.153 119.01 470.716 119.097 470.366 119.36C470.017 119.535 469.755 119.885 469.493 120.235C469.318 120.585 469.143 121.022 469.143 121.547C469.143 122.072 469.23 122.509 469.493 122.859C469.667 123.209 470.017 123.559 470.366 123.734C470.716 123.909 471.153 124.084 471.59 124.084Z" fill="#1B1A1A"/>
<path d="M479.455 124.784C478.843 124.784 478.232 124.609 477.707 124.346C477.183 124.084 476.833 123.646 476.484 123.209C476.222 122.684 476.047 122.159 476.047 121.547C476.047 120.934 476.222 120.322 476.484 119.885C476.746 119.36 477.183 119.01 477.707 118.747C478.232 118.485 478.756 118.31 479.455 118.31C479.979 118.31 480.504 118.398 480.941 118.66C481.378 118.835 481.727 119.185 481.99 119.622L481.378 120.06C481.116 119.71 480.853 119.535 480.591 119.36C480.242 119.185 479.892 119.097 479.543 119.097C479.106 119.097 478.669 119.185 478.319 119.447C477.97 119.622 477.62 119.972 477.445 120.322C477.27 120.672 477.096 121.109 477.096 121.634C477.096 122.159 477.183 122.597 477.445 122.947C477.62 123.296 477.97 123.646 478.319 123.821C478.669 123.996 479.106 124.171 479.543 124.171C479.892 124.171 480.242 124.084 480.591 123.909C480.941 123.734 481.203 123.559 481.378 123.209L481.99 123.646C481.727 124.084 481.378 124.346 480.941 124.609C480.504 124.696 479.979 124.784 479.455 124.784Z" fill="#1B1A1A"/>
<path d="M486.361 120.585C487.147 120.585 487.759 120.76 488.196 121.109C488.633 121.459 488.807 121.984 488.807 122.597C488.807 123.296 488.545 123.821 488.108 124.171C487.671 124.521 486.972 124.696 486.186 124.696H483.651V118.31H484.525V120.585H486.361ZM486.098 124.084C486.71 124.084 487.147 123.996 487.497 123.734C487.759 123.471 487.934 123.122 487.934 122.597C487.934 122.072 487.759 121.722 487.497 121.547C487.234 121.284 486.71 121.197 486.098 121.197H484.525V124.084H486.098ZM489.944 124.784V118.398H490.817V124.784H489.944Z" fill="#1B1A1A"/>
<path d="M493.264 123.821H492.478L494.225 121.547L492.478 119.272H493.264L495.012 121.547L493.264 123.821ZM495.449 123.821H494.662L496.41 121.547L494.662 119.272H495.449L497.197 121.547L495.449 123.821Z" fill="#1B1A1A"/>
</g>
<mask id="mask19_929_6688" style="mask-type:luminance" maskUnits="userSpaceOnUse" x="3" y="6" width="500" height="418">
<path d="M502.878 6.77148H3.00098V423.182H502.878V6.77148Z" fill="white"/>
</mask>
<g mask="url(#mask19_929_6688)">
<path d="M191.591 345.149V339.287L191.853 339.55H190.105V339.025H192.203V345.149H191.591Z" fill="#1B1A1A"/>
<path d="M193.515 343.486V343.049L196.748 339.025H197.447L194.214 343.049L193.864 342.962H198.758V343.486H193.515ZM197.01 345.149V343.574V343.049V341.649H197.622V345.236H197.01V345.149Z" fill="#1B1A1A"/>
<path d="M201.816 345.149C201.729 345.149 201.642 345.149 201.554 345.149C201.467 345.149 201.379 345.149 201.292 345.061L201.379 344.449C201.467 344.449 201.554 344.449 201.642 344.449C201.904 344.449 202.079 344.361 202.253 344.099C202.428 343.924 202.515 343.574 202.603 343.137C202.69 342.699 202.778 342.174 202.778 341.474L202.865 338.85H207.06V344.974H206.448V339.2L206.623 339.375H203.389L203.564 339.2L203.477 341.474C203.477 342.087 203.389 342.612 203.302 343.049C203.215 343.486 203.127 343.836 203.04 344.186C202.952 344.449 202.778 344.711 202.603 344.886C202.341 345.149 202.079 345.149 201.816 345.149Z" fill="#1B1A1A"/>
</g>
<mask id="mask20_929_6688" style="mask-type:luminance" maskUnits="userSpaceOnUse" x="3" y="6" width="500" height="418">
<path d="M502.878 6.77148H3.00098V423.182H502.878V6.77148Z" fill="white"/>
</mask>
<g mask="url(#mask20_929_6688)">
<path d="M266.308 353.284L268.929 357.571C269.104 357.833 269.366 358.008 269.716 358.008C269.891 358.008 270.065 357.921 270.24 357.833C270.677 357.571 270.765 356.958 270.502 356.609L267.444 351.71L266.308 353.284Z" fill="#3293FC"/>
<path d="M260.978 356.434L264.998 351.01C264.911 350.835 264.824 350.66 264.824 350.397L264.387 346.636C264.299 345.848 264.823 345.149 265.61 345.061C265.785 345.061 266.047 345.061 266.222 345.148C266.309 345.148 266.309 345.149 266.397 345.236L269.28 346.986C269.455 347.073 269.543 347.161 269.63 347.336L270.766 349.348C271.028 349.785 270.853 350.31 270.417 350.572C270.242 350.66 270.154 350.66 269.98 350.66C269.63 350.66 269.368 350.485 269.193 350.222L268.144 348.473L267.27 347.948L267.533 350.135C267.533 350.397 267.533 350.66 267.445 350.835C267.445 350.835 267.445 350.835 267.445 350.922C267.358 351.01 267.27 351.185 267.183 351.272L262.464 357.571C262.289 357.833 262.027 357.921 261.765 357.921C261.59 357.921 261.415 357.833 261.24 357.746C260.716 357.396 260.629 356.871 260.978 356.434Z" fill="#3293FC"/>
<path d="M263.774 346.723L260.89 348.648C260.453 348.91 260.366 349.523 260.628 349.96C260.803 350.222 261.065 350.397 261.414 350.397C261.589 350.397 261.764 350.31 261.939 350.222L264.036 348.823L263.774 346.723Z" fill="#3293FC"/>
<path d="M264.911 344.974C265.683 344.974 266.309 344.347 266.309 343.574C266.309 342.801 265.683 342.174 264.911 342.174C264.139 342.174 263.513 342.801 263.513 343.574C263.513 344.347 264.139 344.974 264.911 344.974Z" fill="#3293FC"/>
</g>
<mask id="mask21_929_6688" style="mask-type:luminance" maskUnits="userSpaceOnUse" x="3" y="6" width="500" height="418">
<path d="M502.878 6.77148H3.00098V423.182H502.878V6.77148Z" fill="white"/>
</mask>
<g mask="url(#mask21_929_6688)">
<path d="M324.95 357.134H323.901L323.639 356.084C323.376 355.209 322.939 353.897 321.629 353.897H312.365C311.142 353.897 310.88 354.859 310.53 355.734L310.093 357.046H308.957C308.433 357.046 308.083 357.396 308.083 357.921C308.083 358.446 308.433 358.708 309.044 358.883L309.481 359.058L309.219 359.933C309.132 360.283 309.132 360.545 309.132 360.808L309.219 365.444C309.219 366.057 309.743 366.581 310.355 366.581C310.967 366.581 311.491 366.057 311.491 365.357V364.307H322.59V365.357C322.59 365.969 323.114 366.494 323.726 366.494C324.338 366.494 324.862 365.969 324.862 365.269L324.775 360.633V360.545C324.775 360.37 324.775 360.108 324.687 359.845L324.425 358.971L324.775 358.796C325.386 358.621 325.736 358.271 325.736 357.833C325.736 357.396 325.474 357.134 324.95 357.134ZM311.491 356.434L311.579 356.171C311.928 355.209 312.016 355.121 312.278 355.121H321.541C321.891 355.121 322.153 355.296 322.503 356.434L323.464 359.583H310.53L311.491 356.434Z" fill="#3293FC"/>
<path d="M311.229 363.083C311.808 363.083 312.278 362.613 312.278 362.033C312.278 361.453 311.808 360.983 311.229 360.983C310.649 360.983 310.18 361.453 310.18 362.033C310.18 362.613 310.649 363.083 311.229 363.083Z" fill="white"/>
<path d="M322.852 363.083C323.431 363.083 323.901 362.613 323.901 362.033C323.901 361.453 323.431 360.983 322.852 360.983C322.272 360.983 321.803 361.453 321.803 362.033C321.803 362.613 322.272 363.083 322.852 363.083Z" fill="white"/>
</g>
<mask id="mask22_929_6688" style="mask-type:luminance" maskUnits="userSpaceOnUse" x="3" y="6" width="500" height="418">
<path d="M502.878 6.77148H3.00098V423.182H502.878V6.77148Z" fill="white"/>
</mask>
<g mask="url(#mask22_929_6688)">
<path d="M312.015 382.941L197.62 378.917C197.096 378.917 196.746 378.479 196.746 378.042C196.746 377.517 197.183 377.167 197.62 377.167L312.015 381.191C313.675 381.191 314.899 380.754 315.685 379.791C317.084 378.217 316.821 375.68 316.821 375.68V375.592V368.944C316.821 368.419 317.171 368.069 317.695 368.069C318.22 368.069 318.569 368.419 318.569 368.944V375.505C318.657 375.942 318.831 378.829 316.996 380.929C315.86 382.241 314.2 382.941 312.015 382.941Z" fill="#3293FC"/>
</g>
<mask id="mask23_929_6688" style="mask-type:luminance" maskUnits="userSpaceOnUse" x="3" y="6" width="500" height="418">
<path d="M502.878 6.77148H3.00098V423.182H502.878V6.77148Z" fill="white"/>
</mask>
<g mask="url(#mask23_929_6688)">
<path d="M190.017 378.304L141.689 376.467C141.165 376.467 140.815 376.03 140.815 375.592C140.815 375.067 141.252 374.717 141.689 374.717L189.929 376.555C190.454 376.555 190.803 376.992 190.803 377.429C190.891 377.954 190.541 378.304 190.017 378.304Z" fill="#3293FC"/>
</g>
<mask id="mask24_929_6688" style="mask-type:luminance" maskUnits="userSpaceOnUse" x="3" y="6" width="500" height="418">
<path d="M502.878 6.77148H3.00098V423.182H502.878V6.77148Z" fill="white"/>
</mask>
<g mask="url(#mask24_929_6688)">
<path d="M318.046 342.787C317.958 342.787 317.958 342.787 318.046 342.787C317.521 342.787 317.172 342.349 317.172 341.824L318.221 325.903L302.49 186.02C301.267 176.747 297.596 172.811 289.731 172.461H266.048C264.3 172.548 262.902 172.023 261.941 171.061C261.067 170.099 260.63 168.874 260.717 167.212L260.63 155.577C260.63 151.553 262.465 149.191 265.961 149.103L282.74 148.928C287.372 149.016 287.896 145.342 287.983 144.904C288.071 144.467 288.508 144.117 288.945 144.117C289.382 144.204 289.731 144.554 289.731 145.079C289.556 147.091 287.896 150.765 282.74 150.678L266.048 150.853C264.475 150.853 262.378 151.378 262.378 155.489L262.465 167.212C262.378 168.437 262.64 169.224 263.252 169.836C263.863 170.449 264.825 170.711 266.136 170.711H289.906C298.645 171.148 303.015 175.698 304.325 185.845L320.056 325.815C320.056 325.903 320.056 325.903 320.056 325.99L319.007 341.999C318.832 342.437 318.483 342.787 318.046 342.787Z" fill="#3293FC"/>
</g>
<mask id="mask25_929_6688" style="mask-type:luminance" maskUnits="userSpaceOnUse" x="3" y="6" width="500" height="418">
<path d="M502.878 6.77148H3.00098V423.182H502.878V6.77148Z" fill="white"/>
</mask>
<g mask="url(#mask25_929_6688)">
<path d="M252.676 351.272H251.977C251.453 351.272 251.103 350.835 251.103 350.397C251.103 349.873 251.453 349.523 251.977 349.523H252.589C254.074 349.523 255.385 349.523 255.385 349.523C255.822 349.523 256.259 349.873 256.259 350.397C256.259 350.922 255.909 351.272 255.385 351.272C255.473 351.272 254.162 351.272 252.676 351.272ZM246.908 350.397C246.733 350.397 246.646 350.398 246.471 350.31C245.248 349.61 244.286 348.648 243.762 347.423C243.587 346.986 243.762 346.461 244.199 346.286C244.636 346.111 245.16 346.286 245.335 346.723C245.772 347.598 246.471 348.298 247.345 348.823C247.782 349.085 247.957 349.61 247.695 350.048C247.52 350.223 247.258 350.397 246.908 350.397ZM243.849 342.787C243.325 342.787 242.976 342.437 242.976 341.912V338.413C242.976 337.888 243.325 337.538 243.849 337.538C244.374 337.538 244.723 337.888 244.723 338.413V341.912C244.723 342.437 244.374 342.787 243.849 342.787ZM243.849 334.039C243.325 334.039 242.976 333.689 242.976 333.164V329.664C242.976 329.14 243.325 328.79 243.849 328.79C244.374 328.79 244.723 329.14 244.723 329.664V333.164C244.723 333.689 244.374 334.039 243.849 334.039ZM243.849 325.29C243.325 325.29 242.976 324.94 242.976 324.416V320.916C242.976 320.391 243.325 320.042 243.849 320.042C244.374 320.042 244.723 320.391 244.723 320.916V324.416C244.723 324.94 244.374 325.29 243.849 325.29ZM243.849 316.542C243.325 316.542 242.976 316.192 242.976 315.667V312.168C242.976 311.643 243.325 311.293 243.849 311.293C244.374 311.293 244.723 311.643 244.723 312.168V315.667C244.723 316.192 244.374 316.542 243.849 316.542ZM243.849 307.794C243.325 307.794 242.976 307.444 242.976 306.919V303.42C242.976 302.895 243.325 302.545 243.849 302.545C244.374 302.545 244.723 302.895 244.723 303.42V306.919C244.723 307.444 244.374 307.794 243.849 307.794ZM243.849 299.046C243.325 299.046 242.976 298.696 242.976 298.171V294.672C242.976 294.147 243.325 293.797 243.849 293.797C244.374 293.797 244.723 294.147 244.723 294.672V298.171C244.723 298.696 244.374 299.046 243.849 299.046ZM243.849 290.298C243.325 290.298 242.976 289.948 242.976 289.423V285.924C242.976 285.399 243.325 285.049 243.849 285.049C244.374 285.049 244.723 285.399 244.723 285.924V289.423C244.723 289.948 244.374 290.298 243.849 290.298ZM243.849 281.55C243.325 281.55 242.976 281.2 242.976 280.675V277.176C242.976 276.651 243.325 276.301 243.849 276.301C244.374 276.301 244.723 276.651 244.723 277.176V280.675C244.723 281.2 244.374 281.55 243.849 281.55ZM243.849 272.802C243.325 272.802 242.976 272.452 242.976 271.927V268.428C242.976 267.903 243.325 267.553 243.849 267.553C244.374 267.553 244.723 267.903 244.723 268.428V271.927C244.723 272.452 244.374 272.802 243.849 272.802ZM243.849 264.054C243.325 264.054 242.976 263.704 242.976 263.179V259.68C242.976 259.155 243.325 258.805 243.849 258.805C244.374 258.805 244.723 259.155 244.723 259.68V263.179C244.723 263.704 244.374 264.054 243.849 264.054ZM243.849 255.305C243.325 255.305 242.976 254.956 242.976 254.431V250.931C242.976 250.407 243.325 250.057 243.849 250.057C244.374 250.057 244.723 250.407 244.723 250.931V254.431C244.723 254.956 244.374 255.305 243.849 255.305ZM243.849 246.557C243.325 246.557 242.976 246.207 242.976 245.683V242.183C242.976 241.658 243.325 241.309 243.849 241.309C244.374 241.309 244.723 241.658 244.723 242.183V245.683C244.723 246.207 244.374 246.557 243.849 246.557ZM243.849 237.809C243.325 237.809 242.976 237.459 242.976 236.934V233.435C242.976 232.91 243.325 232.56 243.849 232.56C244.374 232.56 244.723 232.91 244.723 233.435V236.934C244.723 237.459 244.374 237.809 243.849 237.809ZM243.849 229.061C243.325 229.061 242.976 228.711 242.976 228.186V224.687C242.976 224.162 243.325 223.812 243.849 223.812C244.374 223.812 244.723 224.162 244.723 224.687V228.186C244.723 228.711 244.374 229.061 243.849 229.061ZM243.849 220.313C243.325 220.313 242.976 219.963 242.976 219.438V215.939C242.976 215.414 243.325 215.064 243.849 215.064C244.374 215.064 244.723 215.414 244.723 215.939V219.438C244.723 219.963 244.374 220.313 243.849 220.313ZM243.849 211.565C243.325 211.565 242.976 211.215 242.976 210.69V207.191C242.976 206.666 243.325 206.316 243.849 206.316C244.374 206.316 244.723 206.666 244.723 207.191V210.69C244.723 211.215 244.374 211.565 243.849 211.565ZM243.937 202.817H243.849C243.413 202.729 242.976 202.379 243.063 201.854C243.15 200.542 243.413 199.405 243.762 198.268C243.937 197.83 244.374 197.568 244.811 197.655C245.248 197.83 245.51 198.268 245.423 198.705C245.16 199.755 244.898 200.805 244.811 202.029C244.723 202.467 244.374 202.817 243.937 202.817ZM246.908 194.769C246.733 194.769 246.471 194.681 246.384 194.594C246.034 194.244 245.947 193.719 246.296 193.369C247.17 192.407 248.132 191.532 249.268 191.007C249.705 190.744 250.229 190.919 250.491 191.357C250.753 191.794 250.579 192.319 250.142 192.581C249.18 193.106 248.394 193.719 247.695 194.594C247.345 194.681 247.17 194.769 246.908 194.769ZM253.812 189.432C253.637 189.432 253.375 189.345 253.2 189.17C252.851 188.82 252.851 188.295 253.2 187.945C253.987 187.158 254.599 186.283 255.123 185.321C255.385 184.883 255.909 184.708 256.346 184.971C256.783 185.233 256.958 185.758 256.696 186.195C256.084 187.245 255.385 188.295 254.511 189.17C254.249 189.345 253.987 189.432 253.812 189.432ZM257.483 181.734C257.395 181.734 257.395 181.734 257.308 181.734C256.871 181.646 256.521 181.209 256.609 180.772C256.783 179.722 256.871 178.672 256.871 177.447C256.871 177.01 257.308 176.572 257.745 176.572C258.269 176.572 258.619 177.01 258.619 177.447C258.619 178.759 258.531 179.984 258.356 181.034C258.269 181.384 257.919 181.734 257.483 181.734ZM257.657 172.898C257.22 172.898 256.783 172.548 256.783 172.023L256.696 168.524C256.696 167.999 257.046 167.649 257.57 167.649C258.094 167.649 258.444 167.999 258.444 168.524L258.531 172.023C258.531 172.548 258.094 172.898 257.657 172.898ZM257.395 164.15C256.958 164.15 256.521 163.8 256.521 163.275L256.434 159.776C256.434 159.251 256.783 158.901 257.308 158.901C257.832 158.901 258.182 159.251 258.182 159.776L258.269 163.275C258.269 163.713 257.919 164.15 257.395 164.15ZM257.133 155.402C256.696 155.402 256.259 155.052 256.259 154.527L256.172 151.028C256.172 150.503 256.521 150.153 257.046 150.153C257.57 150.153 257.919 150.503 257.919 151.028L258.007 154.527C258.007 154.965 257.657 155.402 257.133 155.402ZM256.871 146.654C256.434 146.654 255.997 146.304 255.997 145.779L255.909 142.28C255.909 141.755 256.259 141.405 256.783 141.405C257.22 141.405 257.657 141.755 257.657 142.28L257.745 145.779C257.745 146.216 257.395 146.566 256.871 146.654ZM256.609 137.818C256.172 137.818 255.735 137.468 255.735 136.943L255.647 133.444C255.647 132.919 255.997 132.569 256.521 132.569C257.046 132.569 257.395 132.919 257.395 133.444L257.483 136.943C257.57 137.468 257.133 137.818 256.609 137.818ZM256.434 129.07C255.997 129.07 255.56 128.72 255.56 128.195L255.473 124.696C255.473 124.171 255.822 123.821 256.346 123.821C256.871 123.821 257.22 124.171 257.22 124.696L257.308 128.195C257.308 128.633 256.871 129.07 256.434 129.07ZM256.172 120.322C255.735 120.322 255.298 119.972 255.298 119.447L255.21 115.948C255.21 115.423 255.56 115.073 256.084 115.073C256.609 115.073 256.958 115.423 256.958 115.948L257.046 119.447C257.046 119.885 256.696 120.322 256.172 120.322ZM255.909 111.574C255.473 111.574 255.036 111.224 255.036 110.699L254.948 107.2C254.948 106.675 255.298 106.325 255.822 106.325C256.346 106.325 256.696 106.675 256.696 107.2L256.783 110.699C256.783 111.137 256.434 111.486 255.909 111.574ZM255.735 102.738C255.298 102.738 254.861 102.388 254.861 101.864L254.773 98.3643C254.773 97.8394 255.123 97.4895 255.647 97.4895C256.084 97.4895 256.521 97.8394 256.521 98.3643L256.609 101.864C256.609 102.388 256.172 102.738 255.735 102.738ZM255.473 93.9902C255.036 93.9902 254.599 93.6403 254.599 93.1154L254.511 89.6162C254.511 89.0913 254.861 88.7413 255.385 88.7413C255.822 88.7413 256.259 89.0913 256.259 89.6162L256.346 93.1154C256.346 93.5528 255.997 93.9902 255.473 93.9902ZM255.21 85.1546C254.773 85.1546 254.336 84.8047 254.336 84.2798C254.336 83.9299 254.336 83.7549 254.336 83.6674C254.336 82.9676 254.424 81.8303 254.861 80.5181C255.036 80.0807 255.473 79.8183 255.997 79.9932C256.434 80.1682 256.696 80.6056 256.521 81.1305C256.172 82.1803 256.084 83.23 256.084 83.6674C256.084 83.7549 256.084 83.9299 256.084 84.2798C256.172 84.8047 255.735 85.1546 255.21 85.1546C255.298 85.1546 255.298 85.1546 255.21 85.1546ZM258.968 77.8062C258.619 77.8062 258.356 77.6312 258.182 77.3688C257.919 76.9314 258.094 76.4065 258.531 76.1441C259.58 75.5317 260.803 75.1818 262.202 75.0068C262.639 74.9193 263.076 75.2693 263.163 75.7941C263.25 76.2315 262.901 76.6689 262.376 76.7564C261.24 76.8439 260.192 77.1938 259.405 77.6312C259.23 77.7187 259.056 77.8062 258.968 77.8062Z" fill="#3293FC"/>
</g>
<mask id="mask26_929_6688" style="mask-type:luminance" maskUnits="userSpaceOnUse" x="3" y="6" width="500" height="418">
<path d="M502.878 6.77148H3.00098V423.182H502.878V6.77148Z" fill="white"/>
</mask>
<g mask="url(#mask26_929_6688)">
<path d="M52.9006 372.18L-5.12707 369.731C-5.65141 369.731 -6.00098 369.293 -6.00098 368.856C-6.00098 368.419 -5.56402 367.981 -5.12707 367.981L52.9006 370.431C53.425 370.431 53.7745 370.868 53.7745 371.306C53.7745 371.83 53.3376 372.18 52.9006 372.18Z" fill="#3293FC"/>
</g>
<mask id="mask27_929_6688" style="mask-type:luminance" maskUnits="userSpaceOnUse" x="3" y="6" width="500" height="418">
<path d="M502.878 6.77148H3.00098V423.182H502.878V6.77148Z" fill="white"/>
</mask>
<g mask="url(#mask27_929_6688)">
<path d="M187.134 381.016L192.639 377.429L187.134 373.93V381.016Z" fill="#3293FC"/>
<path d="M187.134 381.453C187.047 381.453 186.959 381.453 186.959 381.366C186.785 381.278 186.697 381.103 186.697 381.016V373.93C186.697 373.755 186.785 373.58 186.959 373.58C187.134 373.493 187.309 373.493 187.396 373.58L192.902 377.079C192.989 377.167 193.077 377.254 193.077 377.429C193.077 377.604 192.989 377.692 192.902 377.779L187.396 381.278C187.309 381.366 187.222 381.453 187.134 381.453ZM187.571 374.717V380.141L191.853 377.429L187.571 374.717Z" fill="#3293FC"/>
</g>
<mask id="mask28_929_6688" style="mask-type:luminance" maskUnits="userSpaceOnUse" x="3" y="6" width="500" height="418">
<path d="M502.878 6.77148H3.00098V423.182H502.878V6.77148Z" fill="white"/>
</mask>
<g mask="url(#mask28_929_6688)">
<path d="M310.618 351.622V346.111C310.618 345.061 309.831 344.274 308.782 344.274C307.734 344.274 306.947 345.061 306.947 346.111V351.622H310.618Z" fill="#3293FC"/>
<path d="M317.261 346.986H308.958C308.521 346.986 308.172 346.636 308.172 346.199C308.172 345.761 308.521 345.411 308.958 345.411H317.261C317.698 345.411 318.047 345.761 318.047 346.199C318.047 346.636 317.698 346.986 317.261 346.986Z" fill="white"/>
<path d="M317.26 347.336H308.958C308.347 347.336 307.822 346.811 307.822 346.199C307.822 345.586 308.347 345.061 308.958 345.061H317.26C317.872 345.061 318.397 345.586 318.397 346.199C318.397 346.811 317.872 347.336 317.26 347.336ZM308.958 345.849C308.784 345.849 308.609 346.024 308.609 346.199C308.609 346.374 308.784 346.549 308.958 346.549H317.26C317.435 346.549 317.61 346.374 317.61 346.199C317.61 346.024 317.435 345.849 317.26 345.849H308.958Z" fill="#3293FC"/>
<path d="M310.355 345.499C310.268 345.411 310.093 345.411 310.005 345.499L308.781 346.724C308.694 346.811 308.694 346.986 308.781 347.074C308.869 347.161 308.869 347.161 308.956 347.161C309.044 347.161 309.131 347.161 309.131 347.074L310.355 345.849C310.442 345.761 310.442 345.586 310.355 345.499Z" fill="#3293FC"/>
<path d="M312.015 345.499C311.928 345.411 311.753 345.411 311.665 345.499L310.442 346.724C310.354 346.811 310.354 346.986 310.442 347.074C310.529 347.161 310.529 347.161 310.616 347.161C310.704 347.161 310.791 347.161 310.791 347.074L312.015 345.849C312.19 345.761 312.19 345.586 312.015 345.499Z" fill="#3293FC"/>
<path d="M313.675 345.499C313.588 345.411 313.413 345.411 313.326 345.499L312.102 346.724C312.014 346.811 312.014 346.986 312.102 347.074C312.189 347.161 312.189 347.161 312.277 347.161C312.364 347.161 312.451 347.161 312.451 347.074L313.675 345.849C313.763 345.761 313.763 345.586 313.675 345.499Z" fill="#3293FC"/>
<path d="M315.424 345.499C315.337 345.411 315.162 345.411 315.075 345.499L313.851 346.724C313.763 346.811 313.763 346.986 313.851 347.074C313.938 347.161 313.938 347.161 314.026 347.161C314.113 347.161 314.2 347.161 314.2 347.074L315.424 345.849C315.512 345.761 315.512 345.586 315.424 345.499Z" fill="#3293FC"/>
<path d="M317.085 345.499C316.997 345.411 316.822 345.411 316.735 345.499L315.511 346.724C315.423 346.811 315.423 346.986 315.511 347.074C315.598 347.161 315.598 347.161 315.686 347.161C315.773 347.161 315.861 347.161 315.861 347.074L317.085 345.849C317.172 345.761 317.172 345.586 317.085 345.499Z" fill="#3293FC"/>
</g>
<mask id="mask29_929_6688" style="mask-type:luminance" maskUnits="userSpaceOnUse" x="3" y="6" width="500" height="418">
<path d="M502.878 6.77148H3.00098V423.182H502.878V6.77148Z" fill="white"/>
</mask>
<g mask="url(#mask29_929_6688)">
<path d="M298.906 100.989C298.906 94.4278 293.575 89.0914 287.021 89.0914C280.467 89.0914 275.136 94.4278 275.136 100.989C275.136 105.8 277.932 109.912 282.04 111.837C282.04 111.837 282.04 111.837 282.127 111.837C282.302 111.924 282.564 112.011 282.739 112.099C283.962 112.711 286.409 114.461 287.108 118.923C287.108 118.923 287.545 113.936 292.177 111.837C296.11 109.912 298.906 105.8 298.906 100.989Z" fill="white"/>
<path d="M287.021 119.36C286.847 119.36 286.584 119.185 286.584 119.01C285.885 114.811 283.7 113.149 282.477 112.536C282.302 112.449 282.127 112.361 281.865 112.274C281.865 112.274 281.778 112.274 281.778 112.186C277.496 110.174 274.699 105.8 274.699 100.989C274.699 94.1652 280.205 88.6539 287.021 88.6539C293.838 88.6539 299.343 94.1652 299.343 100.989C299.343 105.713 296.547 110.087 292.265 112.186C292.265 112.186 292.177 112.186 292.177 112.274C287.895 114.198 287.371 118.922 287.371 119.01C287.458 119.185 287.196 119.36 287.021 119.36ZM282.215 111.487C282.39 111.574 282.652 111.661 282.827 111.749C284.05 112.361 285.973 113.761 287.021 116.998C287.633 115.248 288.857 112.886 291.74 111.487C291.74 111.487 291.828 111.487 291.828 111.399C295.848 109.562 298.47 105.45 298.47 100.989C298.47 94.6901 293.314 89.5287 287.021 89.5287C280.729 89.5287 275.573 94.6901 275.573 100.989C275.486 105.45 278.107 109.562 282.215 111.487C282.215 111.399 282.215 111.399 282.215 111.487Z" fill="#3293FC"/>
<path d="M287.022 103.788C288.663 103.788 289.993 102.457 289.993 100.814C289.993 99.1711 288.663 97.8395 287.022 97.8395C285.381 97.8395 284.051 99.1711 284.051 100.814C284.051 102.457 285.381 103.788 287.022 103.788Z" fill="#3293FC"/>
<path d="M287.023 104.313C285.1 104.313 283.614 102.738 283.614 100.901C283.614 99.0642 285.187 97.4895 287.023 97.4895C288.858 97.4895 290.431 99.0642 290.431 100.901C290.431 102.738 288.858 104.313 287.023 104.313ZM287.023 98.2768C285.624 98.2768 284.488 99.4141 284.488 100.814C284.488 102.213 285.624 103.351 287.023 103.351C288.421 103.351 289.557 102.213 289.557 100.814C289.557 99.4141 288.421 98.2768 287.023 98.2768Z" fill="#3293FC"/>
</g>
</svg>
