<svg width="41" height="50" viewBox="0 0 41 50" fill="none" xmlns="http://www.w3.org/2000/svg">
<path d="M1.69995 45.7C2.59995 46.7 4.19995 48.9 6.79995 48.9H34.2999C36.8999 48.9 39.5999 46.2 39.5999 43.6V15.2C39.5999 14.1 38.7 13.1 37.7 12.1" stroke="#3293FC" stroke-miterlimit="10"/>
<path d="M37.9 12.2V42.6C37.9 45.2 35.8 47.3 33.2 47.3H5.2C2.6 47.3 0.5 45.2 0.5 42.6V5.2C0.5 2.6 2.6 0.5 5.2 0.5H27L37.9 12.2Z" stroke="#3293FC" stroke-miterlimit="10"/>
<path d="M38.1999 12.3H31.5999C28.9999 12.3 26.8999 10.2 26.8999 7.6L26.9999 0.5" stroke="#3293FC" stroke-miterlimit="10"/>
<path d="M9.3999 17.1H12.3999C12.6999 17.1 12.9999 17.1 13.2999 17.2C13.5999 17.3 13.8999 17.4 14.1999 17.7C14.4999 17.9 14.6999 18.1 14.7999 18.5C14.9999 18.8 15.0999 19.2 15.0999 19.7C15.0999 20.3 14.8999 20.9 14.4999 21.4C14.0999 21.9 13.3999 22.2 12.5999 22.2H10.6999V25.4H9.3999V17.1ZM10.6999 20.9H12.5999C13.0999 20.9 13.3999 20.7 13.5999 20.5C13.7999 20.2 13.8999 19.9 13.8999 19.6C13.8999 19.3 13.8999 19.1 13.7999 18.9C13.6999 18.7 13.5999 18.6 13.3999 18.5C13.0999 18.3 12.7999 18.3 12.4999 18.3H10.6999V20.9Z" fill="#3293FC"/>
<path d="M16.2998 17.1H19.1998C20.2998 17.1 21.1998 17.6 21.6998 18.5C21.8998 18.8 21.9998 19.1 22.0998 19.5C22.0998 19.8 22.1998 20.4 22.1998 21.3C22.1998 22.2 22.1998 22.8 22.0998 23.2C22.0998 23.4 21.9998 23.5 21.9998 23.7C21.8998 23.8 21.8998 24 21.7998 24.1C21.5998 24.5 21.1998 24.8 20.7998 25.1C20.3998 25.4 19.7998 25.5 19.1998 25.5H16.3998V17.1H16.2998ZM17.4998 24.2H18.9998C19.6998 24.2 20.1998 24 20.4998 23.5C20.5998 23.3 20.6998 23.1 20.7998 22.8C20.7998 22.5 20.8998 22 20.8998 21.3C20.8998 20.6 20.8998 20.1 20.7998 19.8C20.7998 19.5 20.5998 19.2 20.4998 19C20.1998 18.5 19.6998 18.3 18.9998 18.3H17.4998V24.2Z" fill="#3293FC"/>
<path d="M23.5999 17.1H28.8999V18.3H24.8999V20.7H28.2999V21.8H24.8999V25.3H23.5999V17.1Z" fill="#3293FC"/>
<path d="M9.3999 29H29.1999" stroke="#3293FC" stroke-width="2" stroke-miterlimit="10"/>
<path d="M9.3999 32.5H25.0999" stroke="#3293FC" stroke-width="2" stroke-miterlimit="10"/>
<path d="M9.3999 36H20.9999" stroke="#3293FC" stroke-width="2" stroke-miterlimit="10"/>
</svg>
