<svg width="142" height="95" viewBox="0 0 142 95" fill="none" xmlns="http://www.w3.org/2000/svg">
<g clip-path="url(#clip0_929_3498)">
<path fill-rule="evenodd" clip-rule="evenodd" d="M68.3854 28.0961H73.6151V59.3299H68.3854V28.0961ZM74.6683 33.2897H79.8979V59.2939H74.6683V33.2897ZM62.1025 33.2897H67.3322V59.2939H62.1025V33.2897Z" fill="#FFD300"/>
<path fill-rule="evenodd" clip-rule="evenodd" d="M80.9868 11.4332H86.2164V36.3914L80.9868 41.6211V11.4332ZM79.9336 32.2437H74.6676V5.19362H79.8973L79.9336 32.2437ZM68.3847 0H73.6144V27.0501H68.3847V0ZM67.3315 32.2437H62.1019V5.19362H67.3315V32.2437ZM55.819 11.4332H61.0487V41.6572L55.819 36.4275V11.4332ZM49.5361 17.6727H54.7658V35.3815L49.5361 30.1879V17.6727ZM87.2696 17.6727H92.4993V30.1879L87.2696 35.3455V17.6727Z" fill="#1D1D1B"/>
<path d="M28.582 74.8026C28.6183 74.2255 28.473 73.6845 28.1462 73.2156C27.8556 72.891 27.1656 72.7107 26.1124 72.7107H23.8607C22.9165 72.7107 22.2628 72.891 21.9359 73.2517C21.5728 73.6845 21.4275 74.2255 21.4275 74.8026V77.7961C21.3912 78.3732 21.5728 78.9142 21.9359 79.347C22.2628 79.7077 22.9165 79.888 23.8607 79.888H26.1124C27.1656 79.888 27.8193 79.7077 28.1099 79.3831C28.4367 78.9142 28.582 78.3732 28.582 77.7961V74.8026ZM31.5963 81.9078C30.9426 82.557 29.7078 82.8816 27.9283 82.8816H22.1175C20.3743 82.8816 19.1395 82.5569 18.4858 81.9438C17.8321 81.3307 17.4326 80.3569 17.4326 79.0945V73.5042C17.4326 72.2058 17.7595 71.3041 18.4495 70.6549C19.1395 70.0057 20.338 69.7172 22.0812 69.7172H27.892C29.6715 69.7172 30.87 70.0418 31.56 70.691C32.25 71.3402 32.5405 72.2779 32.5405 73.5042V79.0945C32.5405 80.3569 32.2137 81.2946 31.5963 81.9078Z" fill="#1D1D1B"/>
<path d="M49.0278 81.9078C48.374 82.557 47.1756 82.8816 45.396 82.8816H39.5853C37.8421 82.8816 36.6073 82.5569 35.9173 81.9438C35.2272 81.3307 34.9004 80.3569 34.9004 79.0945V73.5042C34.9004 72.2058 35.2272 71.3041 35.9173 70.6549C36.6073 70.0057 37.8421 69.7172 39.5853 69.7172H45.396C47.1393 69.7172 48.374 70.0418 49.0278 70.691C49.6815 71.3402 50.0083 72.2779 50.0083 73.5042V74.8026H46.0134C46.0498 74.2255 45.9045 73.6845 45.5413 73.2156C45.2508 72.891 44.5608 72.7107 43.5076 72.7107H41.2922C40.3116 72.7107 39.6579 72.891 39.3674 73.2517C39.0042 73.6845 38.8226 74.2255 38.859 74.8026V77.7961C38.8226 78.3732 39.0042 78.9142 39.3674 79.347C39.6943 79.7077 40.348 79.888 41.2922 79.888H43.5076C44.5608 79.888 45.2508 79.7077 45.5413 79.3831C45.8682 78.9142 46.0498 78.3371 46.0134 77.7601H49.972V79.0585C50.0083 80.3569 49.6815 81.2946 49.0278 81.9078Z" fill="#1D1D1B"/>
<path d="M56.2916 82.9176H52.333V79.1306V73.5402V69.7172H56.2916V74.7665H63.446V69.7172H67.4409V73.5402V79.1306V82.9176H63.446V77.7601H56.2916V82.9176Z" fill="#1D1D1B"/>
<path d="M74.8863 77.7601H73.7605C73.7242 78.3371 73.9058 78.9142 74.2689 79.347C74.5958 79.7077 75.2495 79.888 76.2301 79.888H84.9099V82.8816H74.4505C72.7073 82.8816 71.4725 82.5569 70.7825 81.9438C70.0925 81.3307 69.7656 80.3569 69.7656 79.0945V73.5042C69.7656 72.2058 70.0925 71.3041 70.7825 70.6549C71.4725 70.0057 72.7073 69.7172 74.4505 69.7172H84.9099V72.7107H76.2301C75.2858 72.7107 74.6321 72.891 74.2689 73.2517C73.9421 73.6845 73.7605 74.2255 73.7605 74.7665H84.9099V77.7601H74.8863Z" fill="#1D1D1B"/>
<path d="M115.489 72.7107H110.005V69.7172H114.617H120.428H125.149V72.7107H119.447V82.9176H115.489V72.7107Z" fill="#1D1D1B"/>
<path d="M91.0471 76.3535C91.0471 74.6944 92.4271 74.8747 92.4271 74.8747H96.422V77.6519H92.3908C91.7008 77.6879 91.0834 77.1469 91.0471 76.4617C91.0471 76.4617 91.0471 76.3895 91.0471 76.3535ZM104.412 77.6879H100.381V74.9108H104.375C104.375 74.9108 105.756 74.7305 105.756 76.3895C105.792 77.0748 105.247 77.6879 104.557 77.724C104.484 77.6879 104.448 77.6879 104.412 77.6879ZM106.518 72.0976H100.381V69.7172H96.4583V72.0976H90.1392C90.1392 72.0976 86.5801 72.2058 86.5801 76.2453C86.5801 80.2847 90.2481 80.2847 90.2481 80.2847H96.4583V82.8816H100.381V80.2847H106.409C106.409 80.2847 110.077 80.2487 110.077 76.2453C110.077 72.2418 106.518 72.0976 106.518 72.0976Z" fill="#1D1D1B"/>
<path d="M9.84194 75.3797H3.95857V72.7468H9.84194C10.5683 72.7828 11.1494 73.396 11.113 74.1173C11.0404 74.8026 10.532 75.3436 9.84194 75.3797ZM14.1274 70.691C13.4737 70.0418 12.2752 69.7172 10.4957 69.7172H0V82.9176H3.95857V78.3732H10.4957C12.2752 78.3732 13.4737 78.0486 14.1274 77.3994C14.7811 76.7502 15.1079 75.8125 15.1079 74.5862V73.5402C15.1079 72.2779 14.7811 71.3402 14.1274 70.691Z" fill="#1D1D1B"/>
<path d="M138.042 78.5896C138.042 79.3109 137.424 79.888 136.698 79.9241H130.851V77.2551H136.698C137.461 77.2551 138.042 77.8683 138.042 78.5896ZM142 79.1306V78.0847C142 76.8584 141.673 75.9207 141.056 75.2354C140.439 74.5501 139.168 74.2616 137.424 74.2616H130.887V69.7172H126.929V82.8816H137.424C139.204 82.8816 140.402 82.557 141.056 81.9078C141.71 81.2585 142 80.3569 142 79.1306Z" fill="#1D1D1B"/>
</g>
<defs>
<clipPath id="clip0_929_3498">
<rect width="142" height="95" fill="white"/>
</clipPath>
</defs>
</svg>
