<svg width="179" height="48" viewBox="0 0 179 48" fill="none" xmlns="http://www.w3.org/2000/svg">
<g clip-path="url(#clip0_929_3643)">
<path d="M33.7393 14.6023C33.7393 14.6023 34.5797 5.19984 34.6661 4.26818C34.6893 3.73321 34.6039 3.19903 34.415 2.69744C34.2262 2.19584 33.9375 1.73704 33.5663 1.34825C33.1951 0.95947 32.7491 0.648634 32.2545 0.434228C31.7598 0.219824 31.2269 0.106224 30.687 0.100149H6.73888C5.63591 0.0221795 4.54642 0.378734 3.70669 1.09244C2.86698 1.80614 2.34474 2.81943 2.25321 3.91262C2.14199 5.02817 0.164843 27.7805 0.0289141 29.0923C-0.0386132 29.6493 0.0124544 30.214 0.178807 30.7502C0.345158 31.2863 0.623094 31.7819 0.994641 32.2047C1.36619 32.6277 1.82307 32.9686 2.33575 33.2053C2.84842 33.4419 3.40546 33.5692 3.97086 33.5789H27.7708C30.9342 33.5789 32.1577 31.924 32.4294 29.3742C32.5901 27.8296 33.3686 18.5742 33.3686 18.5742H18.9848L18.3546 25.7088H14.7711L16.3404 7.93354H19.9734L19.4049 14.5778L33.7393 14.6023Z" fill="#0A8C95"/>
<path d="M55.9453 2.96872C55.4387 4.43978 51.2495 17.4464 51.2495 17.4464L53.0784 0.100123H38.7317L35.7783 33.5789H46.6155C47.5171 33.6618 48.4198 33.4322 49.1699 32.9295C49.9202 32.4266 50.4716 31.6813 50.7306 30.8207L55.2532 18.4147L53.7952 33.5789H68.1912L71.157 0.100123H59.8502C58.9808 0.0926582 58.1331 0.369676 57.4385 0.888221C56.7438 1.40677 56.2406 2.13796 56.0071 2.96872" fill="#0A8C95"/>
<path d="M128.852 0.100098L127.505 15.3745H123.86L125.207 0.100098H110.811C110.811 0.100098 109.427 16.2573 109.291 17.8264C109.207 18.3973 109.251 18.9794 109.419 19.5317C109.587 20.084 109.875 20.5932 110.262 21.0232C110.65 21.4533 111.128 21.7937 111.662 22.0208C112.197 22.248 112.775 22.3561 113.356 22.3376H126.888L126.591 25.7333H108.587L107.895 33.5912H136.526C137.594 33.601 138.622 33.1914 139.386 32.4518C140.15 31.7122 140.588 30.7027 140.604 29.6439C140.765 27.9153 143.236 0.100098 143.236 0.100098H128.852Z" fill="#0A8C95"/>
<path d="M166.405 0.100161H146.869L143.916 33.5789H158.3L159.214 23.2203H173.203C175.675 23.2203 177.318 21.9944 177.577 19.089C177.676 17.9736 178.813 5.28564 178.9 4.15783C179.072 1.70607 177.083 0.0878906 174.623 0.0878906L166.405 0.100161ZM159.833 16.2573L160.561 7.95811H164.169L163.428 16.2573H159.833Z" fill="#0A8C95"/>
<path d="M88.1484 11.3537L88.4573 7.95803H106.474L107.178 0.100098H74.7532L71.7998 33.5789H100.518C101.041 33.5936 101.562 33.505 102.051 33.3184C102.54 33.1316 102.986 32.8504 103.364 32.4912C103.743 32.1319 104.045 31.7018 104.254 31.2257C104.464 30.7494 104.575 30.2368 104.583 29.7175C104.781 27.6089 105.659 17.6547 105.819 15.8527C105.898 15.2583 105.84 14.654 105.651 14.0845C105.463 13.5151 105.147 12.9951 104.728 12.563C104.309 12.131 103.798 11.7979 103.232 11.5885C102.665 11.3792 102.059 11.2989 101.457 11.3537H88.1484ZM90.4838 26.6282H86.7768L87.5058 18.3166H91.213L90.4838 26.6282Z" fill="#0A8C95"/>
<path d="M116.409 42.4175H114.506L114.629 41.0446H120.005L119.881 42.4175H118.015L117.533 47.7868H115.927L116.409 42.4175Z" fill="#0A8C95"/>
<path d="M122.995 45.1023V44.9551H121.895L121.636 47.7992H120.042L120.647 41.0569H122.279L122.044 43.6189H123.144C123.302 42.8403 123.729 42.1411 124.352 41.6421C124.975 41.1429 125.754 40.8753 126.554 40.8853C126.964 40.8484 127.378 40.8936 127.77 41.0181C128.162 41.1428 128.525 41.3443 128.838 41.6106C129.15 41.8771 129.405 42.203 129.588 42.569C129.771 42.935 129.878 43.3337 129.903 43.7415C129.998 44.2521 129.98 44.7773 129.85 45.2802C129.72 45.783 129.48 46.2516 129.148 46.6531C128.816 47.0547 128.4 47.3797 127.929 47.6051C127.457 47.8305 126.942 47.9512 126.418 47.9586C126.003 48.0041 125.582 47.9655 125.182 47.8451C124.782 47.7246 124.41 47.5247 124.09 47.2577C123.77 46.9906 123.508 46.6619 123.32 46.2914C123.132 45.9209 123.021 45.5163 122.995 45.1023ZM128.21 43.8764C128.207 43.6596 128.16 43.4456 128.073 43.2466C127.986 43.0478 127.861 42.868 127.703 42.7176C127.546 42.567 127.36 42.449 127.156 42.3701C126.953 42.2914 126.736 42.2533 126.517 42.2582C125.22 42.2582 124.515 43.6067 124.626 44.9306C124.639 45.3684 124.826 45.7838 125.145 46.0865C125.464 46.3894 125.89 46.5553 126.332 46.5488C127.666 46.5488 128.321 45.2249 128.21 43.8886V43.8764Z" fill="#0A8C95"/>
<path d="M131.102 41.0446H133.351L134.524 45.4209H134.562L136.477 41.0446H138.862L138.256 47.7868H136.687L137.157 42.9692H137.107L134.895 47.7868H133.758L132.436 42.9692H132.387L132.004 47.7868H130.496L131.102 41.0446Z" fill="#0A8C95"/>
<path d="M140.159 41.0446H144.521L144.41 42.4052H141.568L141.457 43.7046H144.151L144.039 44.9795H141.333L141.21 46.4262H144.324L144.2 47.7868H139.554L140.159 41.0446Z" fill="#0A8C95"/>
<path d="M145.708 41.0446H147.314L147.08 43.6189H149.736L149.959 41.0446H151.578L150.959 47.7868H149.366L149.613 44.9551H146.968L146.697 47.7868H145.103L145.708 41.0446Z" fill="#0A8C95"/>
<path d="M152.875 41.0568H154.469L154.247 43.5086H154.852C156.495 43.5086 157.46 44.2441 157.571 45.4332C157.707 47.0759 156.557 47.7869 154.704 47.7869H152.232L152.875 41.0568ZM154.593 46.512C155.469 46.512 156.013 46.2668 155.952 45.568C155.89 44.8693 155.42 44.7835 154.716 44.7835H154.123L153.963 46.512H154.593Z" fill="#0A8C95"/>
<path d="M158.795 41.0446H162.983L162.86 42.4175H160.265L159.784 47.7868H158.188L158.795 41.0446Z" fill="#0A8C95"/>
<path d="M165.282 41.0568H166.838L168.729 47.7992H167.048L166.69 46.4506H164.07L163.366 47.7992H161.537L165.282 41.0568ZM166.419 45.1757L165.85 42.724L164.614 45.1757H166.419Z" fill="#0A8C95"/>
<path d="M168.854 46.892L169.88 45.9113C170.05 46.15 170.28 46.3431 170.545 46.4735C170.81 46.6039 171.103 46.6676 171.398 46.6591C172.102 46.6591 172.634 46.3526 172.561 45.7029C172.486 45.0531 171.968 44.9796 171.325 44.9796H170.831L170.942 43.7537H171.448C172.14 43.7537 172.745 43.6066 172.684 42.9324C172.639 42.7115 172.513 42.5152 172.33 42.3816C172.147 42.2479 171.921 42.1865 171.695 42.2093C171.178 42.2054 170.682 42.4036 170.311 42.7607L169.471 41.7801C170.098 41.2219 170.915 40.9198 171.756 40.9342C173.326 40.9342 174.143 41.5349 174.228 42.6136C174.279 43.0059 174.18 43.4024 173.951 43.7264C173.723 44.0503 173.382 44.2786 172.992 44.3667C173.302 44.4348 173.584 44.5983 173.794 44.8338C174.005 45.0693 174.135 45.3649 174.167 45.6783C174.315 47.3334 172.931 47.9831 171.634 47.9831C171.117 48.0208 170.599 47.9422 170.118 47.7533C169.635 47.5644 169.204 47.2701 168.854 46.892Z" fill="#0A8C95"/>
<path d="M0.696289 45.1514H110.614V44.6243H0.696289" fill="#0A8C95"/>
</g>
<defs>
<clipPath id="clip0_929_3643">
<rect width="179" height="48" fill="white"/>
</clipPath>
</defs>
</svg>
