<svg width="64" height="58" viewBox="0 0 64 58" fill="none" xmlns="http://www.w3.org/2000/svg">
<g clip-path="url(#clip0_692_249)">
<path d="M63.4173 24.1374C63.4173 42.5333 48.6121 57.4141 30.3098 57.4141C13.8726 57.4141 0.583008 44.0566 0.583008 27.5354C0.583008 12.6545 12.5903 0.585857 27.3954 0.585857C40.685 0.585857 51.5265 11.4828 51.5265 24.8404C51.5265 36.9091 41.8508 46.6343 29.8435 46.6343" stroke="#3293FC" stroke-miterlimit="10"/>
<path d="M29.727 46.6343C19.585 46.6343 11.3081 38.3151 11.3081 28.1212C11.3081 18.9818 18.7689 11.4828 27.8618 11.4828" stroke="#3293FC" stroke-miterlimit="10"/>
<path d="M27.8618 11.4828C34.8564 11.4828 40.452 17.1071 40.452 24.1374C40.452 30.3475 35.3227 35.503 29.1441 35.503" stroke="#3293FC" stroke-miterlimit="10"/>
<path d="M29.2606 35.503C25.4137 35.503 22.2661 32.4566 22.2661 28.5899C22.2661 25.1919 25.0639 22.3798 28.5612 22.3798" stroke="#3293FC" stroke-miterlimit="10"/>
</g>
<defs>
<clipPath id="clip0_692_249">
<rect width="64" height="58" fill="white"/>
</clipPath>
</defs>
</svg>
