<svg width="179" height="49" viewBox="0 0 179 49" fill="none" xmlns="http://www.w3.org/2000/svg">
<path fill-rule="evenodd" clip-rule="evenodd" d="M20.213 10.2084C23.3436 18.2389 18.1714 23.4111 13.1353 28.4473C8.37137 33.7556 4.15193 39.2 12.5908 49C9.46026 40.9695 14.6325 35.7973 19.6686 30.7612C24.4325 25.5889 28.5158 20.1445 20.213 10.2084Z" fill="#E9444B"/>
<path fill-rule="evenodd" clip-rule="evenodd" d="M12.4542 0C15.5848 8.03056 10.5487 13.2028 5.37647 18.2389C0.612582 23.5472 -3.60686 28.9917 4.83203 38.7917C1.70147 30.8972 6.87369 25.725 11.9098 20.6889C16.8098 15.3806 21.0292 9.8 12.4542 0Z" fill="#71BB74"/>
<path fill-rule="evenodd" clip-rule="evenodd" d="M142.168 31.714V48.0473H149.382V42.1946H157.141V38.5195H149.382V35.389H164.899V48.0473H172.113V35.389H178.646V31.714H142.168Z" fill="#71BB74"/>
<path fill-rule="evenodd" clip-rule="evenodd" d="M126.787 44.6445V41.7862H136.179V38.1112H126.787V35.389H138.765V31.714H119.573V48.0473H138.901V44.6445H126.787Z" fill="#71BB74"/>
<path fill-rule="evenodd" clip-rule="evenodd" d="M51.2462 31.714H31.374V35.389H37.6351V48.0473H44.849V35.389H51.2462V31.714Z" fill="#E9444B"/>
<path fill-rule="evenodd" clip-rule="evenodd" d="M65.4018 31.714H59.9574V35.6612L60.0935 35.5251L63.224 41.7862H59.9574V45.189H64.9935L66.4907 48.0473H74.3852L65.4018 31.714ZM59.8213 31.714H57.6435L48.6602 48.0473H53.2879L54.7852 45.189H59.8213V41.7862H56.5546L59.8213 35.6612V31.714Z" fill="#E9444B"/>
<path fill-rule="evenodd" clip-rule="evenodd" d="M110.726 31.714V39.8807L99.293 31.714H93.7124V48.0473H98.6124V39.064L110.454 48.0473H115.626V31.714H110.726Z" fill="#71BB74"/>
<path fill-rule="evenodd" clip-rule="evenodd" d="M91.2624 31.714H71.9346V35.389H78.3318V48.0473H85.4096V35.389H91.2624V31.714Z" fill="#E9444B"/>
</svg>
