<svg width="186" height="19" viewBox="0 0 186 19" fill="none" xmlns="http://www.w3.org/2000/svg">
<g clip-path="url(#clip0_929_3660)">
<path fill-rule="evenodd" clip-rule="evenodd" d="M19.4365 0H20.2772C20.6104 0.0278568 20.9384 0.0835704 21.2689 0.139284C20.4152 1.43843 19.5641 2.73757 18.7025 4.03165C19.2517 3.04652 19.8347 2.08167 20.3918 1.10161C19.158 0.987655 17.8695 1.24849 16.8439 1.94492C16.2921 2.31465 15.9199 2.87179 15.5503 3.4036C14.5196 4.94839 13.6163 6.56915 12.6116 8.12912C11.8932 9.2485 11.1488 10.3602 10.2325 11.3377C9.77699 11.8012 9.27987 12.2697 8.64733 12.4874C8.09289 12.6445 7.51246 12.642 6.94243 12.7052C7.49427 12.604 8.08773 12.6293 8.5953 12.3659C9.37879 11.9328 9.94098 11.2187 10.472 10.5273C12.3643 7.93412 13.6398 4.97878 15.3317 2.26653C13.3327 0.924343 10.7609 0.42545 8.39223 0.959796C6.42704 1.38525 4.65184 2.51218 3.39983 4.03925C2.76471 3.96327 2.11919 4.04684 1.52832 4.27729C2.33263 3.11237 3.39202 2.11205 4.64143 1.40297C6.33854 0.42545 8.36102 0 10.3262 0.192466C12.1639 0.359607 13.9365 1.08642 15.3655 2.22095C16.1881 0.828111 17.8487 0.131687 19.4365 0Z" fill="#005A9C"/>
<path fill-rule="evenodd" clip-rule="evenodd" d="M0.704912 5.72524C0.00732853 7.36627 -0.185288 9.20991 0.184328 10.9522C0.538326 12.7325 1.47017 14.3913 2.78205 15.6752C5.2236 18.1773 9.23995 19.0205 12.5457 17.8176C14.149 17.2301 15.6405 16.2804 16.6973 14.956C15.0679 15.6727 13.225 15.8778 11.4602 15.6119C8.27164 15.1333 5.23141 13.2871 3.66965 10.5014C3.02673 9.3213 2.51916 7.91833 2.95905 6.58879C3.19852 5.94809 3.52129 5.20102 4.25271 4.9731C3.61239 4.74011 2.92261 4.5755 2.23544 4.67933C1.59772 4.76797 0.983431 5.14784 0.704912 5.72524Z" fill="#005A9C"/>
<path fill-rule="evenodd" clip-rule="evenodd" d="M18.5525 6.15632C18.0267 6.2171 17.4827 6.34119 17.0584 6.66281C16.3295 7.19461 15.7361 7.87333 15.1582 8.55199C14.2056 9.7119 13.2008 10.8287 12.2013 11.9505C11.725 12.4697 11.1913 12.9863 10.4964 13.2142C9.59313 13.5055 8.61709 13.4903 7.69043 13.313C8.29169 13.6904 8.89295 14.0753 9.54632 14.3665C10.7176 14.5109 11.8993 14.1563 12.8781 13.5409C14.3825 12.6343 15.4836 11.2263 17.0141 10.3551C17.5139 10.0386 18.0605 9.77263 18.6592 9.6967C19.5702 8.58492 20.4344 7.44027 21.2934 6.29307C20.3901 6.14872 19.4661 6.06009 18.5525 6.15632Z" fill="#005A9C"/>
<path fill-rule="evenodd" clip-rule="evenodd" d="M18.6731 9.69961C19.5607 9.56794 20.4717 9.75281 21.2838 10.1073C20.2713 11.4192 19.2509 12.7335 18.077 13.9161C17.1035 14.9164 15.6381 15.271 14.2663 15.3216C12.6525 15.3596 11.0179 15.0456 9.55762 14.3695C10.7289 14.5138 11.9107 14.1593 12.8894 13.5439C14.3939 12.6372 15.4949 11.2292 17.0254 10.3581C17.5278 10.0415 18.0744 9.77307 18.6731 9.69961Z" fill="#FD4236"/>
<path fill-rule="evenodd" clip-rule="evenodd" d="M28.9251 1.90926C33.1164 1.90393 37.3105 1.9066 41.5018 1.9066C41.332 3.18481 41.1621 4.46569 40.9923 5.74656C39.5732 5.74656 38.1511 5.74656 36.732 5.74656C36.234 9.29625 35.7359 12.8459 35.2379 16.3956C33.5137 16.3956 31.7865 16.3956 30.0593 16.3956C30.5573 12.8459 31.0553 9.29625 31.5533 5.74656C29.8031 5.74389 28.0529 5.74922 26.3027 5.74389C27.1663 4.46302 28.0558 3.1928 28.9251 1.90926ZM43.0707 1.91991C42.6273 5.67998 42.1869 9.44269 41.7465 13.2028C41.6314 14.2707 41.4414 15.3332 41.2888 16.3956C43.0361 16.3956 44.7805 16.3956 46.5279 16.3956C46.6603 15.4876 46.787 14.5768 46.9193 13.6688C48.6005 13.6662 50.2816 13.6741 51.9627 13.6635C53.4855 13.6422 55.0054 12.5823 55.2011 11.1443C55.5034 8.87818 55.8085 6.61202 56.105 4.34319C56.2403 3.46175 55.6819 2.55369 54.8039 2.19419C54.3203 1.97051 53.7705 1.91725 53.2322 1.9279C49.8469 1.92524 46.4588 1.92257 43.0707 1.91991ZM48.0247 5.74922C48.9344 5.74922 49.8441 5.74922 50.7537 5.74922C50.5695 6.9582 50.391 8.16716 50.2067 9.37352C50.1952 9.61046 49.9908 9.83416 49.7231 9.82354C48.9574 9.83951 48.1946 9.82354 47.4289 9.82621C47.6304 8.46806 47.8175 7.10731 48.0247 5.74922ZM59.9998 2.69749C60.1754 2.18621 60.7569 1.88796 61.3211 1.9066C63.8082 1.90926 66.2982 1.90393 68.7853 1.90926C69.2632 1.88263 69.7783 2.17821 69.7873 2.65755C70.3397 7.23778 70.8866 11.818 71.4362 16.3956C69.6661 16.3956 67.8958 16.3956 66.1255 16.3956C66.0305 15.5568 65.9384 14.718 65.8434 13.8765C64.1623 13.8898 62.4783 13.9138 60.7943 13.9298C60.4892 14.742 60.2128 15.5675 59.8933 16.3771C59.309 16.3211 58.7188 16.3664 58.1344 16.3531C56.96 16.3637 55.7884 16.3317 54.6168 16.369C56.39 11.8047 58.2093 7.25375 59.9998 2.69749ZM63.8974 6.26583C63.3592 7.59463 62.8208 8.92611 62.2854 10.2549C63.3275 10.2549 64.3695 10.2549 65.4116 10.2549C65.2561 8.92611 65.0921 7.5973 64.9338 6.26583C64.5883 6.26583 64.2429 6.26583 63.8974 6.26583ZM74.7961 1.9066C76.5404 1.9066 78.282 1.9066 80.0264 1.9066C79.7672 3.72272 79.5136 5.54152 79.258 7.35762C80.2423 7.36029 81.2267 7.35762 82.211 7.36029C82.4729 5.54152 82.7237 3.72272 82.9829 1.90393C84.822 1.9066 86.6645 1.90127 88.5036 1.9066C87.8328 6.73451 87.171 11.5651 86.5001 16.393C84.661 16.393 82.824 16.393 80.9849 16.393C81.2239 14.6754 81.4684 12.9578 81.7073 11.2402C80.723 11.2402 79.7359 11.2402 78.7508 11.2402C78.5091 12.9578 78.2674 14.6754 78.0284 16.393C76.2869 16.393 74.5425 16.393 72.7981 16.393C73.4634 11.5677 74.1308 6.73717 74.7961 1.9066ZM105.088 1.9066C106.829 1.90926 108.571 1.9066 110.312 1.9066C110.059 3.72538 109.8 5.54152 109.547 7.36029C110.531 7.36029 111.518 7.36029 112.503 7.36029C112.762 5.54152 113.012 3.72272 113.274 1.90393C115.113 1.9066 116.953 1.90393 118.792 1.9066C118.125 6.73717 117.46 11.5651 116.792 16.3956C114.953 16.3956 113.113 16.3956 111.274 16.3956C111.518 14.678 111.757 12.9604 111.999 11.2455C111.012 11.2455 110.027 11.2455 109.04 11.2455C108.798 12.9631 108.556 14.6807 108.314 16.3983C106.573 16.3983 104.828 16.3983 103.084 16.3983C103.755 11.5677 104.42 6.73451 105.088 1.9066ZM157.254 1.9066C162.424 1.9066 167.591 1.90393 172.761 1.9066C171.92 3.18747 171.08 4.46835 170.242 5.74656C168.996 5.74656 167.749 5.74656 166.506 5.74656C166.002 9.29625 165.507 12.8459 165.009 16.3956C163.282 16.3983 161.554 16.3956 159.83 16.3956C160.325 12.8459 160.826 9.29625 161.322 5.74656C159.792 5.74656 158.27 5.74656 156.741 5.74656C156.911 4.46835 157.081 3.18747 157.254 1.9066ZM173.59 1.9066C172.919 6.72652 172.245 11.5438 171.601 16.3664C172.387 16.3317 173.175 16.3637 173.964 16.3531C176.659 16.369 179.356 16.3238 182.053 16.3771C183.153 16.2971 184.223 15.7219 184.762 14.8192C185.102 14.2759 185.113 13.6316 185.208 13.0244C185.476 11.1443 185.715 9.25896 186 7.38162V6.93423C185.922 6.18328 185.395 5.50157 184.658 5.18468C183.953 4.84915 183.139 4.91572 182.376 4.91306C181.045 4.91306 179.719 4.91306 178.388 4.91306C178.535 3.91179 178.685 2.91052 178.832 1.90926C177.085 1.9066 175.337 1.9066 173.59 1.9066ZM177.327 12.569C177.511 11.2988 177.695 10.0286 177.879 8.75834C178.783 8.75834 179.687 8.75834 180.591 8.75834C180.412 9.87681 180.286 11.0032 180.053 12.111C179.998 12.2814 179.963 12.585 179.704 12.561C178.912 12.5797 178.121 12.5637 177.327 12.569ZM89.6956 5.1181C89.3187 7.71714 88.9704 10.3188 88.5991 12.9205C88.4807 13.5836 88.5329 14.2893 88.8951 14.8831C89.4392 15.8311 90.5796 16.3797 91.7137 16.4543H98.0607C99.8051 16.2572 101.48 15.1148 101.889 13.4877C102.062 12.6276 102.123 11.7542 102.252 10.8887C100.514 10.8887 98.7775 10.8887 97.0415 10.8887C96.9642 11.3601 96.8862 11.8314 96.8144 12.3028C95.8238 12.308 94.8367 12.3001 93.8496 12.308C94.1575 10.1298 94.5114 7.95682 94.8165 5.77852C95.821 5.78916 96.8256 5.79183 97.8308 5.79982C97.7556 6.27116 97.6838 6.74517 97.6086 7.2192C99.3418 7.2192 101.072 7.2192 102.808 7.2192C102.914 6.32708 103.058 5.435 103.153 4.54024C103.219 3.89049 102.969 3.20345 102.428 2.77471C101.642 2.14626 100.56 1.96518 99.5494 1.96784C97.6351 1.97583 95.7179 1.95719 93.8036 1.97584C91.8948 2.03175 90.0007 3.32595 89.6956 5.1181ZM120.543 1.96784C119.878 6.79576 119.21 11.6237 118.545 16.4516H131.332C131.502 15.1867 131.672 13.9192 131.839 12.6543C129.317 12.6516 126.795 12.6543 124.273 12.6543C124.363 12.0524 124.455 11.4532 124.547 10.8514C127.063 10.8461 129.576 10.8274 132.089 10.8274C132.242 9.73297 132.394 8.64118 132.547 7.54671C130.031 7.54938 127.512 7.5707 124.996 7.5707C125.085 6.96885 125.178 6.36969 125.27 5.76786C127.789 5.76786 130.304 5.76786 132.823 5.76786C132.993 4.5003 133.162 3.2354 133.33 1.96784C129.069 1.96784 124.806 1.96784 120.543 1.96784ZM134.827 3.58958C135.402 2.57233 136.646 1.95453 137.875 1.97584C142.561 1.9785 147.245 1.97317 151.928 1.9785C152.772 1.98915 153.684 1.90393 154.444 2.31669C155.262 2.7108 155.734 3.59224 155.602 4.43106C155.308 6.6706 155.009 8.90746 154.712 11.1443C154.545 12.593 153.031 13.6822 151.503 13.7141C149.807 13.7247 148.111 13.7141 146.419 13.7168C146.289 14.6274 146.154 15.5382 146.027 16.4489H140.779C140.935 15.5382 141.059 14.6222 141.199 13.7088C139.597 13.7088 137.993 13.7088 136.39 13.7088C135.895 13.7088 135.391 13.6502 134.944 13.4425C134.222 13.1283 133.672 12.4652 133.603 11.7222C133.56 11.2109 133.686 10.7049 133.747 10.1964C133.98 8.48939 134.216 6.78244 134.449 5.0755C134.513 4.57487 134.556 4.04494 134.827 3.58958ZM138.995 9.87146C139.896 9.87146 140.797 9.87146 141.698 9.87146C141.931 8.51599 142.127 7.15523 142.279 5.79183C141.369 5.79183 140.46 5.79183 139.553 5.79183C139.366 7.15256 139.179 8.51071 138.995 9.87146ZM146.929 9.87941C147.712 9.87414 148.494 9.89011 149.277 9.87414C149.528 9.89011 149.698 9.67442 149.7 9.45867C149.884 8.23908 150.066 7.02211 150.25 5.80514C149.337 5.80514 148.428 5.80514 147.519 5.80514C147.32 7.16058 147.124 8.52134 146.929 9.87941Z" fill="#005A9C"/>
</g>
<defs>
<clipPath id="clip0_929_3660">
<rect width="186" height="19" fill="white"/>
</clipPath>
</defs>
</svg>
