<svg width="343" height="336" viewBox="0 0 343 336" fill="none" xmlns="http://www.w3.org/2000/svg">
<g clip-path="url(#clip0_692_233)">
<path d="M86.901 224.654C81.2074 212.227 89.9499 205.646 98.2198 205.141C106.49 204.636 109.586 197.355 106.242 191.425C101.714 183.448 110.134 172.982 119.644 176.431C128.731 179.74 140.132 167.715 132.435 158.4" stroke="#3293FC" stroke-miterlimit="10"/>
</g>
<path d="M341.315 239.083C341.315 291.733 298.519 334.323 245.614 334.323C198.1 334.323 159.685 296.093 159.685 248.808C159.685 206.218 194.394 171.677 237.19 171.677C275.605 171.677 306.944 202.865 306.944 241.095C306.944 275.636 278.975 303.471 244.266 303.471" stroke="#3293FC" stroke-miterlimit="10"/>
<path d="M243.929 303.471C214.612 303.471 190.687 279.661 190.687 250.485C190.687 224.327 212.253 202.865 238.538 202.865" stroke="#3293FC" stroke-miterlimit="10"/>
<path d="M238.538 202.865C258.756 202.865 274.931 218.962 274.931 239.083C274.931 256.857 260.104 271.612 242.244 271.612" stroke="#3293FC" stroke-miterlimit="10"/>
<path d="M242.581 271.612C231.461 271.612 222.363 262.893 222.363 251.826C222.363 242.101 230.45 234.053 240.56 234.053" stroke="#3293FC" stroke-miterlimit="10"/>
<g clip-path="url(#clip1_692_233)">
<path d="M66.4103 15.9263C70.5612 15.9263 73.9261 12.5614 73.9261 8.4105C73.9261 4.25965 70.5612 0.894714 66.4103 0.894714C62.2595 0.894714 58.8945 4.25965 58.8945 8.4105C58.8945 12.5614 62.2595 15.9263 66.4103 15.9263Z" stroke="#3293FC" stroke-miterlimit="10"/>
</g>
<path d="M45.1922 58.4327C45.1922 49.3684 39.7692 45.7427 35.0692 41.3918C30.3692 37.0409 26.0307 34.1403 23.4999 25.8011C20.6076 34.1403 16.6307 37.0409 11.9307 41.3918C7.23069 45.7427 1.80762 49.3684 1.80762 58.4327C1.80762 70.3976 11.5692 80.1871 23.4999 80.1871C35.4307 80.1871 45.1922 70.3976 45.1922 58.4327Z" stroke="#3293FC" stroke-miterlimit="10"/>
<defs>
<clipPath id="clip0_692_233">
<rect width="80" height="18" fill="white" transform="translate(74 212.378) rotate(-44.8073)"/>
</clipPath>
<clipPath id="clip1_692_233">
<rect width="17" height="17" fill="white" transform="translate(58)"/>
</clipPath>
</defs>
</svg>
